<?xml version="1.0" encoding="UTF-8"?>
<svg xmlns="http://www.w3.org/2000/svg" xmlns:xlink="http://www.w3.org/1999/xlink" width="50px" height="50px" viewBox="0 0 50 50" version="1.1">
<g id="surface1">
<path style=" stroke:none;fill-rule:nonzero;fill:rgb(0.392157%,0.784314%,0.784314%);fill-opacity:1;" d="M 24.964844 -0.03125 C 25.0625 -0.03125 25.164062 -0.03125 25.265625 -0.03125 C 26.691406 -0.0234375 28.089844 0 29.492188 0.292969 C 29.585938 0.3125 29.683594 0.332031 29.78125 0.351562 C 34.472656 1.332031 38.789062 3.441406 42.234375 6.796875 C 42.4375 6.984375 42.65625 7.152344 42.871094 7.324219 C 42.976562 7.4375 43.082031 7.554688 43.183594 7.671875 C 43.375 7.898438 43.566406 8.117188 43.769531 8.332031 C 45.003906 9.632812 45.984375 11.144531 46.875 12.695312 C 46.917969 12.769531 46.957031 12.839844 47.003906 12.917969 C 48.273438 15.167969 49.121094 17.628906 49.640625 20.160156 C 49.652344 20.230469 49.667969 20.300781 49.683594 20.371094 C 49.972656 21.902344 50.035156 23.410156 50.03125 24.964844 C 50.03125 25.0625 50.03125 25.164062 50.03125 25.265625 C 50.023438 26.691406 50 28.089844 49.707031 29.492188 C 49.679688 29.636719 49.679688 29.636719 49.648438 29.78125 C 48.660156 34.503906 46.519531 38.800781 43.164062 42.285156 C 43.101562 42.347656 43.039062 42.414062 42.976562 42.480469 C 42.085938 43.40625 41.175781 44.261719 40.136719 45.019531 C 40.023438 45.101562 39.910156 45.1875 39.800781 45.269531 C 39 45.859375 38.167969 46.386719 37.304688 46.875 C 37.234375 46.914062 37.167969 46.953125 37.09375 46.992188 C 34.542969 48.429688 31.707031 49.378906 28.808594 49.804688 C 28.691406 49.820312 28.574219 49.839844 28.453125 49.855469 C 27.316406 50.011719 26.1875 50.035156 25.042969 50.03125 C 24.949219 50.03125 24.851562 50.03125 24.757812 50.03125 C 20.992188 50.015625 17.359375 49.214844 13.964844 47.558594 C 13.898438 47.527344 13.832031 47.492188 13.761719 47.460938 C 11.53125 46.375 9.5 44.882812 7.714844 43.164062 C 7.652344 43.101562 7.585938 43.039062 7.519531 42.976562 C 6.59375 42.085938 5.738281 41.175781 4.980469 40.136719 C 4.898438 40.023438 4.8125 39.910156 4.730469 39.800781 C 4.140625 39 3.617188 38.167969 3.125 37.304688 C 3.089844 37.242188 3.054688 37.179688 3.015625 37.117188 C 1.558594 34.570312 0.632812 31.707031 0.195312 28.808594 C 0.179688 28.699219 0.160156 28.589844 0.144531 28.476562 C -0.0195312 27.332031 -0.0351562 26.199219 -0.03125 25.042969 C -0.03125 24.941406 -0.03125 24.84375 -0.03125 24.742188 C -0.0234375 23.3125 0.00390625 21.914062 0.292969 20.507812 C 0.3125 20.410156 0.332031 20.308594 0.351562 20.207031 C 1.269531 15.609375 3.378906 11.421875 6.582031 7.992188 C 6.757812 7.800781 6.925781 7.609375 7.089844 7.40625 C 7.277344 7.183594 7.457031 6.996094 7.679688 6.8125 C 7.902344 6.621094 8.121094 6.429688 8.332031 6.230469 C 11.5 3.226562 15.707031 1.320312 19.941406 0.414062 C 20.03125 0.394531 20.121094 0.375 20.214844 0.355469 C 21.796875 0.0351562 23.351562 -0.0351562 24.964844 -0.03125 Z M 24.964844 -0.03125 "/>
<path style=" stroke:none;fill-rule:nonzero;fill:rgb(78.039217%,87.450981%,99.215686%);fill-opacity:1;" d="M 30.761719 2.148438 C 30.847656 2.171875 30.9375 2.191406 31.027344 2.214844 C 34.417969 3.066406 37.59375 4.75 40.234375 7.03125 C 40.308594 7.09375 40.382812 7.160156 40.460938 7.226562 C 41.65625 8.273438 42.785156 9.394531 43.726562 10.675781 C 43.84375 10.835938 43.96875 10.996094 44.089844 11.15625 C 47.644531 15.894531 49.222656 22.191406 48.414062 28.050781 C 48.363281 28.371094 48.304688 28.6875 48.242188 29.003906 C 48.226562 29.082031 48.210938 29.164062 48.195312 29.246094 C 47.429688 33.042969 45.914062 36.632812 43.457031 39.648438 C 43.425781 39.648438 43.390625 39.648438 43.359375 39.648438 C 43.335938 39.5 43.335938 39.5 43.3125 39.347656 C 43.03125 37.640625 42.378906 36.1875 41.015625 35.058594 C 39.96875 34.324219 38.8125 33.980469 37.597656 33.617188 C 35.863281 33.097656 34.203125 32.558594 32.605469 31.691406 C 32.277344 31.519531 31.949219 31.351562 31.617188 31.1875 C 31.554688 31.160156 31.496094 31.128906 31.433594 31.097656 C 31.316406 31.039062 31.195312 30.980469 31.078125 30.921875 C 30.644531 30.707031 30.214844 30.492188 29.785156 30.273438 C 29.746094 29.730469 29.722656 29.1875 29.730469 28.644531 C 29.730469 28.554688 29.734375 28.464844 29.734375 28.371094 C 29.800781 28.054688 29.925781 27.929688 30.164062 27.714844 C 30.242188 27.671875 30.324219 27.628906 30.40625 27.585938 C 31.753906 26.835938 32.5 25.027344 32.957031 23.621094 C 33.03125 23.347656 33.054688 23.070312 33.082031 22.785156 C 33.117188 22.503906 33.117188 22.503906 33.203125 22.265625 C 33.441406 22.085938 33.667969 21.984375 33.945312 21.875 C 34.335938 21.714844 34.492188 21.445312 34.675781 21.078125 C 34.792969 20.71875 34.792969 20.375 34.792969 19.996094 C 34.792969 19.917969 34.792969 19.839844 34.792969 19.757812 C 34.796875 19.492188 34.796875 19.230469 34.796875 18.96875 C 34.796875 18.785156 34.796875 18.601562 34.796875 18.417969 C 34.796875 18.035156 34.796875 17.648438 34.796875 17.265625 C 34.796875 16.773438 34.796875 16.285156 34.800781 15.792969 C 34.800781 15.414062 34.800781 15.035156 34.800781 14.65625 C 34.800781 14.476562 34.800781 14.296875 34.800781 14.117188 C 34.804688 13.863281 34.804688 13.609375 34.800781 13.355469 C 34.800781 13.28125 34.804688 13.207031 34.804688 13.128906 C 34.796875 12.261719 34.515625 11.496094 33.914062 10.859375 C 33.273438 10.25 32.601562 10.054688 31.738281 9.960938 C 31.730469 9.894531 31.722656 9.828125 31.714844 9.761719 C 31.589844 8.871094 31.292969 8.144531 30.578125 7.574219 C 29.929688 7.105469 29.269531 6.988281 28.492188 6.992188 C 28.402344 6.992188 28.316406 6.992188 28.226562 6.992188 C 27.941406 6.992188 27.65625 6.992188 27.371094 6.992188 C 27.171875 6.992188 26.972656 6.992188 26.773438 6.992188 C 26.355469 6.992188 25.9375 6.992188 25.519531 6.992188 C 24.988281 6.996094 24.453125 6.992188 23.921875 6.992188 C 23.507812 6.992188 23.097656 6.992188 22.683594 6.992188 C 22.488281 6.992188 22.289062 6.992188 22.09375 6.992188 C 20.757812 6.988281 19.558594 7.050781 18.347656 7.679688 C 18.28125 7.710938 18.214844 7.746094 18.148438 7.78125 C 16.671875 8.570312 15.835938 9.890625 15.355469 11.460938 C 15.21875 12 15.148438 12.53125 15.234375 13.085938 C 15.449219 13.394531 15.5625 13.457031 15.917969 13.574219 C 15.917969 14.21875 15.917969 14.863281 15.917969 15.527344 C 15.675781 15.625 15.675781 15.625 15.429688 15.722656 C 15.222656 16.035156 15.210938 16.117188 15.207031 16.476562 C 15.203125 16.570312 15.203125 16.664062 15.203125 16.757812 C 15.203125 16.859375 15.203125 16.960938 15.203125 17.0625 C 15.199219 17.167969 15.199219 17.269531 15.199219 17.378906 C 15.199219 17.597656 15.199219 17.820312 15.199219 18.039062 C 15.199219 18.375 15.195312 18.710938 15.191406 19.046875 C 15.191406 19.257812 15.191406 19.472656 15.1875 19.6875 C 15.1875 19.835938 15.1875 19.835938 15.183594 19.988281 C 15.191406 20.726562 15.320312 21.277344 15.851562 21.808594 C 16.117188 21.988281 16.117188 21.988281 16.460938 22.085938 C 16.796875 22.265625 16.796875 22.265625 16.910156 22.570312 C 16.925781 22.691406 16.941406 22.8125 16.957031 22.9375 C 16.976562 23.070312 16.996094 23.203125 17.019531 23.335938 C 17.035156 23.433594 17.035156 23.433594 17.050781 23.535156 C 17.363281 25.125 18.410156 26.691406 19.628906 27.734375 C 19.730469 27.78125 19.835938 27.832031 19.941406 27.878906 C 20.214844 28.125 20.214844 28.125 20.261719 28.359375 C 20.273438 28.648438 20.265625 28.933594 20.25 29.222656 C 20.246094 29.375 20.246094 29.375 20.242188 29.527344 C 20.238281 29.777344 20.226562 30.023438 20.214844 30.273438 C 19.582031 30.589844 18.953125 30.90625 18.320312 31.21875 C 18.253906 31.253906 18.183594 31.289062 18.113281 31.324219 C 17.976562 31.394531 17.835938 31.460938 17.699219 31.53125 C 17.371094 31.695312 17.039062 31.859375 16.710938 32.03125 C 16.097656 32.34375 15.503906 32.613281 14.84375 32.8125 C 14.59375 32.894531 14.347656 32.980469 14.097656 33.0625 C 13.960938 33.109375 13.820312 33.15625 13.683594 33.199219 C 13.46875 33.273438 13.257812 33.34375 13.046875 33.414062 C 12.835938 33.484375 12.628906 33.554688 12.417969 33.625 C 12.351562 33.648438 12.285156 33.667969 12.214844 33.691406 C 11.6875 33.867188 11.15625 34.03125 10.625 34.1875 C 9.160156 34.671875 7.988281 35.832031 7.28125 37.179688 C 6.917969 37.976562 6.773438 38.792969 6.640625 39.648438 C 3.160156 36.308594 1.570312 30.453125 1.441406 25.792969 C 1.359375 20.128906 3.007812 14.808594 6.542969 10.351562 C 6.585938 10.296875 6.625 10.246094 6.667969 10.191406 C 7.824219 8.730469 9.171875 7.363281 10.679688 6.269531 C 10.839844 6.152344 10.996094 6.03125 11.15625 5.910156 C 16.574219 1.839844 24.214844 0.269531 30.761719 2.148438 Z M 30.761719 2.148438 "/>
<path style=" stroke:none;fill-rule:nonzero;fill:rgb(99.607843%,86.274511%,80.392158%);fill-opacity:1;" d="M 20.582031 14.488281 C 21.109375 14.523438 21.628906 14.664062 22.140625 14.792969 C 23.101562 15.039062 24.035156 15.066406 25.023438 15.070312 C 25.09375 15.070312 25.164062 15.070312 25.234375 15.070312 C 27.070312 15.078125 27.070312 15.078125 28.808594 14.550781 C 29.023438 14.519531 29.023438 14.519531 29.277344 14.507812 C 29.363281 14.503906 29.445312 14.496094 29.53125 14.488281 C 29.839844 14.5625 29.988281 14.703125 30.179688 14.957031 C 30.34375 15.269531 30.328125 15.597656 30.320312 15.941406 C 30.339844 16.636719 30.398438 17.214844 30.859375 17.773438 C 31.453125 18.28125 31.957031 18.460938 32.734375 18.511719 C 32.855469 18.519531 32.980469 18.527344 33.109375 18.535156 C 33.203125 18.542969 33.300781 18.546875 33.398438 18.554688 C 33.402344 18.875 33.40625 19.195312 33.410156 19.511719 C 33.414062 19.605469 33.414062 19.695312 33.414062 19.789062 C 33.417969 19.875 33.417969 19.960938 33.417969 20.050781 C 33.417969 20.132812 33.417969 20.210938 33.421875 20.296875 C 33.398438 20.507812 33.398438 20.507812 33.203125 20.800781 C 33.082031 20.828125 32.957031 20.855469 32.832031 20.886719 C 32.398438 20.988281 32.191406 21.105469 31.933594 21.484375 C 31.863281 21.769531 31.820312 22.050781 31.78125 22.339844 C 31.535156 24.152344 30.652344 25.679688 29.261719 26.863281 C 27.5 28.140625 25.605469 28.414062 23.472656 28.183594 C 21.78125 27.824219 20.21875 26.621094 19.25 25.222656 C 18.585938 24.15625 18.234375 23.03125 18.140625 21.78125 C 18.042969 21.394531 17.886719 21.242188 17.578125 20.996094 C 17.347656 20.882812 17.347656 20.882812 17.113281 20.824219 C 16.703125 20.707031 16.703125 20.707031 16.601562 20.605469 C 16.59375 20.453125 16.589844 20.300781 16.59375 20.148438 C 16.59375 20.054688 16.59375 19.964844 16.59375 19.867188 C 16.59375 19.769531 16.59375 19.675781 16.59375 19.574219 C 16.597656 19.476562 16.597656 19.378906 16.597656 19.277344 C 16.597656 19.039062 16.597656 18.796875 16.601562 18.554688 C 16.734375 18.550781 16.734375 18.550781 16.867188 18.550781 C 17.644531 18.519531 18.316406 18.460938 18.945312 17.96875 C 19.542969 17.269531 19.652344 16.664062 19.652344 15.765625 C 19.667969 15.371094 19.707031 15.109375 19.953125 14.792969 C 20.214844 14.550781 20.214844 14.550781 20.582031 14.488281 Z M 20.582031 14.488281 "/>
<path style=" stroke:none;fill-rule:nonzero;fill:rgb(26.666668%,46.27451%,61.56863%);fill-opacity:1;" d="M 30.46875 32.226562 C 31.457031 32.605469 32.375 33.089844 33.300781 33.59375 C 33.242188 34.074219 33.03125 34.453125 32.8125 34.875 C 32.742188 35.015625 32.667969 35.152344 32.597656 35.292969 C 32.550781 35.382812 32.550781 35.382812 32.503906 35.476562 C 32.3125 35.875 32.28125 36.183594 32.324219 36.621094 C 32.515625 37.160156 32.761719 37.574219 33.191406 37.953125 C 33.480469 38.21875 33.496094 38.242188 33.515625 38.664062 C 33.433594 39.027344 33.265625 39.335938 33.09375 39.660156 C 32.964844 39.933594 32.953125 40.132812 33.007812 40.429688 C 33.144531 40.683594 33.144531 40.683594 33.398438 40.820312 C 33.738281 40.839844 33.738281 40.839844 34.082031 40.722656 C 34.25 40.488281 34.351562 40.316406 34.460938 40.058594 C 34.488281 39.996094 34.519531 39.933594 34.546875 39.871094 C 34.847656 39.214844 34.964844 38.613281 34.863281 37.890625 C 34.648438 37.410156 34.324219 37.046875 33.941406 36.695312 C 33.859375 36.605469 33.777344 36.515625 33.691406 36.425781 C 33.722656 36.082031 33.835938 35.808594 33.992188 35.503906 C 34.03125 35.425781 34.070312 35.351562 34.109375 35.269531 C 34.152344 35.191406 34.191406 35.109375 34.234375 35.027344 C 34.296875 34.90625 34.296875 34.90625 34.359375 34.78125 C 34.460938 34.582031 34.566406 34.378906 34.667969 34.179688 C 35.136719 34.257812 35.578125 34.402344 36.027344 34.546875 C 36.113281 34.574219 36.195312 34.601562 36.28125 34.628906 C 36.460938 34.6875 36.636719 34.742188 36.8125 34.800781 C 37.082031 34.886719 37.351562 34.972656 37.621094 35.058594 C 37.792969 35.113281 37.964844 35.167969 38.140625 35.226562 C 38.21875 35.25 38.296875 35.273438 38.378906 35.300781 C 39.636719 35.710938 40.746094 36.445312 41.382812 37.636719 C 41.441406 37.761719 41.441406 37.761719 41.503906 37.890625 C 41.5625 38.007812 41.5625 38.007812 41.625 38.128906 C 42.035156 39.101562 42.140625 40.378906 41.894531 41.40625 C 41.589844 42.003906 41.054688 42.382812 40.527344 42.773438 C 40.410156 42.867188 40.296875 42.964844 40.179688 43.058594 C 39.902344 43.289062 39.617188 43.507812 39.328125 43.722656 C 39.164062 43.84375 39.003906 43.96875 38.84375 44.089844 C 36.53125 45.824219 33.90625 46.945312 31.152344 47.753906 C 31.015625 47.792969 31.015625 47.792969 30.875 47.835938 C 28.859375 48.402344 28.859375 48.402344 27.832031 48.339844 C 28.320312 47.753906 28.847656 47.21875 29.394531 46.683594 C 29.785156 46.296875 30.15625 45.902344 30.511719 45.488281 C 30.703125 45.269531 30.898438 45.054688 31.097656 44.84375 C 31.894531 44.039062 31.894531 44.039062 32.359375 43.050781 C 32.347656 42.84375 32.347656 42.84375 32.226562 42.578125 C 31.949219 42.355469 31.949219 42.355469 31.613281 42.378906 C 31.125 42.515625 30.945312 42.757812 30.640625 43.144531 C 30.527344 43.28125 30.417969 43.414062 30.308594 43.546875 C 30.226562 43.648438 30.226562 43.648438 30.140625 43.75 C 29.910156 44.03125 29.664062 44.296875 29.417969 44.5625 C 29.015625 44.996094 28.621094 45.4375 28.230469 45.882812 C 28.015625 46.105469 27.785156 46.296875 27.539062 46.484375 C 27.761719 45.789062 28.019531 45.105469 28.28125 44.421875 C 29.164062 42.121094 29.929688 39.882812 30.332031 37.441406 C 30.363281 37.25 30.402344 37.054688 30.4375 36.863281 C 30.707031 35.371094 30.667969 33.726562 30.46875 32.226562 Z M 30.46875 32.226562 "/>
<path style=" stroke:none;fill-rule:nonzero;fill:rgb(28.627452%,49.803922%,65.882355%);fill-opacity:1;" d="M 15.332031 34.277344 C 15.480469 34.539062 15.625 34.804688 15.773438 35.070312 C 15.835938 35.183594 15.835938 35.183594 15.898438 35.296875 C 16.304688 36.046875 16.304688 36.046875 16.210938 36.523438 C 16.027344 36.78125 16.027344 36.78125 15.785156 37.023438 C 15.320312 37.496094 15.109375 37.785156 15.074219 38.453125 C 15.089844 39.328125 15.488281 39.980469 15.917969 40.722656 C 15.988281 40.847656 16.058594 40.972656 16.128906 41.097656 C 16.597656 41.925781 17.140625 42.667969 17.742188 43.398438 C 17.863281 43.542969 17.976562 43.6875 18.09375 43.835938 C 18.535156 44.386719 19.003906 44.914062 19.488281 45.433594 C 19.75 45.710938 20 45.988281 20.246094 46.277344 C 20.621094 46.707031 21.023438 47.105469 21.429688 47.503906 C 21.570312 47.640625 21.710938 47.78125 21.851562 47.917969 C 21.910156 47.976562 21.972656 48.039062 22.035156 48.101562 C 22.167969 48.242188 22.167969 48.242188 22.167969 48.339844 C 21.296875 48.292969 20.476562 48.152344 19.628906 47.949219 C 19.558594 47.933594 19.488281 47.914062 19.417969 47.898438 C 16.101562 47.101562 12.996094 45.621094 10.351562 43.457031 C 10.296875 43.414062 10.246094 43.371094 10.191406 43.328125 C 9.863281 43.058594 9.546875 42.789062 9.234375 42.507812 C 9.089844 42.390625 8.9375 42.277344 8.785156 42.171875 C 8.425781 41.886719 8.152344 41.648438 8.0625 41.179688 C 8.007812 40.570312 8.046875 39.964844 8.105469 39.355469 C 8.113281 39.246094 8.125 39.136719 8.132812 39.023438 C 8.285156 37.839844 9.039062 36.847656 9.925781 36.09375 C 10.667969 35.539062 11.550781 35.308594 12.421875 35.035156 C 12.582031 34.980469 12.742188 34.929688 12.902344 34.878906 C 13.261719 34.761719 13.621094 34.644531 13.980469 34.53125 C 14.148438 34.476562 14.316406 34.417969 14.480469 34.359375 C 14.777344 34.269531 15.023438 34.261719 15.332031 34.277344 Z M 15.332031 34.277344 "/>
<path style=" stroke:none;fill-rule:nonzero;fill:rgb(20.784314%,36.470589%,48.627451%);fill-opacity:1;" d="M 21.164062 8.382812 C 21.25 8.378906 21.335938 8.378906 21.421875 8.378906 C 21.707031 8.378906 21.992188 8.375 22.273438 8.375 C 22.371094 8.375 22.46875 8.375 22.566406 8.375 C 23.082031 8.371094 23.59375 8.371094 24.105469 8.371094 C 24.636719 8.367188 25.164062 8.363281 25.695312 8.359375 C 26.101562 8.359375 26.511719 8.359375 26.917969 8.359375 C 27.113281 8.355469 27.308594 8.355469 27.503906 8.355469 C 27.777344 8.351562 28.050781 8.351562 28.324219 8.351562 C 28.445312 8.351562 28.445312 8.351562 28.566406 8.347656 C 29.226562 8.355469 29.566406 8.589844 30.054688 9.03125 C 30.347656 9.398438 30.351562 9.816406 30.410156 10.269531 C 30.496094 10.683594 30.644531 10.851562 30.957031 11.132812 C 31.273438 11.324219 31.550781 11.363281 31.914062 11.402344 C 32.484375 11.488281 32.84375 11.65625 33.203125 12.109375 C 33.378906 12.40625 33.421875 12.621094 33.421875 12.964844 C 33.421875 13.101562 33.421875 13.101562 33.421875 13.242188 C 33.417969 13.34375 33.417969 13.441406 33.417969 13.542969 C 33.417969 13.644531 33.417969 13.746094 33.417969 13.847656 C 33.414062 14.171875 33.414062 14.496094 33.410156 14.820312 C 33.410156 15.039062 33.410156 15.257812 33.40625 15.476562 C 33.40625 16.015625 33.402344 16.550781 33.398438 17.089844 C 33.210938 17.101562 33.023438 17.109375 32.835938 17.113281 C 32.734375 17.117188 32.628906 17.125 32.519531 17.128906 C 32.160156 17.082031 32.058594 16.980469 31.835938 16.699219 C 31.710938 16.445312 31.722656 16.214844 31.714844 15.9375 C 31.6875 15.058594 31.605469 14.496094 31.03125 13.792969 C 30.367188 13.253906 29.847656 13.121094 28.984375 13.144531 C 28.46875 13.199219 27.992188 13.328125 27.496094 13.480469 C 26.679688 13.703125 25.867188 13.691406 25.023438 13.691406 C 24.90625 13.691406 24.789062 13.691406 24.667969 13.695312 C 23.710938 13.695312 22.804688 13.59375 21.886719 13.316406 C 21.085938 13.113281 20.199219 13 19.433594 13.371094 C 18.902344 13.71875 18.558594 14.246094 18.359375 14.84375 C 18.335938 15.195312 18.320312 15.542969 18.308594 15.894531 C 18.273438 16.621094 18.273438 16.621094 18.066406 16.894531 C 17.757812 17.113281 17.488281 17.109375 17.113281 17.101562 C 17.019531 17.101562 16.921875 17.097656 16.824219 17.097656 C 16.75 17.09375 16.675781 17.09375 16.601562 17.089844 C 16.597656 17.007812 16.59375 16.925781 16.589844 16.84375 C 16.585938 16.738281 16.578125 16.632812 16.570312 16.523438 C 16.5625 16.363281 16.5625 16.363281 16.554688 16.203125 C 16.5 15.898438 16.460938 15.804688 16.210938 15.625 C 16.113281 15.59375 16.019531 15.558594 15.917969 15.527344 C 15.902344 15.210938 15.890625 14.894531 15.882812 14.574219 C 15.875 14.484375 15.871094 14.394531 15.867188 14.304688 C 15.859375 14.046875 15.863281 13.824219 15.917969 13.574219 C 16.207031 13.359375 16.207031 13.359375 16.503906 13.183594 C 16.601562 12.855469 16.601562 12.855469 16.613281 12.488281 C 16.726562 11.265625 17.199219 10.269531 18.125 9.441406 C 19.070312 8.71875 19.984375 8.386719 21.164062 8.382812 Z M 21.164062 8.382812 "/>
<path style=" stroke:none;fill-rule:nonzero;fill:rgb(99.215686%,78.823531%,73.725492%);fill-opacity:1;" d="M 29.785156 14.550781 C 30.148438 14.882812 30.257812 15.027344 30.324219 15.523438 C 30.324219 15.664062 30.324219 15.800781 30.320312 15.941406 C 30.339844 16.636719 30.398438 17.214844 30.859375 17.773438 C 31.453125 18.28125 31.957031 18.460938 32.734375 18.511719 C 32.855469 18.519531 32.980469 18.527344 33.109375 18.535156 C 33.203125 18.542969 33.300781 18.546875 33.398438 18.554688 C 33.402344 18.875 33.40625 19.195312 33.410156 19.511719 C 33.414062 19.605469 33.414062 19.695312 33.414062 19.789062 C 33.417969 19.875 33.417969 19.960938 33.417969 20.050781 C 33.417969 20.132812 33.417969 20.210938 33.421875 20.296875 C 33.398438 20.507812 33.398438 20.507812 33.203125 20.800781 C 33.082031 20.828125 32.957031 20.855469 32.832031 20.886719 C 32.398438 20.988281 32.191406 21.105469 31.933594 21.484375 C 31.863281 21.769531 31.820312 22.050781 31.78125 22.339844 C 31.535156 24.152344 30.652344 25.679688 29.261719 26.863281 C 28.070312 27.726562 26.769531 28.25 25.292969 28.222656 C 25.378906 28.121094 25.464844 28.023438 25.550781 27.921875 C 25.628906 27.828125 25.628906 27.828125 25.710938 27.730469 C 25.8125 27.617188 25.914062 27.5 26.019531 27.390625 C 27.195312 26.125 27.859375 24.359375 27.863281 22.648438 C 27.863281 22.5625 27.863281 22.480469 27.867188 22.390625 C 27.867188 22.117188 27.871094 21.84375 27.871094 21.570312 C 27.875 21.378906 27.875 21.1875 27.878906 20.996094 C 27.882812 20.492188 27.886719 19.992188 27.890625 19.492188 C 27.894531 18.976562 27.898438 18.464844 27.90625 17.953125 C 27.914062 16.949219 27.921875 15.945312 27.929688 14.941406 C 27.832031 14.910156 27.734375 14.875 27.636719 14.84375 C 29.234375 14.382812 29.234375 14.382812 29.785156 14.550781 Z M 29.785156 14.550781 "/>
<path style=" stroke:none;fill-rule:nonzero;fill:rgb(20.784314%,36.078432%,48.235294%);fill-opacity:1;" d="M 30.46875 32.226562 C 31.457031 32.605469 32.375 33.089844 33.300781 33.59375 C 33.242188 34.074219 33.03125 34.453125 32.8125 34.875 C 32.742188 35.015625 32.667969 35.152344 32.597656 35.292969 C 32.550781 35.382812 32.550781 35.382812 32.503906 35.476562 C 32.3125 35.875 32.28125 36.183594 32.324219 36.621094 C 32.515625 37.160156 32.761719 37.574219 33.191406 37.953125 C 33.480469 38.21875 33.496094 38.242188 33.515625 38.664062 C 33.433594 39.027344 33.265625 39.335938 33.09375 39.660156 C 32.96875 39.929688 32.96875 40.140625 33.007812 40.429688 C 33.046875 40.503906 33.085938 40.578125 33.128906 40.65625 C 33.203125 40.917969 33.203125 40.917969 33.082031 41.1875 C 33.019531 41.277344 32.957031 41.367188 32.890625 41.460938 C 32.828125 41.550781 32.769531 41.644531 32.703125 41.734375 C 32.644531 41.820312 32.582031 41.90625 32.519531 41.992188 C 32.472656 42.066406 32.421875 42.144531 32.375 42.21875 C 32.324219 42.273438 32.277344 42.328125 32.226562 42.382812 C 31.847656 42.382812 31.847656 42.382812 31.652344 42.359375 C 31.253906 42.40625 31.011719 42.710938 30.757812 43 C 30.660156 43.128906 30.660156 43.128906 30.558594 43.253906 C 30.128906 43.796875 29.664062 44.304688 29.191406 44.808594 C 28.863281 45.160156 28.542969 45.523438 28.226562 45.886719 C 28.011719 46.109375 27.785156 46.296875 27.539062 46.484375 C 27.761719 45.789062 28.019531 45.105469 28.28125 44.421875 C 29.164062 42.121094 29.929688 39.882812 30.332031 37.441406 C 30.363281 37.25 30.402344 37.054688 30.4375 36.863281 C 30.707031 35.371094 30.667969 33.726562 30.46875 32.226562 Z M 30.46875 32.226562 "/>
<path style=" stroke:none;fill-rule:nonzero;fill:rgb(20.784314%,36.078432%,47.843137%);fill-opacity:1;" d="M 19.53125 32.226562 C 19.507812 32.40625 19.507812 32.40625 19.484375 32.589844 C 19.148438 35.675781 19.730469 38.683594 20.703125 41.601562 C 20.738281 41.710938 20.773438 41.816406 20.808594 41.925781 C 21.226562 43.183594 21.675781 44.421875 22.203125 45.636719 C 22.238281 45.71875 22.273438 45.804688 22.308594 45.890625 C 22.339844 45.960938 22.371094 46.035156 22.40625 46.109375 C 22.460938 46.289062 22.460938 46.289062 22.363281 46.484375 C 21.816406 45.949219 21.277344 45.414062 20.78125 44.832031 C 20.574219 44.589844 20.355469 44.359375 20.140625 44.128906 C 19.628906 43.5625 19.152344 42.972656 18.691406 42.367188 C 18.601562 42.246094 18.507812 42.128906 18.417969 42.011719 C 17.878906 41.320312 17.398438 40.617188 16.980469 39.851562 C 16.941406 39.78125 16.90625 39.714844 16.867188 39.648438 C 16.628906 39.1875 16.503906 38.804688 16.503906 38.28125 C 16.679688 38.003906 16.679688 38.003906 16.925781 37.769531 C 17.394531 37.304688 17.605469 37.023438 17.640625 36.351562 C 17.632812 35.601562 17.335938 35.066406 16.976562 34.425781 C 16.824219 34.132812 16.738281 33.917969 16.699219 33.59375 C 16.992188 33.4375 17.285156 33.285156 17.578125 33.128906 C 17.660156 33.085938 17.742188 33.042969 17.828125 33 C 18.070312 32.871094 18.3125 32.742188 18.554688 32.617188 C 18.628906 32.578125 18.707031 32.539062 18.78125 32.496094 C 19.3125 32.226562 19.3125 32.226562 19.53125 32.226562 Z M 19.53125 32.226562 "/>
<path style=" stroke:none;fill-rule:nonzero;fill:rgb(16.470589%,29.803923%,39.215687%);fill-opacity:1;" d="M 20.3125 8.398438 C 21.460938 8.390625 22.609375 8.382812 23.757812 8.378906 C 24.292969 8.375 24.824219 8.375 25.359375 8.367188 C 25.871094 8.363281 26.386719 8.363281 26.902344 8.363281 C 27.097656 8.359375 27.296875 8.359375 27.492188 8.355469 C 27.765625 8.355469 28.042969 8.355469 28.316406 8.355469 C 28.398438 8.351562 28.480469 8.351562 28.5625 8.351562 C 29.222656 8.355469 29.566406 8.589844 30.054688 9.03125 C 30.347656 9.398438 30.351562 9.816406 30.410156 10.269531 C 30.496094 10.683594 30.644531 10.851562 30.957031 11.132812 C 31.273438 11.324219 31.550781 11.363281 31.914062 11.402344 C 32.484375 11.488281 32.84375 11.65625 33.203125 12.109375 C 33.378906 12.40625 33.421875 12.621094 33.421875 12.964844 C 33.421875 13.101562 33.421875 13.101562 33.421875 13.242188 C 33.417969 13.34375 33.417969 13.441406 33.417969 13.542969 C 33.417969 13.644531 33.417969 13.746094 33.417969 13.847656 C 33.414062 14.171875 33.414062 14.496094 33.410156 14.820312 C 33.410156 15.039062 33.410156 15.257812 33.40625 15.476562 C 33.40625 16.015625 33.402344 16.550781 33.398438 17.089844 C 33.210938 17.101562 33.023438 17.109375 32.835938 17.113281 C 32.734375 17.117188 32.628906 17.125 32.519531 17.128906 C 32.160156 17.082031 32.058594 16.980469 31.835938 16.699219 C 31.710938 16.445312 31.722656 16.214844 31.714844 15.9375 C 31.6875 15.058594 31.605469 14.496094 31.03125 13.792969 C 30.257812 13.160156 29.605469 13.117188 28.613281 13.183594 C 28.273438 13.230469 28.273438 13.230469 27.929688 13.28125 C 27.929688 11.703125 27.929688 10.125 27.929688 8.496094 C 25.414062 8.496094 22.902344 8.496094 20.3125 8.496094 C 20.3125 8.464844 20.3125 8.429688 20.3125 8.398438 Z M 20.3125 8.398438 "/>
<path style=" stroke:none;fill-rule:nonzero;fill:rgb(98.431373%,85.490197%,79.607844%);fill-opacity:1;" d="M 21.679688 29.101562 C 22.089844 29.175781 22.476562 29.292969 22.871094 29.421875 C 23.585938 29.605469 24.300781 29.609375 25.03125 29.609375 C 25.125 29.609375 25.21875 29.609375 25.316406 29.613281 C 26.285156 29.613281 27.128906 29.453125 28.027344 29.101562 C 28.125 29.101562 28.21875 29.101562 28.320312 29.101562 C 28.40625 29.621094 28.484375 30.167969 28.222656 30.648438 C 27.953125 31.019531 27.632812 31.34375 27.308594 31.667969 C 27.058594 31.929688 26.824219 32.210938 26.59375 32.488281 C 26.503906 32.59375 26.417969 32.695312 26.332031 32.800781 C 25.945312 33.253906 25.570312 33.71875 25.195312 34.179688 C 24.78125 34.023438 24.527344 33.707031 24.238281 33.386719 C 24.183594 33.328125 24.132812 33.269531 24.078125 33.210938 C 23.753906 32.855469 23.433594 32.492188 23.117188 32.125 C 22.839844 31.808594 22.558594 31.5 22.277344 31.191406 C 22.207031 31.113281 22.140625 31.035156 22.070312 30.957031 C 21.996094 30.882812 21.925781 30.804688 21.851562 30.726562 C 21.625 30.386719 21.640625 30.160156 21.65625 29.753906 C 21.660156 29.632812 21.664062 29.507812 21.664062 29.382812 C 21.671875 29.242188 21.671875 29.242188 21.679688 29.101562 Z M 21.679688 29.101562 "/>
<path style=" stroke:none;fill-rule:nonzero;fill:rgb(87.058824%,49.411765%,51.372552%);fill-opacity:1;" d="M 24.414062 39.746094 C 24.800781 39.746094 25.1875 39.746094 25.585938 39.746094 C 25.613281 39.855469 25.644531 39.964844 25.671875 40.074219 C 25.777344 40.480469 25.886719 40.886719 25.992188 41.292969 C 26.039062 41.46875 26.085938 41.644531 26.128906 41.820312 C 26.195312 42.074219 26.261719 42.324219 26.328125 42.578125 C 26.359375 42.695312 26.359375 42.695312 26.390625 42.8125 C 26.410156 42.886719 26.429688 42.960938 26.449219 43.039062 C 26.46875 43.109375 26.488281 43.179688 26.507812 43.253906 C 26.558594 43.441406 26.621094 43.625 26.679688 43.8125 C 26.828125 44.4375 26.644531 44.917969 26.382812 45.488281 C 26.355469 45.550781 26.328125 45.609375 26.300781 45.671875 C 26.214844 45.863281 26.125 46.054688 26.039062 46.246094 C 25.980469 46.375 25.921875 46.503906 25.863281 46.632812 C 25.617188 47.171875 25.367188 47.710938 25.097656 48.242188 C 25.03125 48.242188 24.96875 48.242188 24.902344 48.242188 C 24.585938 47.589844 24.273438 46.933594 23.960938 46.277344 C 23.882812 46.109375 23.800781 45.9375 23.71875 45.769531 C 23.632812 45.585938 23.546875 45.402344 23.460938 45.222656 C 23.417969 45.125 23.371094 45.027344 23.324219 44.925781 C 23.113281 44.152344 23.472656 43.269531 23.664062 42.515625 C 23.695312 42.394531 23.726562 42.273438 23.757812 42.148438 C 23.960938 41.34375 24.175781 40.542969 24.414062 39.746094 Z M 24.414062 39.746094 "/>
<path style=" stroke:none;fill-rule:nonzero;fill:rgb(93.725491%,96.470588%,98.039216%);fill-opacity:1;" d="M 21.09375 32.03125 C 21.476562 32.308594 21.769531 32.625 22.074219 32.980469 C 22.28125 33.222656 22.492188 33.457031 22.703125 33.691406 C 22.851562 33.855469 23 34.015625 23.144531 34.179688 C 23.210938 34.253906 23.277344 34.328125 23.34375 34.402344 C 23.40625 34.46875 23.464844 34.539062 23.527344 34.605469 C 23.582031 34.667969 23.636719 34.726562 23.691406 34.785156 C 23.832031 34.964844 23.929688 35.144531 24.023438 35.351562 C 23.804688 35.539062 23.589844 35.726562 23.371094 35.914062 C 23.308594 35.964844 23.25 36.019531 23.183594 36.074219 C 23.066406 36.175781 22.945312 36.277344 22.824219 36.382812 C 22.679688 36.503906 22.542969 36.628906 22.402344 36.757812 C 22.101562 36.960938 21.941406 36.957031 21.582031 36.914062 C 21.140625 36.589844 20.847656 36.15625 20.734375 35.621094 C 20.714844 35.269531 20.71875 34.929688 20.734375 34.582031 C 20.734375 34.464844 20.734375 34.351562 20.738281 34.230469 C 20.753906 33.464844 20.875 32.765625 21.09375 32.03125 Z M 21.09375 32.03125 "/>
<path style=" stroke:none;fill-rule:nonzero;fill:rgb(93.725491%,96.470588%,98.039216%);fill-opacity:1;" d="M 28.710938 32.128906 C 28.773438 32.128906 28.839844 32.128906 28.90625 32.128906 C 29.175781 32.949219 29.261719 33.714844 29.273438 34.578125 C 29.277344 34.695312 29.285156 34.8125 29.289062 34.933594 C 29.300781 35.75 29.117188 36.164062 28.558594 36.757812 C 28.320312 36.914062 28.320312 36.914062 28.0625 36.902344 C 27.742188 36.78125 27.550781 36.589844 27.300781 36.351562 C 27.207031 36.265625 27.113281 36.175781 27.019531 36.085938 C 26.890625 35.964844 26.890625 35.964844 26.757812 35.839844 C 26.566406 35.671875 26.371094 35.511719 26.171875 35.351562 C 26.546875 34.507812 27.304688 33.816406 27.921875 33.140625 C 28.167969 32.863281 28.382812 32.570312 28.59375 32.265625 C 28.632812 32.21875 28.671875 32.175781 28.710938 32.128906 Z M 28.710938 32.128906 "/>
<path style=" stroke:none;fill-rule:nonzero;fill:rgb(85.490197%,92.54902%,95.686275%);fill-opacity:1;" d="M 28.710938 38.28125 C 28.65625 38.933594 28.527344 39.515625 28.332031 40.136719 C 28.296875 40.257812 28.296875 40.257812 28.257812 40.382812 C 28.089844 40.921875 27.914062 41.457031 27.734375 41.992188 C 27.539062 41.894531 27.539062 41.894531 27.464844 41.675781 C 27.441406 41.582031 27.417969 41.488281 27.390625 41.390625 C 27.367188 41.285156 27.339844 41.183594 27.3125 41.078125 C 27.289062 40.96875 27.261719 40.859375 27.234375 40.746094 C 27.207031 40.640625 27.179688 40.53125 27.152344 40.421875 C 26.867188 39.273438 26.867188 39.273438 27.039062 38.84375 C 27.484375 38.167969 27.945312 38.191406 28.710938 38.28125 Z M 28.710938 38.28125 "/>
<path style=" stroke:none;fill-rule:nonzero;fill:rgb(85.882354%,92.54902%,96.078432%);fill-opacity:1;" d="M 21.289062 38.378906 C 22.285156 38.277344 22.285156 38.277344 22.671875 38.5 C 22.90625 38.742188 23.046875 38.898438 23.046875 39.246094 C 22.992188 39.832031 22.855469 40.398438 22.710938 40.96875 C 22.679688 41.097656 22.679688 41.097656 22.648438 41.234375 C 22.625 41.320312 22.605469 41.402344 22.582031 41.488281 C 22.566406 41.5625 22.546875 41.640625 22.527344 41.71875 C 22.460938 41.894531 22.460938 41.894531 22.265625 41.992188 C 21.976562 41.277344 21.761719 40.542969 21.558594 39.800781 C 21.53125 39.707031 21.503906 39.609375 21.476562 39.511719 C 21.453125 39.421875 21.429688 39.332031 21.402344 39.238281 C 21.382812 39.160156 21.359375 39.078125 21.335938 38.992188 C 21.289062 38.769531 21.289062 38.769531 21.289062 38.378906 Z M 21.289062 38.378906 "/>
<path style=" stroke:none;fill-rule:nonzero;fill:rgb(85.09804%,38.039216%,42.352942%);fill-opacity:1;" d="M 25 36.328125 C 25.359375 36.53125 25.65625 36.753906 25.957031 37.03125 C 26.035156 37.101562 26.113281 37.167969 26.191406 37.242188 C 26.25 37.292969 26.308594 37.347656 26.367188 37.402344 C 26 38.0625 26 38.0625 25.78125 38.28125 C 24.472656 38.445312 24.472656 38.445312 23.984375 38.128906 C 23.84375 37.957031 23.730469 37.796875 23.632812 37.597656 C 24.066406 37.148438 24.53125 36.738281 25 36.328125 Z M 25 36.328125 "/>
</g>
</svg>
