<?xml version="1.0" encoding="UTF-8"?>
<svg xmlns="http://www.w3.org/2000/svg" xmlns:xlink="http://www.w3.org/1999/xlink" width="50px" height="50px" viewBox="0 0 50 50" version="1.1">
<g id="surface1">
<path style=" stroke:none;fill-rule:nonzero;fill:rgb(30.19608%,64.705884%,100%);fill-opacity:1;" d="M 15.121094 3.0625 C 15.503906 3.359375 15.859375 3.675781 16.210938 4.003906 C 16.265625 4.054688 16.316406 4.101562 16.371094 4.152344 C 18.753906 6.367188 20.699219 9.953125 20.84375 13.25 C 20.8125 14.160156 20.394531 14.847656 19.824219 15.527344 C 19.742188 15.625 19.660156 15.722656 19.578125 15.820312 C 19.394531 16.039062 19.207031 16.257812 19.023438 16.476562 C 18.707031 16.84375 18.402344 17.222656 18.097656 17.597656 C 17.890625 17.84375 17.683594 18.089844 17.476562 18.332031 C 15.898438 20.050781 15.898438 20.050781 15.382812 22.234375 C 15.707031 24.414062 18.1875 26.917969 19.609375 28.476562 C 19.816406 28.703125 20.019531 28.9375 20.222656 29.167969 C 20.515625 29.503906 20.828125 29.796875 21.167969 30.085938 C 21.382812 30.269531 21.589844 30.460938 21.792969 30.652344 C 22.4375 31.257812 23.117188 31.804688 23.828125 32.324219 C 23.890625 32.371094 23.953125 32.417969 24.019531 32.464844 C 26.15625 34.113281 26.15625 34.113281 28.710938 34.570312 C 29.738281 34.308594 30.535156 33.441406 31.320312 32.769531 C 31.753906 32.394531 32.195312 32.027344 32.640625 31.667969 C 32.886719 31.464844 33.132812 31.253906 33.378906 31.046875 C 35.65625 29.097656 35.65625 29.097656 37.304688 29.199219 C 37.683594 29.257812 38.050781 29.347656 38.421875 29.445312 C 38.523438 29.46875 38.625 29.496094 38.726562 29.523438 C 41.378906 30.230469 43.636719 31.5 45.605469 33.398438 C 45.675781 33.460938 45.742188 33.523438 45.8125 33.589844 C 47.183594 34.871094 48.730469 37.050781 48.832031 38.960938 C 48.789062 41.777344 45.40625 45.335938 43.75 47.460938 C 43.6875 47.542969 43.6875 47.542969 43.625 47.625 C 43.136719 48.238281 42.449219 48.679688 41.664062 48.804688 C 36.996094 49.199219 30.984375 46.773438 26.960938 44.636719 C 26.722656 44.511719 26.484375 44.390625 26.242188 44.269531 C 23.164062 42.707031 20.292969 40.785156 17.675781 38.53125 C 17.394531 38.292969 17.109375 38.058594 16.820312 37.828125 C 16.398438 37.484375 16.015625 37.121094 15.636719 36.730469 C 15.445312 36.539062 15.253906 36.367188 15.050781 36.195312 C 14.339844 35.582031 13.679688 34.90625 13.074219 34.195312 C 12.886719 33.980469 12.699219 33.773438 12.503906 33.566406 C 11.957031 32.976562 11.4375 32.371094 10.9375 31.738281 C 10.886719 31.675781 10.839844 31.613281 10.789062 31.550781 C 8.496094 28.675781 6.566406 25.582031 4.980469 22.265625 C 4.925781 22.152344 4.925781 22.152344 4.871094 22.039062 C 3.148438 18.457031 0.0546875 11.695312 1.367188 7.765625 C 1.996094 6.183594 3.785156 5.257812 5.140625 4.355469 C 5.359375 4.207031 5.578125 4.058594 5.792969 3.910156 C 6.652344 3.324219 7.527344 2.777344 8.417969 2.238281 C 8.519531 2.175781 8.625 2.113281 8.730469 2.050781 C 11.121094 0.621094 13.003906 1.507812 15.121094 3.0625 Z M 15.121094 3.0625 "/>
</g>
</svg>
