<?xml version="1.0" encoding="UTF-8"?>
<svg xmlns="http://www.w3.org/2000/svg" xmlns:xlink="http://www.w3.org/1999/xlink" width="50px" height="50px" viewBox="0 0 50 50" version="1.1">
<g id="surface1">
<path style=" stroke:none;fill-rule:nonzero;fill:rgb(89.803922%,89.803922%,89.803922%);fill-opacity:1;" d="M 11.152344 1.929688 C 11.300781 1.925781 11.300781 1.925781 11.457031 1.925781 C 11.566406 1.925781 11.675781 1.925781 11.789062 1.925781 C 11.90625 1.925781 12.023438 1.925781 12.144531 1.925781 C 12.46875 1.925781 12.792969 1.925781 13.117188 1.925781 C 13.46875 1.925781 13.816406 1.921875 14.167969 1.921875 C 14.855469 1.921875 15.539062 1.921875 16.226562 1.921875 C 16.785156 1.921875 17.34375 1.921875 17.902344 1.917969 C 19.484375 1.917969 21.066406 1.917969 22.648438 1.917969 C 22.730469 1.917969 22.816406 1.917969 22.90625 1.917969 C 22.992188 1.917969 23.074219 1.917969 23.164062 1.917969 C 24.546875 1.917969 25.929688 1.914062 27.316406 1.914062 C 28.734375 1.910156 30.15625 1.910156 31.578125 1.910156 C 32.375 1.910156 33.171875 1.90625 33.96875 1.90625 C 34.648438 1.902344 35.328125 1.902344 36.007812 1.90625 C 36.355469 1.90625 36.699219 1.90625 37.046875 1.902344 C 37.421875 1.902344 37.800781 1.902344 38.175781 1.90625 C 38.285156 1.902344 38.394531 1.902344 38.503906 1.902344 C 39.253906 1.910156 39.777344 2.027344 40.355469 2.535156 C 40.410156 2.597656 40.460938 2.664062 40.515625 2.726562 C 40.570312 2.792969 40.625 2.855469 40.679688 2.921875 C 40.996094 3.378906 41.042969 3.792969 41.039062 4.339844 C 41.042969 4.410156 41.042969 4.484375 41.042969 4.558594 C 41.042969 4.804688 41.042969 5.046875 41.042969 5.289062 C 41.042969 5.46875 41.042969 5.644531 41.042969 5.820312 C 41.042969 6.304688 41.042969 6.789062 41.042969 7.273438 C 41.042969 7.796875 41.046875 8.320312 41.046875 8.84375 C 41.046875 9.867188 41.046875 10.894531 41.046875 11.917969 C 41.046875 12.75 41.046875 13.582031 41.050781 14.414062 C 41.050781 16.777344 41.050781 19.136719 41.050781 21.496094 C 41.050781 21.625 41.050781 21.75 41.050781 21.882812 C 41.050781 22.007812 41.050781 22.136719 41.050781 22.269531 C 41.050781 24.332031 41.054688 26.398438 41.054688 28.464844 C 41.058594 30.585938 41.058594 32.707031 41.058594 34.824219 C 41.058594 36.015625 41.0625 37.207031 41.0625 38.398438 C 41.066406 39.410156 41.066406 40.425781 41.0625 41.4375 C 41.0625 41.957031 41.0625 42.472656 41.066406 42.992188 C 41.066406 43.464844 41.066406 43.9375 41.0625 44.410156 C 41.0625 44.582031 41.0625 44.753906 41.066406 44.925781 C 41.074219 46.652344 41.074219 46.652344 40.433594 47.386719 C 40.371094 47.441406 40.304688 47.492188 40.242188 47.546875 C 40.175781 47.601562 40.113281 47.65625 40.046875 47.710938 C 39.660156 47.976562 39.316406 48.070312 38.847656 48.070312 C 38.699219 48.074219 38.699219 48.074219 38.542969 48.074219 C 38.433594 48.074219 38.324219 48.074219 38.210938 48.074219 C 38.035156 48.074219 38.035156 48.074219 37.855469 48.074219 C 37.53125 48.074219 37.207031 48.074219 36.882812 48.074219 C 36.53125 48.074219 36.183594 48.078125 35.832031 48.078125 C 35.144531 48.078125 34.460938 48.078125 33.773438 48.078125 C 33.214844 48.078125 32.65625 48.078125 32.097656 48.082031 C 30.515625 48.082031 28.933594 48.082031 27.351562 48.082031 C 27.269531 48.082031 27.183594 48.082031 27.09375 48.082031 C 27.007812 48.082031 26.925781 48.082031 26.835938 48.082031 C 25.453125 48.082031 24.070312 48.085938 22.683594 48.085938 C 21.265625 48.089844 19.84375 48.089844 18.421875 48.089844 C 17.625 48.089844 16.828125 48.09375 16.03125 48.09375 C 15.351562 48.097656 14.671875 48.097656 13.992188 48.09375 C 13.644531 48.09375 13.300781 48.09375 12.953125 48.097656 C 12.578125 48.097656 12.199219 48.097656 11.824219 48.09375 C 11.714844 48.097656 11.605469 48.097656 11.496094 48.097656 C 10.746094 48.089844 10.222656 47.972656 9.644531 47.464844 C 9.589844 47.402344 9.539062 47.335938 9.484375 47.273438 C 9.429688 47.207031 9.375 47.144531 9.320312 47.078125 C 9.003906 46.621094 8.957031 46.207031 8.960938 45.660156 C 8.957031 45.589844 8.957031 45.515625 8.957031 45.441406 C 8.957031 45.195312 8.957031 44.953125 8.957031 44.710938 C 8.957031 44.53125 8.957031 44.355469 8.957031 44.179688 C 8.957031 43.695312 8.957031 43.210938 8.957031 42.726562 C 8.957031 42.203125 8.953125 41.679688 8.953125 41.15625 C 8.953125 40.132812 8.953125 39.105469 8.953125 38.082031 C 8.953125 37.25 8.953125 36.417969 8.949219 35.585938 C 8.949219 33.222656 8.949219 30.863281 8.949219 28.503906 C 8.949219 28.375 8.949219 28.25 8.949219 28.117188 C 8.949219 27.992188 8.949219 27.863281 8.949219 27.730469 C 8.949219 25.667969 8.945312 23.601562 8.945312 21.535156 C 8.941406 19.414062 8.941406 17.292969 8.941406 15.175781 C 8.941406 13.984375 8.9375 12.792969 8.9375 11.601562 C 8.933594 10.589844 8.933594 9.574219 8.9375 8.5625 C 8.9375 8.042969 8.9375 7.527344 8.933594 7.007812 C 8.933594 6.535156 8.933594 6.0625 8.9375 5.589844 C 8.9375 5.417969 8.9375 5.246094 8.933594 5.074219 C 8.925781 3.347656 8.925781 3.347656 9.566406 2.613281 C 9.628906 2.558594 9.695312 2.507812 9.757812 2.453125 C 9.824219 2.398438 9.886719 2.34375 9.953125 2.289062 C 10.339844 2.023438 10.683594 1.929688 11.152344 1.929688 Z M 11.152344 1.929688 "/>
<path style=" stroke:none;fill-rule:nonzero;fill:rgb(0%,0%,0%);fill-opacity:1;" d="M 11.152344 1.929688 C 11.300781 1.925781 11.300781 1.925781 11.457031 1.925781 C 11.566406 1.925781 11.675781 1.925781 11.789062 1.925781 C 11.90625 1.925781 12.023438 1.925781 12.144531 1.925781 C 12.46875 1.925781 12.792969 1.925781 13.117188 1.925781 C 13.46875 1.925781 13.816406 1.921875 14.167969 1.921875 C 14.855469 1.921875 15.539062 1.921875 16.226562 1.921875 C 16.785156 1.921875 17.34375 1.921875 17.902344 1.917969 C 19.484375 1.917969 21.066406 1.917969 22.648438 1.917969 C 22.730469 1.917969 22.816406 1.917969 22.90625 1.917969 C 22.992188 1.917969 23.074219 1.917969 23.164062 1.917969 C 24.546875 1.917969 25.929688 1.914062 27.316406 1.914062 C 28.734375 1.910156 30.15625 1.910156 31.578125 1.910156 C 32.375 1.910156 33.171875 1.90625 33.96875 1.90625 C 34.648438 1.902344 35.328125 1.902344 36.007812 1.90625 C 36.355469 1.90625 36.699219 1.90625 37.046875 1.902344 C 37.421875 1.902344 37.800781 1.902344 38.175781 1.90625 C 38.285156 1.902344 38.394531 1.902344 38.503906 1.902344 C 39.253906 1.910156 39.777344 2.027344 40.355469 2.535156 C 40.410156 2.597656 40.460938 2.664062 40.515625 2.726562 C 40.570312 2.792969 40.625 2.855469 40.679688 2.921875 C 40.996094 3.378906 41.042969 3.792969 41.039062 4.339844 C 41.042969 4.410156 41.042969 4.484375 41.042969 4.558594 C 41.042969 4.804688 41.042969 5.046875 41.042969 5.289062 C 41.042969 5.46875 41.042969 5.644531 41.042969 5.820312 C 41.042969 6.304688 41.042969 6.789062 41.042969 7.273438 C 41.042969 7.796875 41.046875 8.320312 41.046875 8.84375 C 41.046875 9.867188 41.046875 10.894531 41.046875 11.917969 C 41.046875 12.75 41.046875 13.582031 41.050781 14.414062 C 41.050781 16.777344 41.050781 19.136719 41.050781 21.496094 C 41.050781 21.625 41.050781 21.75 41.050781 21.882812 C 41.050781 22.007812 41.050781 22.136719 41.050781 22.269531 C 41.050781 24.332031 41.054688 26.398438 41.054688 28.464844 C 41.058594 30.585938 41.058594 32.707031 41.058594 34.824219 C 41.058594 36.015625 41.0625 37.207031 41.0625 38.398438 C 41.066406 39.410156 41.066406 40.425781 41.0625 41.4375 C 41.0625 41.957031 41.0625 42.472656 41.066406 42.992188 C 41.066406 43.464844 41.066406 43.9375 41.0625 44.410156 C 41.0625 44.582031 41.0625 44.753906 41.066406 44.925781 C 41.074219 46.652344 41.074219 46.652344 40.433594 47.386719 C 40.371094 47.441406 40.304688 47.492188 40.242188 47.546875 C 40.175781 47.601562 40.113281 47.65625 40.046875 47.710938 C 39.660156 47.976562 39.316406 48.070312 38.847656 48.070312 C 38.699219 48.074219 38.699219 48.074219 38.542969 48.074219 C 38.433594 48.074219 38.324219 48.074219 38.210938 48.074219 C 38.035156 48.074219 38.035156 48.074219 37.855469 48.074219 C 37.53125 48.074219 37.207031 48.074219 36.882812 48.074219 C 36.53125 48.074219 36.183594 48.078125 35.832031 48.078125 C 35.144531 48.078125 34.460938 48.078125 33.773438 48.078125 C 33.214844 48.078125 32.65625 48.078125 32.097656 48.082031 C 30.515625 48.082031 28.933594 48.082031 27.351562 48.082031 C 27.269531 48.082031 27.183594 48.082031 27.09375 48.082031 C 27.007812 48.082031 26.925781 48.082031 26.835938 48.082031 C 25.453125 48.082031 24.070312 48.085938 22.683594 48.085938 C 21.265625 48.089844 19.84375 48.089844 18.421875 48.089844 C 17.625 48.089844 16.828125 48.09375 16.03125 48.09375 C 15.351562 48.097656 14.671875 48.097656 13.992188 48.09375 C 13.644531 48.09375 13.300781 48.09375 12.953125 48.097656 C 12.578125 48.097656 12.199219 48.097656 11.824219 48.09375 C 11.714844 48.097656 11.605469 48.097656 11.496094 48.097656 C 10.746094 48.089844 10.222656 47.972656 9.644531 47.464844 C 9.589844 47.402344 9.539062 47.335938 9.484375 47.273438 C 9.429688 47.207031 9.375 47.144531 9.320312 47.078125 C 9.003906 46.621094 8.957031 46.207031 8.960938 45.660156 C 8.957031 45.589844 8.957031 45.515625 8.957031 45.441406 C 8.957031 45.195312 8.957031 44.953125 8.957031 44.710938 C 8.957031 44.53125 8.957031 44.355469 8.957031 44.179688 C 8.957031 43.695312 8.957031 43.210938 8.957031 42.726562 C 8.957031 42.203125 8.953125 41.679688 8.953125 41.15625 C 8.953125 40.132812 8.953125 39.105469 8.953125 38.082031 C 8.953125 37.25 8.953125 36.417969 8.949219 35.585938 C 8.949219 33.222656 8.949219 30.863281 8.949219 28.503906 C 8.949219 28.375 8.949219 28.25 8.949219 28.117188 C 8.949219 27.992188 8.949219 27.863281 8.949219 27.730469 C 8.949219 25.667969 8.945312 23.601562 8.945312 21.535156 C 8.941406 19.414062 8.941406 17.292969 8.941406 15.175781 C 8.941406 13.984375 8.9375 12.792969 8.9375 11.601562 C 8.933594 10.589844 8.933594 9.574219 8.9375 8.5625 C 8.9375 8.042969 8.9375 7.527344 8.933594 7.007812 C 8.933594 6.535156 8.933594 6.0625 8.9375 5.589844 C 8.9375 5.417969 8.9375 5.246094 8.933594 5.074219 C 8.925781 3.347656 8.925781 3.347656 9.566406 2.613281 C 9.628906 2.558594 9.695312 2.507812 9.757812 2.453125 C 9.824219 2.398438 9.886719 2.34375 9.953125 2.289062 C 10.339844 2.023438 10.683594 1.929688 11.152344 1.929688 Z M 9.894531 3.539062 C 9.730469 3.886719 9.730469 4.144531 9.726562 4.527344 C 9.726562 4.597656 9.726562 4.671875 9.726562 4.746094 C 9.726562 4.984375 9.726562 5.226562 9.726562 5.46875 C 9.726562 5.640625 9.726562 5.816406 9.726562 5.988281 C 9.722656 6.46875 9.722656 6.949219 9.722656 7.429688 C 9.726562 7.945312 9.722656 8.460938 9.722656 8.980469 C 9.71875 9.992188 9.71875 11.003906 9.71875 12.019531 C 9.71875 12.839844 9.71875 13.664062 9.71875 14.488281 C 9.71875 14.726562 9.71875 14.960938 9.71875 15.199219 C 9.71875 15.316406 9.71875 15.433594 9.71875 15.554688 C 9.714844 17.789062 9.714844 20.019531 9.71875 22.25 C 9.71875 24.292969 9.714844 26.335938 9.710938 28.375 C 9.707031 30.472656 9.707031 32.566406 9.707031 34.664062 C 9.707031 35.839844 9.707031 37.019531 9.703125 38.195312 C 9.703125 39.195312 9.703125 40.199219 9.703125 41.203125 C 9.707031 41.710938 9.707031 42.222656 9.703125 42.734375 C 9.703125 43.203125 9.703125 43.671875 9.703125 44.140625 C 9.703125 44.308594 9.703125 44.476562 9.703125 44.648438 C 9.664062 45.757812 9.664062 45.757812 10.113281 46.734375 C 10.609375 47.226562 10.972656 47.3125 11.652344 47.316406 C 11.757812 47.316406 11.867188 47.316406 11.976562 47.316406 C 12.089844 47.316406 12.207031 47.316406 12.324219 47.316406 C 12.644531 47.320312 12.964844 47.320312 13.28125 47.316406 C 13.625 47.316406 13.972656 47.320312 14.316406 47.320312 C 14.988281 47.324219 15.664062 47.324219 16.339844 47.320312 C 16.886719 47.320312 17.433594 47.320312 17.980469 47.320312 C 18.097656 47.320312 18.097656 47.320312 18.21875 47.320312 C 18.378906 47.320312 18.535156 47.324219 18.695312 47.324219 C 20.179688 47.324219 21.667969 47.324219 23.152344 47.320312 C 24.511719 47.320312 25.871094 47.320312 27.230469 47.324219 C 28.628906 47.328125 30.023438 47.328125 31.421875 47.328125 C 31.578125 47.328125 31.734375 47.328125 31.894531 47.328125 C 31.972656 47.328125 32.050781 47.328125 32.128906 47.328125 C 32.675781 47.328125 33.222656 47.328125 33.769531 47.328125 C 34.4375 47.332031 35.105469 47.332031 35.773438 47.328125 C 36.113281 47.328125 36.453125 47.328125 36.792969 47.328125 C 37.164062 47.332031 37.53125 47.328125 37.902344 47.328125 C 38.007812 47.328125 38.117188 47.328125 38.226562 47.332031 C 38.863281 47.324219 39.382812 47.246094 39.84375 46.777344 C 40.183594 46.28125 40.285156 45.964844 40.285156 45.351562 C 40.285156 45.242188 40.285156 45.242188 40.285156 45.132812 C 40.289062 44.894531 40.285156 44.652344 40.285156 44.410156 C 40.285156 44.238281 40.285156 44.0625 40.289062 43.886719 C 40.289062 43.410156 40.289062 42.929688 40.289062 42.449219 C 40.289062 41.933594 40.289062 41.417969 40.292969 40.902344 C 40.292969 39.886719 40.292969 38.875 40.292969 37.863281 C 40.292969 37.042969 40.292969 36.21875 40.292969 35.394531 C 40.292969 35.21875 40.292969 35.21875 40.292969 35.042969 C 40.292969 34.804688 40.296875 34.566406 40.296875 34.328125 C 40.296875 32.097656 40.296875 29.867188 40.296875 27.636719 C 40.292969 25.597656 40.296875 23.554688 40.300781 21.515625 C 40.304688 19.421875 40.304688 17.324219 40.304688 15.230469 C 40.304688 14.054688 40.304688 12.878906 40.308594 11.703125 C 40.3125 10.699219 40.3125 9.699219 40.308594 8.695312 C 40.308594 8.1875 40.308594 7.675781 40.308594 7.164062 C 40.3125 6.695312 40.3125 6.230469 40.308594 5.761719 C 40.308594 5.59375 40.308594 5.421875 40.308594 5.253906 C 40.347656 4.121094 40.347656 4.121094 39.8125 3.160156 C 39.214844 2.671875 38.667969 2.691406 37.925781 2.695312 C 37.753906 2.695312 37.753906 2.695312 37.578125 2.691406 C 37.257812 2.691406 36.9375 2.691406 36.621094 2.691406 C 36.277344 2.691406 35.929688 2.691406 35.585938 2.6875 C 34.914062 2.6875 34.238281 2.6875 33.5625 2.683594 C 33.015625 2.683594 32.46875 2.683594 31.921875 2.683594 C 30.367188 2.679688 28.8125 2.679688 27.257812 2.679688 C 27.171875 2.679688 27.089844 2.679688 27.003906 2.679688 C 26.917969 2.679688 26.835938 2.679688 26.75 2.679688 C 25.390625 2.679688 24.03125 2.675781 22.671875 2.671875 C 21.273438 2.667969 19.878906 2.667969 18.480469 2.667969 C 17.699219 2.667969 16.914062 2.667969 16.132812 2.664062 C 15.464844 2.660156 14.796875 2.660156 14.128906 2.664062 C 13.789062 2.664062 13.449219 2.664062 13.109375 2.660156 C 12.738281 2.660156 12.371094 2.660156 12 2.660156 C 11.894531 2.660156 11.785156 2.660156 11.675781 2.65625 C 10.871094 2.667969 10.382812 2.890625 9.894531 3.539062 Z M 9.894531 3.539062 "/>
<path style=" stroke:none;fill-rule:nonzero;fill:rgb(1.176471%,0.784314%,0.392157%);fill-opacity:1;" d="M 15.683594 12.828125 C 15.832031 12.828125 15.980469 12.828125 16.128906 12.828125 C 16.4375 12.828125 16.746094 12.828125 17.054688 12.832031 C 17.449219 12.835938 17.84375 12.835938 18.238281 12.832031 C 18.542969 12.832031 18.851562 12.832031 19.15625 12.835938 C 19.300781 12.835938 19.445312 12.835938 19.59375 12.835938 C 21.175781 12.832031 21.175781 12.832031 21.855469 13.4375 C 22.472656 14.164062 22.347656 15.136719 22.335938 16.035156 C 22.335938 16.21875 22.335938 16.398438 22.335938 16.582031 C 22.335938 16.964844 22.335938 17.347656 22.332031 17.730469 C 22.328125 18.21875 22.328125 18.707031 22.328125 19.195312 C 22.328125 19.574219 22.328125 19.949219 22.324219 20.328125 C 22.324219 20.507812 22.324219 20.6875 22.324219 20.867188 C 22.324219 21.121094 22.324219 21.371094 22.320312 21.625 C 22.320312 21.699219 22.320312 21.769531 22.320312 21.847656 C 22.308594 22.453125 22.128906 22.984375 21.699219 23.421875 C 21.640625 23.457031 21.585938 23.492188 21.527344 23.527344 C 21.46875 23.566406 21.414062 23.601562 21.355469 23.640625 C 20.988281 23.839844 20.671875 23.84375 20.261719 23.847656 C 20.195312 23.847656 20.132812 23.851562 20.066406 23.851562 C 19.851562 23.855469 19.640625 23.855469 19.425781 23.859375 C 19.316406 23.859375 19.316406 23.859375 19.207031 23.859375 C 18.820312 23.863281 18.433594 23.867188 18.046875 23.867188 C 17.726562 23.871094 17.40625 23.871094 17.089844 23.878906 C 16.703125 23.882812 16.316406 23.886719 15.929688 23.886719 C 15.785156 23.886719 15.636719 23.890625 15.492188 23.894531 C 14.734375 23.90625 14.097656 23.898438 13.457031 23.445312 C 12.976562 22.890625 12.832031 22.339844 12.839844 21.621094 C 12.835938 21.542969 12.835938 21.464844 12.835938 21.378906 C 12.832031 21.121094 12.835938 20.859375 12.835938 20.597656 C 12.835938 20.414062 12.835938 20.230469 12.832031 20.046875 C 12.832031 19.664062 12.832031 19.28125 12.835938 18.898438 C 12.835938 18.410156 12.832031 17.921875 12.832031 17.429688 C 12.828125 17.054688 12.828125 16.675781 12.828125 16.296875 C 12.828125 16.117188 12.828125 15.9375 12.828125 15.757812 C 12.824219 15.503906 12.828125 15.25 12.828125 15 C 12.828125 14.925781 12.828125 14.851562 12.824219 14.777344 C 12.835938 14.207031 13.023438 13.820312 13.378906 13.378906 C 14.03125 12.75 14.832031 12.820312 15.683594 12.828125 Z M 15.683594 12.828125 "/>
<path style=" stroke:none;fill-rule:nonzero;fill:rgb(98.039216%,66.666669%,24.313726%);fill-opacity:1;" d="M 14.953125 13.65625 C 15.078125 13.65625 15.203125 13.652344 15.332031 13.652344 C 15.46875 13.652344 15.609375 13.652344 15.746094 13.652344 C 15.886719 13.652344 16.027344 13.652344 16.167969 13.648438 C 16.464844 13.648438 16.761719 13.648438 17.054688 13.648438 C 17.433594 13.648438 17.8125 13.644531 18.191406 13.644531 C 18.480469 13.640625 18.773438 13.640625 19.0625 13.640625 C 19.203125 13.640625 19.34375 13.640625 19.480469 13.636719 C 19.675781 13.636719 19.871094 13.636719 20.066406 13.636719 C 20.179688 13.636719 20.289062 13.636719 20.40625 13.636719 C 20.824219 13.6875 21.0625 13.84375 21.367188 14.128906 C 21.535156 14.453125 21.523438 14.761719 21.523438 15.117188 C 21.523438 15.195312 21.523438 15.269531 21.523438 15.351562 C 21.523438 15.601562 21.523438 15.855469 21.523438 16.105469 C 21.523438 16.28125 21.523438 16.457031 21.523438 16.632812 C 21.523438 17 21.523438 17.371094 21.523438 17.738281 C 21.519531 18.210938 21.523438 18.679688 21.523438 19.152344 C 21.523438 19.515625 21.523438 19.878906 21.523438 20.238281 C 21.523438 20.414062 21.523438 20.585938 21.523438 20.761719 C 21.523438 21.003906 21.523438 21.246094 21.523438 21.492188 C 21.523438 21.5625 21.523438 21.632812 21.523438 21.707031 C 21.515625 22.253906 21.378906 22.566406 20.996094 22.949219 C 20.898438 22.949219 20.804688 22.949219 20.703125 22.949219 C 20.703125 22.871094 20.703125 22.792969 20.703125 22.714844 C 20.699219 22.355469 20.691406 22 20.683594 21.644531 C 20.683594 21.519531 20.683594 21.398438 20.683594 21.273438 C 20.664062 20.503906 20.582031 19.871094 20.117188 19.238281 C 19.871094 19.015625 19.613281 18.832031 19.335938 18.652344 C 19.273438 18.585938 19.207031 18.523438 19.140625 18.457031 C 19.199219 18.386719 19.257812 18.320312 19.316406 18.25 C 19.824219 17.582031 19.917969 17.039062 19.824219 16.210938 C 19.648438 15.5625 19.195312 15.121094 18.652344 14.746094 C 18.066406 14.457031 17.394531 14.445312 16.765625 14.609375 C 16.167969 14.875 15.699219 15.371094 15.414062 15.957031 C 15.238281 16.503906 15.222656 17.109375 15.433594 17.644531 C 15.554688 17.859375 15.679688 18.0625 15.820312 18.261719 C 15.886719 18.359375 15.949219 18.453125 16.015625 18.554688 C 15.957031 18.589844 15.898438 18.621094 15.839844 18.65625 C 15.183594 19.058594 14.796875 19.476562 14.550781 20.214844 C 14.535156 20.429688 14.527344 20.648438 14.519531 20.863281 C 14.515625 20.988281 14.511719 21.117188 14.507812 21.246094 C 14.503906 21.382812 14.5 21.515625 14.496094 21.648438 C 14.492188 21.785156 14.488281 21.917969 14.484375 22.054688 C 14.472656 22.386719 14.460938 22.714844 14.453125 23.046875 C 14.054688 22.84375 13.863281 22.671875 13.671875 22.265625 C 13.644531 22 13.628906 21.757812 13.632812 21.492188 C 13.628906 21.417969 13.628906 21.339844 13.628906 21.261719 C 13.625 21.011719 13.625 20.757812 13.625 20.507812 C 13.625 20.332031 13.625 20.15625 13.625 19.984375 C 13.621094 19.617188 13.621094 19.25 13.621094 18.882812 C 13.625 18.410156 13.621094 17.941406 13.617188 17.472656 C 13.613281 17.109375 13.613281 16.75 13.613281 16.386719 C 13.613281 16.214844 13.613281 16.039062 13.609375 15.867188 C 13.609375 15.625 13.609375 15.382812 13.613281 15.140625 C 13.609375 15.070312 13.609375 15 13.609375 14.925781 C 13.617188 14.371094 13.78125 14.144531 14.160156 13.769531 C 14.429688 13.632812 14.648438 13.65625 14.953125 13.65625 Z M 14.953125 13.65625 "/>
<path style=" stroke:none;fill-rule:nonzero;fill:rgb(0%,0%,0%);fill-opacity:1;" d="M 12.941406 43.347656 C 13.03125 43.347656 13.125 43.347656 13.21875 43.347656 C 13.316406 43.347656 13.414062 43.347656 13.515625 43.34375 C 13.84375 43.34375 14.171875 43.34375 14.5 43.34375 C 14.734375 43.34375 14.96875 43.34375 15.203125 43.34375 C 15.777344 43.34375 16.347656 43.34375 16.921875 43.34375 C 17.386719 43.34375 17.851562 43.34375 18.316406 43.34375 C 19.632812 43.339844 20.949219 43.339844 22.265625 43.339844 C 22.335938 43.339844 22.410156 43.339844 22.480469 43.339844 C 22.589844 43.339844 22.589844 43.339844 22.699219 43.339844 C 23.851562 43.339844 25.003906 43.339844 26.160156 43.339844 C 27.339844 43.335938 28.523438 43.335938 29.707031 43.335938 C 30.371094 43.335938 31.039062 43.335938 31.703125 43.335938 C 32.328125 43.335938 32.953125 43.335938 33.578125 43.335938 C 33.808594 43.335938 34.039062 43.335938 34.265625 43.335938 C 34.578125 43.335938 34.894531 43.335938 35.207031 43.335938 C 35.296875 43.335938 35.390625 43.335938 35.484375 43.332031 C 35.566406 43.335938 35.652344 43.335938 35.738281 43.335938 C 35.808594 43.335938 35.882812 43.335938 35.957031 43.335938 C 36.132812 43.359375 36.132812 43.359375 36.328125 43.554688 C 36.273438 44 36.273438 44 36.132812 44.140625 C 35.828125 44.152344 35.523438 44.152344 35.21875 44.152344 C 35.121094 44.152344 35.023438 44.152344 34.921875 44.15625 C 34.59375 44.15625 34.265625 44.15625 33.9375 44.15625 C 33.703125 44.15625 33.46875 44.15625 33.234375 44.15625 C 32.660156 44.15625 32.089844 44.15625 31.515625 44.15625 C 31.050781 44.15625 30.585938 44.15625 30.121094 44.15625 C 28.804688 44.160156 27.488281 44.160156 26.171875 44.160156 C 26.101562 44.160156 26.027344 44.160156 25.957031 44.160156 C 25.847656 44.160156 25.847656 44.160156 25.738281 44.160156 C 24.585938 44.160156 23.433594 44.160156 22.277344 44.160156 C 21.097656 44.164062 19.914062 44.164062 18.730469 44.164062 C 18.066406 44.164062 17.398438 44.164062 16.734375 44.164062 C 16.109375 44.164062 15.484375 44.164062 14.859375 44.164062 C 14.628906 44.164062 14.398438 44.164062 14.171875 44.164062 C 13.859375 44.164062 13.542969 44.164062 13.230469 44.164062 C 13.140625 44.164062 13.046875 44.164062 12.953125 44.167969 C 12.871094 44.164062 12.785156 44.164062 12.699219 44.164062 C 12.628906 44.164062 12.554688 44.164062 12.480469 44.164062 C 12.304688 44.140625 12.304688 44.140625 12.109375 43.945312 C 12.1875 43.316406 12.328125 43.347656 12.941406 43.347656 Z M 12.941406 43.347656 "/>
<path style=" stroke:none;fill-rule:nonzero;fill:rgb(18.431373%,32.941177%,52.156866%);fill-opacity:1;" d="M 17.53125 19.085938 C 17.625 19.085938 17.722656 19.082031 17.824219 19.082031 C 18.527344 19.089844 19.070312 19.179688 19.589844 19.679688 C 20.058594 20.289062 19.976562 20.996094 19.953125 21.726562 C 19.941406 22.164062 19.933594 22.597656 19.921875 23.046875 C 18.375 23.046875 16.828125 23.046875 15.234375 23.046875 C 15.226562 22.609375 15.21875 22.171875 15.210938 21.722656 C 15.207031 21.585938 15.203125 21.449219 15.199219 21.308594 C 15.1875 20.140625 15.1875 20.140625 15.625 19.628906 C 16.203125 19.101562 16.773438 19.066406 17.53125 19.085938 Z M 17.53125 19.085938 "/>
<path style=" stroke:none;fill-rule:nonzero;fill:rgb(0%,0%,0%);fill-opacity:1;" d="M 12.953125 34.753906 C 13.054688 34.753906 13.054688 34.753906 13.160156 34.75 C 13.390625 34.75 13.625 34.75 13.855469 34.75 C 14.019531 34.75 14.183594 34.75 14.351562 34.75 C 14.800781 34.75 15.25 34.75 15.699219 34.75 C 16.074219 34.75 16.449219 34.75 16.824219 34.75 C 17.710938 34.746094 18.59375 34.746094 19.476562 34.746094 C 20.390625 34.746094 21.304688 34.746094 22.21875 34.746094 C 23 34.742188 23.785156 34.742188 24.566406 34.742188 C 25.035156 34.742188 25.503906 34.742188 25.972656 34.742188 C 26.414062 34.742188 26.855469 34.742188 27.292969 34.742188 C 27.457031 34.742188 27.617188 34.742188 27.78125 34.742188 C 28 34.742188 28.21875 34.742188 28.441406 34.742188 C 28.566406 34.742188 28.6875 34.742188 28.816406 34.742188 C 29.101562 34.765625 29.101562 34.765625 29.296875 34.960938 C 29.242188 35.40625 29.242188 35.40625 29.101562 35.546875 C 28.886719 35.558594 28.667969 35.558594 28.453125 35.558594 C 28.351562 35.558594 28.351562 35.558594 28.246094 35.5625 C 28.015625 35.5625 27.78125 35.5625 27.550781 35.5625 C 27.386719 35.5625 27.222656 35.5625 27.054688 35.5625 C 26.605469 35.5625 26.15625 35.5625 25.707031 35.5625 C 25.332031 35.5625 24.957031 35.5625 24.582031 35.5625 C 23.695312 35.566406 22.8125 35.566406 21.929688 35.566406 C 21.015625 35.566406 20.101562 35.566406 19.1875 35.566406 C 18.40625 35.570312 17.621094 35.570312 16.839844 35.570312 C 16.371094 35.570312 15.902344 35.570312 15.433594 35.570312 C 14.992188 35.570312 14.550781 35.570312 14.113281 35.570312 C 13.949219 35.570312 13.789062 35.570312 13.625 35.570312 C 13.40625 35.570312 13.1875 35.570312 12.964844 35.570312 C 12.839844 35.570312 12.71875 35.570312 12.589844 35.570312 C 12.304688 35.546875 12.304688 35.546875 12.109375 35.351562 C 12.1875 34.710938 12.335938 34.753906 12.953125 34.753906 Z M 12.953125 34.753906 "/>
<path style=" stroke:none;fill-rule:nonzero;fill:rgb(0%,0%,0%);fill-opacity:1;" d="M 12.953125 32.410156 C 13.054688 32.410156 13.054688 32.410156 13.160156 32.40625 C 13.390625 32.40625 13.625 32.40625 13.855469 32.40625 C 14.019531 32.40625 14.183594 32.40625 14.351562 32.40625 C 14.800781 32.40625 15.25 32.40625 15.699219 32.40625 C 16.074219 32.40625 16.449219 32.40625 16.824219 32.40625 C 17.710938 32.402344 18.59375 32.402344 19.476562 32.402344 C 20.390625 32.402344 21.304688 32.402344 22.21875 32.402344 C 23 32.398438 23.785156 32.398438 24.566406 32.398438 C 25.035156 32.398438 25.503906 32.398438 25.972656 32.398438 C 26.414062 32.398438 26.855469 32.398438 27.292969 32.398438 C 27.457031 32.398438 27.617188 32.398438 27.78125 32.398438 C 28 32.398438 28.21875 32.398438 28.441406 32.398438 C 28.566406 32.398438 28.6875 32.398438 28.816406 32.398438 C 29.101562 32.421875 29.101562 32.421875 29.296875 32.617188 C 29.242188 33.0625 29.242188 33.0625 29.101562 33.203125 C 28.886719 33.214844 28.667969 33.214844 28.453125 33.214844 C 28.351562 33.214844 28.351562 33.214844 28.246094 33.21875 C 28.015625 33.21875 27.78125 33.21875 27.550781 33.21875 C 27.386719 33.21875 27.222656 33.21875 27.054688 33.21875 C 26.605469 33.21875 26.15625 33.21875 25.707031 33.21875 C 25.332031 33.21875 24.957031 33.21875 24.582031 33.21875 C 23.695312 33.222656 22.8125 33.222656 21.929688 33.222656 C 21.015625 33.222656 20.101562 33.222656 19.1875 33.222656 C 18.40625 33.226562 17.621094 33.226562 16.839844 33.226562 C 16.371094 33.226562 15.902344 33.226562 15.433594 33.226562 C 14.992188 33.226562 14.550781 33.226562 14.113281 33.226562 C 13.949219 33.226562 13.789062 33.226562 13.625 33.226562 C 13.40625 33.226562 13.1875 33.226562 12.964844 33.226562 C 12.839844 33.226562 12.71875 33.226562 12.589844 33.226562 C 12.304688 33.203125 12.304688 33.203125 12.109375 33.007812 C 12.1875 32.367188 12.335938 32.410156 12.953125 32.410156 Z M 12.953125 32.410156 "/>
<path style=" stroke:none;fill-rule:nonzero;fill:rgb(0%,0%,0%);fill-opacity:1;" d="M 12.953125 30.066406 C 13.054688 30.066406 13.054688 30.066406 13.160156 30.0625 C 13.390625 30.0625 13.625 30.0625 13.855469 30.0625 C 14.019531 30.0625 14.183594 30.0625 14.351562 30.0625 C 14.800781 30.0625 15.25 30.0625 15.699219 30.0625 C 16.074219 30.0625 16.449219 30.0625 16.824219 30.0625 C 17.710938 30.058594 18.59375 30.058594 19.476562 30.058594 C 20.390625 30.058594 21.304688 30.058594 22.21875 30.058594 C 23 30.054688 23.785156 30.054688 24.566406 30.054688 C 25.035156 30.054688 25.503906 30.054688 25.972656 30.054688 C 26.414062 30.054688 26.855469 30.054688 27.292969 30.054688 C 27.457031 30.054688 27.617188 30.054688 27.78125 30.054688 C 28 30.054688 28.21875 30.054688 28.441406 30.054688 C 28.566406 30.054688 28.6875 30.054688 28.816406 30.054688 C 29.101562 30.078125 29.101562 30.078125 29.296875 30.273438 C 29.242188 30.71875 29.242188 30.71875 29.101562 30.859375 C 28.886719 30.871094 28.667969 30.871094 28.453125 30.871094 C 28.351562 30.871094 28.351562 30.871094 28.246094 30.875 C 28.015625 30.875 27.78125 30.875 27.550781 30.875 C 27.386719 30.875 27.222656 30.875 27.054688 30.875 C 26.605469 30.875 26.15625 30.875 25.707031 30.875 C 25.332031 30.875 24.957031 30.875 24.582031 30.875 C 23.695312 30.878906 22.8125 30.878906 21.929688 30.878906 C 21.015625 30.878906 20.101562 30.878906 19.1875 30.878906 C 18.40625 30.882812 17.621094 30.882812 16.839844 30.882812 C 16.371094 30.882812 15.902344 30.882812 15.433594 30.882812 C 14.992188 30.882812 14.550781 30.882812 14.113281 30.882812 C 13.949219 30.882812 13.789062 30.882812 13.625 30.882812 C 13.40625 30.882812 13.1875 30.882812 12.964844 30.882812 C 12.839844 30.882812 12.71875 30.882812 12.589844 30.882812 C 12.304688 30.859375 12.304688 30.859375 12.109375 30.664062 C 12.1875 30.023438 12.335938 30.066406 12.953125 30.066406 Z M 12.953125 30.066406 "/>
<path style=" stroke:none;fill-rule:nonzero;fill:rgb(0.784314%,0.784314%,0.784314%);fill-opacity:1;" d="M 14.695312 5.046875 C 14.800781 5.046875 14.910156 5.046875 15.019531 5.046875 C 15.128906 5.046875 15.234375 5.042969 15.34375 5.042969 C 15.449219 5.042969 15.550781 5.042969 15.65625 5.042969 C 15.75 5.042969 15.847656 5.042969 15.945312 5.042969 C 16.257812 5.085938 16.441406 5.183594 16.699219 5.371094 C 16.882812 5.734375 16.820312 6.171875 16.820312 6.574219 C 16.824219 6.667969 16.824219 6.757812 16.828125 6.855469 C 16.832031 7.757812 16.832031 7.757812 16.503906 8.105469 C 16.191406 8.234375 16.191406 8.234375 15.917969 8.300781 C 15.984375 8.359375 16.046875 8.417969 16.113281 8.476562 C 16.195312 8.554688 16.277344 8.628906 16.363281 8.710938 C 16.445312 8.785156 16.527344 8.863281 16.613281 8.941406 C 16.796875 9.179688 16.796875 9.179688 16.773438 9.453125 C 16.75 9.523438 16.726562 9.59375 16.699219 9.667969 C 16.480469 9.738281 16.480469 9.738281 16.210938 9.765625 C 16.003906 9.625 16.003906 9.625 15.800781 9.410156 C 15.726562 9.335938 15.652344 9.261719 15.578125 9.183594 C 15.503906 9.105469 15.425781 9.023438 15.351562 8.941406 C 15.234375 8.820312 15.234375 8.820312 15.117188 8.699219 C 14.925781 8.503906 14.738281 8.304688 14.550781 8.105469 C 14.546875 8.207031 14.542969 8.3125 14.535156 8.417969 C 14.527344 8.554688 14.523438 8.691406 14.515625 8.824219 C 14.507812 8.929688 14.507812 8.929688 14.503906 9.03125 C 14.476562 9.546875 14.476562 9.546875 14.257812 9.765625 C 13.8125 9.710938 13.8125 9.710938 13.671875 9.570312 C 13.660156 9.4375 13.660156 9.300781 13.65625 9.167969 C 13.65625 9.082031 13.65625 8.996094 13.65625 8.910156 C 13.65625 8.816406 13.65625 8.722656 13.65625 8.628906 C 13.65625 8.53125 13.65625 8.4375 13.65625 8.339844 C 13.652344 8.140625 13.652344 7.9375 13.652344 7.738281 C 13.652344 7.429688 13.652344 7.121094 13.648438 6.8125 C 13.648438 6.617188 13.648438 6.421875 13.648438 6.230469 C 13.648438 6.136719 13.648438 6.042969 13.648438 5.949219 C 13.648438 5.863281 13.648438 5.777344 13.648438 5.6875 C 13.648438 5.613281 13.648438 5.539062 13.648438 5.460938 C 13.71875 4.917969 14.277344 5.050781 14.695312 5.046875 Z M 14.695312 5.046875 "/>
<path style=" stroke:none;fill-rule:nonzero;fill:rgb(0%,0%,0%);fill-opacity:1;" d="M 12.894531 41.003906 C 13.023438 41.003906 13.148438 41 13.28125 41 C 13.425781 41 13.566406 41 13.710938 41 C 13.859375 41 14.011719 41 14.160156 41 C 14.570312 41 14.976562 41 15.382812 41 C 15.722656 41 16.066406 41 16.40625 41 C 17.207031 40.996094 18.007812 40.996094 18.808594 40.996094 C 19.636719 40.996094 20.46875 40.996094 21.296875 40.996094 C 22.003906 40.992188 22.714844 40.992188 23.425781 40.992188 C 23.851562 40.992188 24.277344 40.992188 24.699219 40.992188 C 25.097656 40.992188 25.5 40.992188 25.898438 40.992188 C 26.042969 40.992188 26.191406 40.992188 26.339844 40.992188 C 26.539062 40.992188 26.738281 40.992188 26.9375 40.992188 C 27.050781 40.992188 27.160156 40.992188 27.277344 40.992188 C 27.539062 41.015625 27.539062 41.015625 27.734375 41.210938 C 27.679688 41.65625 27.679688 41.65625 27.539062 41.796875 C 27.34375 41.808594 27.148438 41.808594 26.949219 41.808594 C 26.820312 41.808594 26.695312 41.8125 26.5625 41.8125 C 26.417969 41.8125 26.277344 41.8125 26.132812 41.8125 C 25.984375 41.8125 25.832031 41.8125 25.683594 41.8125 C 25.273438 41.8125 24.867188 41.8125 24.460938 41.8125 C 24.121094 41.8125 23.777344 41.8125 23.4375 41.8125 C 22.636719 41.816406 21.835938 41.816406 21.035156 41.816406 C 20.207031 41.816406 19.375 41.816406 18.546875 41.816406 C 17.839844 41.820312 17.128906 41.820312 16.417969 41.820312 C 15.992188 41.820312 15.566406 41.820312 15.144531 41.820312 C 14.746094 41.820312 14.34375 41.820312 13.945312 41.820312 C 13.800781 41.820312 13.652344 41.820312 13.503906 41.820312 C 13.304688 41.820312 13.105469 41.820312 12.90625 41.820312 C 12.738281 41.820312 12.738281 41.820312 12.566406 41.820312 C 12.304688 41.796875 12.304688 41.796875 12.109375 41.601562 C 12.183594 40.992188 12.304688 41.003906 12.894531 41.003906 Z M 12.894531 41.003906 "/>
<path style=" stroke:none;fill-rule:nonzero;fill:rgb(1.176471%,1.176471%,1.176471%);fill-opacity:1;" d="M 29.722656 5.074219 C 30.089844 5.21875 30.210938 5.484375 30.390625 5.816406 C 30.507812 6.03125 30.632812 6.238281 30.761719 6.445312 C 30.828125 6.445312 30.890625 6.445312 30.957031 6.445312 C 31.125 6.179688 31.277344 5.910156 31.425781 5.636719 C 31.589844 5.351562 31.6875 5.195312 31.996094 5.074219 C 32.226562 5.078125 32.226562 5.078125 32.421875 5.273438 C 32.445312 5.457031 32.445312 5.457031 32.445312 5.6875 C 32.449219 5.773438 32.449219 5.859375 32.449219 5.945312 C 32.449219 6.039062 32.449219 6.128906 32.449219 6.226562 C 32.449219 6.367188 32.449219 6.367188 32.449219 6.511719 C 32.449219 6.710938 32.449219 6.914062 32.449219 7.113281 C 32.445312 7.421875 32.449219 7.726562 32.449219 8.035156 C 32.449219 8.230469 32.449219 8.425781 32.449219 8.617188 C 32.449219 8.710938 32.449219 8.804688 32.449219 8.898438 C 32.449219 8.984375 32.449219 9.070312 32.445312 9.15625 C 32.445312 9.230469 32.445312 9.308594 32.445312 9.386719 C 32.421875 9.570312 32.421875 9.570312 32.226562 9.765625 C 31.78125 9.710938 31.78125 9.710938 31.640625 9.570312 C 31.625 9.390625 31.617188 9.207031 31.609375 9.027344 C 31.605469 8.917969 31.601562 8.808594 31.597656 8.695312 C 31.59375 8.578125 31.589844 8.460938 31.585938 8.34375 C 31.582031 8.226562 31.578125 8.113281 31.574219 7.992188 C 31.5625 7.703125 31.550781 7.417969 31.542969 7.128906 C 31.382812 7.355469 31.21875 7.578125 31.054688 7.8125 C 30.835938 7.800781 30.835938 7.800781 30.566406 7.714844 C 30.429688 7.523438 30.300781 7.328125 30.175781 7.128906 C 30.175781 7.203125 30.171875 7.273438 30.167969 7.351562 C 30.160156 7.679688 30.148438 8.007812 30.140625 8.335938 C 30.132812 8.507812 30.132812 8.507812 30.128906 8.683594 C 30.125 8.847656 30.125 8.847656 30.117188 9.015625 C 30.117188 9.117188 30.113281 9.21875 30.109375 9.324219 C 30.078125 9.570312 30.078125 9.570312 29.882812 9.765625 C 29.4375 9.710938 29.4375 9.710938 29.296875 9.570312 C 29.285156 9.4375 29.285156 9.300781 29.28125 9.167969 C 29.28125 9.082031 29.28125 8.996094 29.28125 8.910156 C 29.28125 8.816406 29.28125 8.722656 29.28125 8.628906 C 29.28125 8.53125 29.28125 8.4375 29.28125 8.339844 C 29.277344 8.140625 29.277344 7.9375 29.277344 7.738281 C 29.277344 7.429688 29.277344 7.121094 29.273438 6.8125 C 29.273438 6.617188 29.273438 6.421875 29.273438 6.230469 C 29.273438 6.136719 29.273438 6.042969 29.273438 5.949219 C 29.273438 5.863281 29.273438 5.777344 29.273438 5.6875 C 29.273438 5.613281 29.273438 5.539062 29.273438 5.460938 C 29.3125 5.15625 29.425781 5.078125 29.722656 5.074219 Z M 29.722656 5.074219 "/>
<path style=" stroke:none;fill-rule:nonzero;fill:rgb(0.784314%,0.784314%,0.784314%);fill-opacity:1;" d="M 23.210938 5.035156 C 23.324219 5.035156 23.4375 5.035156 23.554688 5.039062 C 24.386719 5.050781 24.386719 5.050781 24.609375 5.273438 C 24.554688 5.71875 24.554688 5.71875 24.414062 5.859375 C 24.253906 5.867188 24.09375 5.871094 23.933594 5.867188 C 23.839844 5.867188 23.742188 5.867188 23.640625 5.867188 C 23.539062 5.867188 23.4375 5.867188 23.332031 5.867188 C 23.230469 5.863281 23.128906 5.863281 23.023438 5.863281 C 22.773438 5.863281 22.519531 5.859375 22.265625 5.859375 C 22.265625 6.246094 22.265625 6.632812 22.265625 7.03125 C 22.449219 7.027344 22.449219 7.027344 22.632812 7.019531 C 22.792969 7.019531 22.953125 7.015625 23.113281 7.011719 C 23.195312 7.011719 23.273438 7.007812 23.355469 7.003906 C 23.824219 7 24.132812 7.015625 24.511719 7.324219 C 24.667969 7.640625 24.632812 7.984375 24.632812 8.332031 C 24.636719 8.40625 24.636719 8.480469 24.640625 8.554688 C 24.644531 9.003906 24.613281 9.308594 24.316406 9.667969 C 23.839844 9.828125 23.347656 9.785156 22.84375 9.785156 C 22.738281 9.785156 22.628906 9.785156 22.515625 9.789062 C 22.359375 9.789062 22.359375 9.789062 22.199219 9.789062 C 22.105469 9.789062 22.011719 9.789062 21.914062 9.789062 C 21.679688 9.765625 21.679688 9.765625 21.484375 9.570312 C 21.539062 9.125 21.539062 9.125 21.679688 8.984375 C 21.839844 8.976562 22 8.972656 22.160156 8.976562 C 22.253906 8.976562 22.351562 8.976562 22.453125 8.976562 C 22.554688 8.976562 22.65625 8.976562 22.761719 8.976562 C 22.914062 8.980469 22.914062 8.980469 23.070312 8.980469 C 23.320312 8.980469 23.574219 8.984375 23.828125 8.984375 C 23.828125 8.597656 23.828125 8.210938 23.828125 7.8125 C 23.699219 7.816406 23.570312 7.820312 23.4375 7.824219 C 23.265625 7.824219 23.09375 7.828125 22.925781 7.832031 C 22.839844 7.832031 22.753906 7.835938 22.667969 7.839844 C 22.035156 7.84375 22.035156 7.84375 21.722656 7.683594 C 21.410156 7.320312 21.457031 6.863281 21.449219 6.410156 C 21.445312 6.335938 21.441406 6.261719 21.4375 6.183594 C 21.429688 5.808594 21.460938 5.605469 21.652344 5.273438 C 22.152344 4.96875 22.636719 5.019531 23.210938 5.035156 Z M 23.210938 5.035156 "/>
<path style=" stroke:none;fill-rule:nonzero;fill:rgb(0%,0%,0%);fill-opacity:1;" d="M 26.777344 13.660156 C 26.867188 13.660156 26.957031 13.65625 27.046875 13.65625 C 27.195312 13.65625 27.195312 13.65625 27.34375 13.65625 C 27.445312 13.65625 27.546875 13.65625 27.652344 13.65625 C 27.996094 13.65625 28.335938 13.65625 28.675781 13.65625 C 28.914062 13.65625 29.148438 13.65625 29.382812 13.65625 C 29.878906 13.652344 30.375 13.652344 30.871094 13.652344 C 31.503906 13.652344 32.140625 13.652344 32.777344 13.652344 C 33.265625 13.648438 33.753906 13.648438 34.238281 13.648438 C 34.472656 13.648438 34.707031 13.648438 34.941406 13.648438 C 35.269531 13.648438 35.597656 13.648438 35.925781 13.648438 C 36.070312 13.648438 36.070312 13.648438 36.222656 13.648438 C 36.355469 13.648438 36.355469 13.648438 36.492188 13.648438 C 36.605469 13.648438 36.605469 13.648438 36.726562 13.648438 C 36.914062 13.671875 36.914062 13.671875 37.109375 13.867188 C 37.054688 14.3125 37.054688 14.3125 36.914062 14.453125 C 36.777344 14.460938 36.640625 14.464844 36.503906 14.464844 C 36.371094 14.46875 36.371094 14.46875 36.234375 14.46875 C 36.085938 14.46875 36.085938 14.46875 35.9375 14.46875 C 35.785156 14.46875 35.785156 14.46875 35.628906 14.46875 C 35.285156 14.46875 34.945312 14.46875 34.605469 14.46875 C 34.367188 14.46875 34.132812 14.46875 33.898438 14.46875 C 33.402344 14.472656 32.90625 14.472656 32.410156 14.472656 C 31.777344 14.472656 31.140625 14.472656 30.503906 14.472656 C 30.015625 14.476562 29.527344 14.476562 29.042969 14.476562 C 28.808594 14.476562 28.574219 14.476562 28.339844 14.476562 C 28.011719 14.476562 27.683594 14.476562 27.355469 14.476562 C 27.210938 14.476562 27.210938 14.476562 27.058594 14.476562 C 26.925781 14.476562 26.925781 14.476562 26.789062 14.476562 C 26.675781 14.476562 26.675781 14.476562 26.554688 14.476562 C 26.367188 14.453125 26.367188 14.453125 26.171875 14.257812 C 26.234375 13.753906 26.28125 13.660156 26.777344 13.660156 Z M 26.777344 13.660156 "/>
<path style=" stroke:none;fill-rule:nonzero;fill:rgb(0.392157%,0.392157%,0.392157%);fill-opacity:1;" d="M 34.007812 5.050781 C 34.191406 5.050781 34.191406 5.050781 34.378906 5.050781 C 34.570312 5.050781 34.570312 5.050781 34.765625 5.054688 C 34.894531 5.054688 35.019531 5.050781 35.152344 5.050781 C 35.273438 5.050781 35.398438 5.050781 35.523438 5.050781 C 35.632812 5.050781 35.746094 5.050781 35.863281 5.054688 C 36.132812 5.078125 36.132812 5.078125 36.328125 5.273438 C 36.273438 5.71875 36.273438 5.71875 36.132812 5.859375 C 35.972656 5.867188 35.8125 5.871094 35.652344 5.867188 C 35.558594 5.867188 35.460938 5.867188 35.359375 5.867188 C 35.257812 5.867188 35.15625 5.867188 35.050781 5.867188 C 34.949219 5.863281 34.847656 5.863281 34.742188 5.863281 C 34.492188 5.863281 34.238281 5.859375 33.984375 5.859375 C 33.984375 6.246094 33.984375 6.632812 33.984375 7.03125 C 34.082031 7.027344 34.175781 7.027344 34.277344 7.023438 C 34.402344 7.023438 34.527344 7.019531 34.65625 7.019531 C 34.78125 7.015625 34.90625 7.015625 35.035156 7.011719 C 35.351562 7.03125 35.351562 7.03125 35.546875 7.226562 C 35.492188 7.671875 35.492188 7.671875 35.351562 7.8125 C 35.121094 7.820312 34.890625 7.820312 34.660156 7.820312 C 34.535156 7.816406 34.410156 7.816406 34.28125 7.816406 C 34.183594 7.816406 34.085938 7.8125 33.984375 7.8125 C 33.984375 8.199219 33.984375 8.585938 33.984375 8.984375 C 34.136719 8.980469 34.289062 8.980469 34.449219 8.976562 C 34.648438 8.976562 34.847656 8.972656 35.046875 8.972656 C 35.148438 8.96875 35.25 8.96875 35.351562 8.96875 C 35.496094 8.964844 35.496094 8.964844 35.644531 8.964844 C 35.777344 8.964844 35.777344 8.964844 35.914062 8.960938 C 36.132812 8.984375 36.132812 8.984375 36.328125 9.179688 C 36.273438 9.625 36.273438 9.625 36.132812 9.765625 C 35.679688 9.789062 35.226562 9.785156 34.773438 9.785156 C 34.644531 9.785156 34.515625 9.785156 34.382812 9.789062 C 34.261719 9.789062 34.136719 9.789062 34.011719 9.789062 C 33.84375 9.789062 33.84375 9.789062 33.671875 9.789062 C 33.398438 9.765625 33.398438 9.765625 33.203125 9.570312 C 33.179688 9.386719 33.179688 9.386719 33.179688 9.15625 C 33.175781 9.070312 33.175781 8.984375 33.175781 8.898438 C 33.175781 8.804688 33.175781 8.714844 33.175781 8.617188 C 33.175781 8.523438 33.175781 8.429688 33.175781 8.332031 C 33.175781 8.132812 33.175781 7.929688 33.175781 7.730469 C 33.179688 7.421875 33.175781 7.117188 33.175781 6.808594 C 33.175781 6.613281 33.175781 6.417969 33.175781 6.226562 C 33.175781 6.132812 33.175781 6.039062 33.175781 5.945312 C 33.175781 5.859375 33.175781 5.773438 33.179688 5.6875 C 33.179688 5.613281 33.179688 5.535156 33.179688 5.457031 C 33.242188 4.984375 33.621094 5.054688 34.007812 5.050781 Z M 34.007812 5.050781 "/>
<path style=" stroke:none;fill-rule:nonzero;fill:rgb(0.392157%,0.392157%,0.392157%);fill-opacity:1;" d="M 18.382812 5.050781 C 18.566406 5.050781 18.566406 5.050781 18.753906 5.050781 C 18.945312 5.050781 18.945312 5.050781 19.140625 5.054688 C 19.269531 5.054688 19.394531 5.050781 19.527344 5.050781 C 19.648438 5.050781 19.773438 5.050781 19.898438 5.050781 C 20.007812 5.050781 20.121094 5.050781 20.238281 5.054688 C 20.507812 5.078125 20.507812 5.078125 20.703125 5.273438 C 20.648438 5.71875 20.648438 5.71875 20.507812 5.859375 C 20.347656 5.867188 20.1875 5.871094 20.027344 5.867188 C 19.933594 5.867188 19.835938 5.867188 19.734375 5.867188 C 19.632812 5.867188 19.53125 5.867188 19.425781 5.867188 C 19.324219 5.863281 19.222656 5.863281 19.117188 5.863281 C 18.867188 5.863281 18.613281 5.859375 18.359375 5.859375 C 18.359375 6.246094 18.359375 6.632812 18.359375 7.03125 C 18.457031 7.027344 18.550781 7.027344 18.652344 7.023438 C 18.777344 7.023438 18.902344 7.019531 19.03125 7.019531 C 19.15625 7.015625 19.28125 7.015625 19.410156 7.011719 C 19.726562 7.03125 19.726562 7.03125 19.921875 7.226562 C 19.867188 7.671875 19.867188 7.671875 19.726562 7.8125 C 19.496094 7.820312 19.265625 7.820312 19.035156 7.820312 C 18.910156 7.816406 18.785156 7.816406 18.65625 7.816406 C 18.558594 7.816406 18.460938 7.8125 18.359375 7.8125 C 18.359375 8.199219 18.359375 8.585938 18.359375 8.984375 C 18.511719 8.980469 18.664062 8.980469 18.824219 8.976562 C 19.023438 8.976562 19.222656 8.972656 19.421875 8.972656 C 19.523438 8.96875 19.625 8.96875 19.726562 8.96875 C 19.871094 8.964844 19.871094 8.964844 20.019531 8.964844 C 20.152344 8.964844 20.152344 8.964844 20.289062 8.960938 C 20.507812 8.984375 20.507812 8.984375 20.703125 9.179688 C 20.648438 9.625 20.648438 9.625 20.507812 9.765625 C 20.054688 9.789062 19.601562 9.785156 19.148438 9.785156 C 19.019531 9.785156 18.890625 9.785156 18.757812 9.789062 C 18.636719 9.789062 18.511719 9.789062 18.386719 9.789062 C 18.21875 9.789062 18.21875 9.789062 18.046875 9.789062 C 17.773438 9.765625 17.773438 9.765625 17.578125 9.570312 C 17.554688 9.386719 17.554688 9.386719 17.554688 9.15625 C 17.550781 9.070312 17.550781 8.984375 17.550781 8.898438 C 17.550781 8.804688 17.550781 8.714844 17.550781 8.617188 C 17.550781 8.523438 17.550781 8.429688 17.550781 8.332031 C 17.550781 8.132812 17.550781 7.929688 17.550781 7.730469 C 17.554688 7.421875 17.550781 7.117188 17.550781 6.808594 C 17.550781 6.613281 17.550781 6.417969 17.550781 6.226562 C 17.550781 6.132812 17.550781 6.039062 17.550781 5.945312 C 17.550781 5.859375 17.550781 5.773438 17.554688 5.6875 C 17.554688 5.613281 17.554688 5.535156 17.554688 5.457031 C 17.617188 4.984375 17.996094 5.054688 18.382812 5.050781 Z M 18.382812 5.050781 "/>
<path style=" stroke:none;fill-rule:nonzero;fill:rgb(0.392157%,0.392157%,0.392157%);fill-opacity:1;" d="M 25.585938 5.078125 C 26.03125 5.132812 26.03125 5.132812 26.171875 5.273438 C 26.179688 5.546875 26.183594 5.820312 26.179688 6.09375 C 26.179688 6.175781 26.179688 6.257812 26.179688 6.34375 C 26.179688 6.609375 26.179688 6.871094 26.179688 7.136719 C 26.175781 7.3125 26.175781 7.492188 26.175781 7.671875 C 26.175781 8.109375 26.175781 8.546875 26.171875 8.984375 C 26.6875 8.984375 27.203125 8.984375 27.734375 8.984375 C 27.734375 8.871094 27.730469 8.761719 27.730469 8.648438 C 27.726562 8.234375 27.726562 7.820312 27.722656 7.410156 C 27.722656 7.230469 27.722656 7.050781 27.71875 6.875 C 27.71875 6.617188 27.714844 6.359375 27.714844 6.105469 C 27.714844 6.023438 27.714844 5.945312 27.710938 5.863281 C 27.710938 5.664062 27.722656 5.46875 27.734375 5.273438 C 27.796875 5.210938 27.863281 5.144531 27.929688 5.078125 C 28.375 5.132812 28.375 5.132812 28.515625 5.273438 C 28.527344 5.554688 28.535156 5.835938 28.535156 6.121094 C 28.535156 6.207031 28.535156 6.292969 28.539062 6.378906 C 28.539062 6.558594 28.539062 6.742188 28.539062 6.921875 C 28.539062 7.199219 28.542969 7.476562 28.546875 7.753906 C 28.546875 7.929688 28.546875 8.105469 28.546875 8.28125 C 28.550781 8.363281 28.550781 8.445312 28.550781 8.53125 C 28.550781 8.988281 28.527344 9.304688 28.222656 9.667969 C 27.789062 9.8125 27.363281 9.789062 26.910156 9.789062 C 26.816406 9.792969 26.722656 9.792969 26.628906 9.796875 C 26.539062 9.796875 26.449219 9.796875 26.355469 9.796875 C 26.273438 9.796875 26.191406 9.800781 26.105469 9.800781 C 25.824219 9.757812 25.695312 9.667969 25.488281 9.472656 C 25.359375 9.082031 25.375 8.710938 25.375 8.304688 C 25.375 8.21875 25.375 8.132812 25.375 8.042969 C 25.371094 7.863281 25.371094 7.679688 25.371094 7.5 C 25.371094 7.222656 25.371094 6.941406 25.367188 6.664062 C 25.367188 6.488281 25.367188 6.3125 25.367188 6.136719 C 25.367188 6.054688 25.367188 5.96875 25.367188 5.882812 C 25.367188 5.296875 25.367188 5.296875 25.585938 5.078125 Z M 25.585938 5.078125 "/>
<path style=" stroke:none;fill-rule:nonzero;fill:rgb(18.039216%,32.156864%,50.980395%);fill-opacity:1;" d="M 18.066406 15.234375 C 18.554688 15.476562 18.894531 15.820312 19.140625 16.308594 C 19.199219 16.863281 19.167969 17.300781 18.847656 17.773438 C 18.457031 18.167969 18.105469 18.371094 17.546875 18.390625 C 17.09375 18.382812 16.851562 18.269531 16.503906 17.96875 C 16.082031 17.503906 15.980469 17.144531 15.988281 16.53125 C 16.046875 16.066406 16.324219 15.796875 16.664062 15.496094 C 17.117188 15.171875 17.519531 15.171875 18.066406 15.234375 Z M 18.066406 15.234375 "/>
<path style=" stroke:none;fill-rule:nonzero;fill:rgb(0.392157%,0.392157%,0.392157%);fill-opacity:1;" d="M 15.910156 37.875 C 15.980469 37.875 16.046875 37.875 16.117188 37.875 C 16.226562 37.875 16.226562 37.875 16.335938 37.875 C 16.578125 37.875 16.816406 37.875 17.054688 37.875 C 17.222656 37.875 17.386719 37.875 17.554688 37.875 C 17.902344 37.871094 18.25 37.871094 18.597656 37.871094 C 19.042969 37.871094 19.492188 37.871094 19.9375 37.871094 C 20.28125 37.867188 20.621094 37.867188 20.964844 37.867188 C 21.128906 37.867188 21.292969 37.867188 21.460938 37.867188 C 21.691406 37.867188 21.917969 37.867188 22.148438 37.867188 C 22.21875 37.867188 22.285156 37.867188 22.355469 37.867188 C 22.828125 37.867188 22.828125 37.867188 23.046875 38.085938 C 22.992188 38.53125 22.992188 38.53125 22.851562 38.671875 C 22.621094 38.683594 22.394531 38.6875 22.164062 38.6875 C 22.054688 38.6875 22.054688 38.6875 21.945312 38.6875 C 21.703125 38.6875 21.464844 38.6875 21.226562 38.6875 C 21.058594 38.6875 20.894531 38.6875 20.726562 38.6875 C 20.378906 38.691406 20.03125 38.691406 19.683594 38.691406 C 19.238281 38.691406 18.789062 38.691406 18.34375 38.691406 C 18 38.695312 17.660156 38.695312 17.316406 38.695312 C 17.152344 38.695312 16.988281 38.695312 16.820312 38.695312 C 16.589844 38.695312 16.363281 38.695312 16.132812 38.695312 C 16.0625 38.695312 15.996094 38.695312 15.925781 38.695312 C 15.453125 38.695312 15.453125 38.695312 15.234375 38.476562 C 15.300781 37.929688 15.367188 37.878906 15.910156 37.875 Z M 15.910156 37.875 "/>
<path style=" stroke:none;fill-rule:nonzero;fill:rgb(0.392157%,0.392157%,0.392157%);fill-opacity:1;" d="M 15.910156 26.9375 C 15.980469 26.9375 16.046875 26.9375 16.117188 26.9375 C 16.226562 26.9375 16.226562 26.9375 16.335938 26.9375 C 16.578125 26.9375 16.816406 26.9375 17.054688 26.9375 C 17.222656 26.9375 17.386719 26.9375 17.554688 26.9375 C 17.902344 26.933594 18.25 26.933594 18.597656 26.933594 C 19.042969 26.933594 19.492188 26.933594 19.9375 26.933594 C 20.28125 26.929688 20.621094 26.929688 20.964844 26.929688 C 21.128906 26.929688 21.292969 26.929688 21.460938 26.929688 C 21.691406 26.929688 21.917969 26.929688 22.148438 26.929688 C 22.21875 26.929688 22.285156 26.929688 22.355469 26.929688 C 22.828125 26.929688 22.828125 26.929688 23.046875 27.148438 C 22.992188 27.59375 22.992188 27.59375 22.851562 27.734375 C 22.621094 27.746094 22.394531 27.75 22.164062 27.75 C 22.054688 27.75 22.054688 27.75 21.945312 27.75 C 21.703125 27.75 21.464844 27.75 21.226562 27.75 C 21.058594 27.75 20.894531 27.75 20.726562 27.75 C 20.378906 27.753906 20.03125 27.753906 19.683594 27.753906 C 19.238281 27.753906 18.789062 27.753906 18.34375 27.753906 C 18 27.757812 17.660156 27.757812 17.316406 27.757812 C 17.152344 27.757812 16.988281 27.757812 16.820312 27.757812 C 16.589844 27.757812 16.363281 27.757812 16.132812 27.757812 C 16.0625 27.757812 15.996094 27.757812 15.925781 27.757812 C 15.453125 27.757812 15.453125 27.757812 15.234375 27.539062 C 15.300781 26.992188 15.367188 26.941406 15.910156 26.9375 Z M 15.910156 26.9375 "/>
<path style=" stroke:none;fill-rule:nonzero;fill:rgb(0.392157%,0.392157%,0.392157%);fill-opacity:1;" d="M 26.914062 21.46875 C 27.03125 21.46875 27.144531 21.46875 27.265625 21.46875 C 27.394531 21.46875 27.519531 21.46875 27.652344 21.46875 C 27.78125 21.46875 27.914062 21.46875 28.042969 21.46875 C 28.316406 21.464844 28.59375 21.464844 28.867188 21.464844 C 29.21875 21.464844 29.570312 21.464844 29.921875 21.464844 C 30.195312 21.460938 30.464844 21.460938 30.734375 21.460938 C 30.925781 21.460938 31.121094 21.460938 31.3125 21.460938 C 31.429688 21.460938 31.546875 21.460938 31.667969 21.460938 C 31.824219 21.460938 31.824219 21.460938 31.980469 21.460938 C 32.226562 21.484375 32.226562 21.484375 32.421875 21.679688 C 32.367188 22.125 32.367188 22.125 32.226562 22.265625 C 32.042969 22.277344 31.863281 22.277344 31.679688 22.28125 C 31.5625 22.28125 31.449219 22.28125 31.328125 22.28125 C 31.199219 22.28125 31.074219 22.28125 30.941406 22.28125 C 30.8125 22.28125 30.679688 22.28125 30.550781 22.28125 C 30.277344 22.285156 30 22.285156 29.726562 22.285156 C 29.375 22.285156 29.023438 22.285156 28.671875 22.285156 C 28.398438 22.289062 28.128906 22.289062 27.859375 22.289062 C 27.667969 22.289062 27.472656 22.289062 27.28125 22.289062 C 27.164062 22.289062 27.046875 22.289062 26.925781 22.289062 C 26.769531 22.289062 26.769531 22.289062 26.613281 22.289062 C 26.367188 22.265625 26.367188 22.265625 26.171875 22.070312 C 26.242188 21.484375 26.34375 21.472656 26.914062 21.46875 Z M 26.914062 21.46875 "/>
<path style=" stroke:none;fill-rule:nonzero;fill:rgb(0.392157%,0.392157%,0.392157%);fill-opacity:1;" d="M 26.914062 19.125 C 27.03125 19.125 27.144531 19.125 27.265625 19.125 C 27.394531 19.125 27.519531 19.125 27.652344 19.125 C 27.78125 19.125 27.914062 19.125 28.042969 19.125 C 28.316406 19.121094 28.59375 19.121094 28.867188 19.121094 C 29.21875 19.121094 29.570312 19.121094 29.921875 19.121094 C 30.195312 19.117188 30.464844 19.117188 30.734375 19.117188 C 30.925781 19.117188 31.121094 19.117188 31.3125 19.117188 C 31.429688 19.117188 31.546875 19.117188 31.667969 19.117188 C 31.824219 19.117188 31.824219 19.117188 31.980469 19.117188 C 32.226562 19.140625 32.226562 19.140625 32.421875 19.335938 C 32.367188 19.78125 32.367188 19.78125 32.226562 19.921875 C 32.042969 19.933594 31.863281 19.933594 31.679688 19.9375 C 31.5625 19.9375 31.449219 19.9375 31.328125 19.9375 C 31.199219 19.9375 31.074219 19.9375 30.941406 19.9375 C 30.8125 19.9375 30.679688 19.9375 30.550781 19.9375 C 30.277344 19.941406 30 19.941406 29.726562 19.941406 C 29.375 19.941406 29.023438 19.941406 28.671875 19.941406 C 28.398438 19.945312 28.128906 19.945312 27.859375 19.945312 C 27.667969 19.945312 27.472656 19.945312 27.28125 19.945312 C 27.164062 19.945312 27.046875 19.945312 26.925781 19.945312 C 26.769531 19.945312 26.769531 19.945312 26.613281 19.945312 C 26.367188 19.921875 26.367188 19.921875 26.171875 19.726562 C 26.242188 19.140625 26.34375 19.128906 26.914062 19.125 Z M 26.914062 19.125 "/>
<path style=" stroke:none;fill-rule:nonzero;fill:rgb(0.392157%,0.392157%,0.392157%);fill-opacity:1;" d="M 26.914062 16.78125 C 27.03125 16.78125 27.144531 16.78125 27.265625 16.78125 C 27.394531 16.78125 27.519531 16.78125 27.652344 16.78125 C 27.78125 16.78125 27.914062 16.78125 28.042969 16.78125 C 28.316406 16.777344 28.59375 16.777344 28.867188 16.777344 C 29.21875 16.777344 29.570312 16.777344 29.921875 16.777344 C 30.195312 16.773438 30.464844 16.773438 30.734375 16.773438 C 30.925781 16.773438 31.121094 16.773438 31.3125 16.773438 C 31.429688 16.773438 31.546875 16.773438 31.667969 16.773438 C 31.824219 16.773438 31.824219 16.773438 31.980469 16.773438 C 32.226562 16.796875 32.226562 16.796875 32.421875 16.992188 C 32.367188 17.4375 32.367188 17.4375 32.226562 17.578125 C 32.042969 17.589844 31.863281 17.589844 31.679688 17.59375 C 31.5625 17.59375 31.449219 17.59375 31.328125 17.59375 C 31.199219 17.59375 31.074219 17.59375 30.941406 17.59375 C 30.8125 17.59375 30.679688 17.59375 30.550781 17.59375 C 30.277344 17.597656 30 17.597656 29.726562 17.597656 C 29.375 17.597656 29.023438 17.597656 28.671875 17.597656 C 28.398438 17.601562 28.128906 17.601562 27.859375 17.601562 C 27.667969 17.601562 27.472656 17.601562 27.28125 17.601562 C 27.164062 17.601562 27.046875 17.601562 26.925781 17.601562 C 26.769531 17.601562 26.769531 17.601562 26.613281 17.601562 C 26.367188 17.578125 26.367188 17.578125 26.171875 17.382812 C 26.242188 16.796875 26.34375 16.785156 26.914062 16.78125 Z M 26.914062 16.78125 "/>
<path style=" stroke:none;fill-rule:nonzero;fill:rgb(89.803922%,89.803922%,89.803922%);fill-opacity:1;" d="M 14.453125 5.859375 C 14.96875 5.859375 15.484375 5.859375 16.015625 5.859375 C 16.015625 6.375 16.015625 6.890625 16.015625 7.421875 C 15.683594 7.441406 15.683594 7.441406 15.34375 7.464844 C 14.882812 7.480469 14.882812 7.480469 14.453125 7.617188 C 14.453125 7.039062 14.453125 6.457031 14.453125 5.859375 Z M 14.453125 5.859375 "/>
<path style=" stroke:none;fill-rule:nonzero;fill:rgb(3.921569%,3.921569%,3.921569%);fill-opacity:1;" d="M 13.28125 37.4375 C 13.679688 37.523438 13.824219 37.664062 14.0625 37.988281 C 14.125 38.28125 14.125 38.28125 14.0625 38.574219 C 13.824219 38.898438 13.679688 39.039062 13.28125 39.125 C 12.882812 39.039062 12.738281 38.898438 12.5 38.574219 C 12.4375 38.28125 12.4375 38.28125 12.5 37.988281 C 12.738281 37.664062 12.882812 37.523438 13.28125 37.4375 Z M 13.28125 37.4375 "/>
<path style=" stroke:none;fill-rule:nonzero;fill:rgb(3.921569%,3.921569%,3.921569%);fill-opacity:1;" d="M 13.28125 26.5 C 13.679688 26.585938 13.824219 26.726562 14.0625 27.050781 C 14.125 27.34375 14.125 27.34375 14.0625 27.636719 C 13.824219 27.960938 13.679688 28.101562 13.28125 28.1875 C 12.882812 28.101562 12.738281 27.960938 12.5 27.636719 C 12.4375 27.34375 12.4375 27.34375 12.5 27.050781 C 12.738281 26.726562 12.882812 26.585938 13.28125 26.5 Z M 13.28125 26.5 "/>
</g>
</svg>
