<?xml version="1.0" encoding="UTF-8"?>
<svg xmlns="http://www.w3.org/2000/svg" xmlns:xlink="http://www.w3.org/1999/xlink" width="50px" height="50px" viewBox="0 0 50 50" version="1.1">
<g id="surface1">
<path style=" stroke:none;fill-rule:nonzero;fill:rgb(24.705882%,60.392159%,100%);fill-opacity:1;" d="M 17.1875 24.609375 C 17.714844 24.976562 18.183594 25.386719 18.652344 25.824219 C 18.710938 25.878906 18.773438 25.9375 18.835938 25.992188 C 19 26.152344 19.167969 26.308594 19.335938 26.464844 C 21.011719 28.035156 22.929688 28.980469 25.25 28.953125 C 27.066406 28.886719 28.734375 28.175781 30.078125 26.953125 C 30.128906 26.90625 30.179688 26.863281 30.230469 26.816406 C 30.503906 26.566406 30.777344 26.3125 31.050781 26.058594 C 31.289062 25.835938 31.53125 25.613281 31.773438 25.398438 C 31.828125 25.347656 31.882812 25.300781 31.9375 25.253906 C 32.21875 25.023438 32.515625 24.816406 32.8125 24.609375 C 33.566406 25.414062 34.3125 26.222656 35.027344 27.0625 C 35.574219 27.707031 36.128906 28.339844 36.703125 28.957031 C 37.015625 29.292969 37.324219 29.636719 37.625 29.984375 C 37.824219 30.214844 38.027344 30.4375 38.234375 30.664062 C 38.550781 31.015625 38.867188 31.375 39.179688 31.730469 C 39.382812 31.964844 39.589844 32.191406 39.796875 32.421875 C 40.113281 32.773438 40.429688 33.132812 40.742188 33.488281 C 40.945312 33.722656 41.152344 33.949219 41.359375 34.179688 C 41.675781 34.53125 41.992188 34.890625 42.304688 35.246094 C 42.507812 35.480469 42.714844 35.707031 42.921875 35.9375 C 43.238281 36.292969 43.554688 36.648438 43.867188 37.007812 C 44.066406 37.234375 44.269531 37.453125 44.46875 37.675781 C 44.773438 38.011719 45.066406 38.355469 45.347656 38.707031 C 45.832031 39.304688 46.351562 39.867188 46.875 40.429688 C 46.4375 40.910156 45.886719 41.085938 45.246094 41.148438 C 44.808594 41.167969 44.367188 41.164062 43.929688 41.164062 C 43.761719 41.164062 43.589844 41.164062 43.417969 41.164062 C 42.953125 41.167969 42.488281 41.164062 42.023438 41.164062 C 41.519531 41.164062 41.015625 41.164062 40.511719 41.164062 C 39.527344 41.167969 38.542969 41.167969 37.558594 41.167969 C 36.757812 41.164062 35.957031 41.164062 35.15625 41.164062 C 35.042969 41.164062 34.929688 41.164062 34.8125 41.164062 C 34.582031 41.164062 34.351562 41.164062 34.117188 41.167969 C 31.949219 41.167969 29.777344 41.164062 27.605469 41.164062 C 25.746094 41.160156 23.882812 41.164062 22.023438 41.164062 C 19.859375 41.167969 17.695312 41.167969 15.535156 41.164062 C 15.304688 41.164062 15.074219 41.164062 14.84375 41.164062 C 14.726562 41.164062 14.613281 41.164062 14.496094 41.164062 C 13.699219 41.164062 12.898438 41.164062 12.101562 41.167969 C 11.125 41.167969 10.152344 41.167969 9.175781 41.164062 C 8.679688 41.164062 8.183594 41.164062 7.6875 41.164062 C 7.230469 41.167969 6.777344 41.164062 6.320312 41.164062 C 6.15625 41.164062 5.992188 41.164062 5.828125 41.164062 C 3.902344 41.175781 3.902344 41.175781 3.246094 40.5625 C 3.207031 40.519531 3.167969 40.476562 3.125 40.429688 C 3.238281 40.3125 3.238281 40.3125 3.351562 40.191406 C 3.824219 39.683594 4.292969 39.175781 4.722656 38.636719 C 5.195312 38.046875 5.710938 37.503906 6.226562 36.957031 C 6.515625 36.652344 6.792969 36.339844 7.066406 36.023438 C 7.261719 35.796875 7.464844 35.574219 7.664062 35.351562 C 7.929688 35.058594 8.191406 34.769531 8.445312 34.472656 C 8.777344 34.09375 9.117188 33.71875 9.453125 33.34375 C 9.640625 33.136719 9.824219 32.925781 10.007812 32.714844 C 10.339844 32.335938 10.679688 31.960938 11.015625 31.585938 C 11.203125 31.378906 11.386719 31.167969 11.570312 30.957031 C 11.902344 30.578125 12.242188 30.203125 12.578125 29.828125 C 12.824219 29.558594 13.0625 29.285156 13.300781 29.007812 C 13.5 28.78125 13.703125 28.5625 13.902344 28.339844 C 14.203125 28.007812 14.488281 27.671875 14.765625 27.324219 C 15.1875 26.800781 15.644531 26.308594 16.109375 25.820312 C 16.480469 25.425781 16.835938 25.023438 17.1875 24.609375 Z M 17.1875 24.609375 "/>
<path style=" stroke:none;fill-rule:nonzero;fill:rgb(35.686275%,69.01961%,100%);fill-opacity:1;" d="M 5.082031 8.875 C 5.152344 8.875 5.222656 8.875 5.292969 8.871094 C 5.53125 8.871094 5.765625 8.871094 6 8.871094 C 6.167969 8.871094 6.339844 8.871094 6.507812 8.871094 C 6.976562 8.871094 7.441406 8.871094 7.910156 8.871094 C 8.414062 8.871094 8.917969 8.867188 9.417969 8.867188 C 10.636719 8.867188 11.851562 8.863281 13.070312 8.863281 C 13.640625 8.863281 14.214844 8.863281 14.785156 8.863281 C 16.6875 8.859375 18.59375 8.859375 20.496094 8.859375 C 20.988281 8.859375 21.484375 8.859375 21.976562 8.859375 C 22.101562 8.859375 22.222656 8.859375 22.347656 8.859375 C 24.339844 8.855469 26.328125 8.855469 28.316406 8.851562 C 30.359375 8.847656 32.402344 8.847656 34.441406 8.847656 C 35.589844 8.847656 36.734375 8.84375 37.882812 8.84375 C 38.859375 8.839844 39.835938 8.839844 40.8125 8.839844 C 41.308594 8.839844 41.808594 8.839844 42.304688 8.839844 C 42.761719 8.835938 43.21875 8.835938 43.675781 8.839844 C 43.839844 8.839844 44.003906 8.839844 44.167969 8.835938 C 45.039062 8.832031 45.796875 8.851562 46.582031 9.277344 C 46.582031 9.570312 46.582031 9.570312 46.394531 9.765625 C 46.3125 9.839844 46.230469 9.910156 46.140625 9.984375 C 46.050781 10.0625 45.960938 10.140625 45.871094 10.222656 C 45.78125 10.296875 45.695312 10.371094 45.605469 10.449219 C 45.480469 10.558594 45.351562 10.667969 45.226562 10.777344 C 45.164062 10.832031 45.101562 10.886719 45.039062 10.941406 C 44.769531 11.183594 44.503906 11.425781 44.238281 11.667969 C 43.851562 12.027344 43.460938 12.375 43.066406 12.722656 C 42.671875 13.066406 42.285156 13.417969 41.894531 13.769531 C 41.652344 13.988281 41.40625 14.207031 41.164062 14.429688 C 40.996094 14.578125 40.832031 14.726562 40.667969 14.875 C 40.300781 15.203125 39.933594 15.535156 39.5625 15.855469 C 39.175781 16.195312 38.796875 16.542969 38.421875 16.890625 C 38.085938 17.195312 37.75 17.496094 37.40625 17.792969 C 37.160156 18.011719 36.914062 18.234375 36.667969 18.457031 C 36.367188 18.734375 36.058594 19.011719 35.75 19.28125 C 35.414062 19.570312 35.089844 19.867188 34.765625 20.164062 C 34.378906 20.523438 33.988281 20.871094 33.59375 21.21875 C 33.199219 21.5625 32.8125 21.914062 32.421875 22.265625 C 32.179688 22.484375 31.933594 22.703125 31.691406 22.925781 C 31.523438 23.074219 31.359375 23.222656 31.195312 23.371094 C 30.761719 23.761719 30.328125 24.148438 29.886719 24.53125 C 29.742188 24.65625 29.601562 24.789062 29.460938 24.921875 C 28.625 25.699219 27.75 26.304688 26.660156 26.660156 C 26.59375 26.683594 26.527344 26.703125 26.457031 26.726562 C 25.039062 27.117188 23.480469 26.855469 22.1875 26.203125 C 21.625 25.875 21.171875 25.445312 20.703125 25 C 20.574219 24.886719 20.449219 24.773438 20.320312 24.664062 C 19.910156 24.308594 19.507812 23.941406 19.105469 23.574219 C 18.894531 23.382812 18.679688 23.191406 18.464844 23.003906 C 18.128906 22.714844 17.804688 22.417969 17.480469 22.117188 C 17.09375 21.761719 16.703125 21.414062 16.308594 21.066406 C 15.914062 20.722656 15.527344 20.371094 15.136719 20.019531 C 14.972656 19.871094 14.8125 19.726562 14.648438 19.578125 C 14.324219 19.285156 13.996094 18.992188 13.671875 18.699219 C 13.589844 18.628906 13.511719 18.558594 13.429688 18.480469 C 13.261719 18.332031 13.097656 18.183594 12.933594 18.035156 C 12.566406 17.707031 12.199219 17.375 11.828125 17.054688 C 11.441406 16.714844 11.0625 16.367188 10.6875 16.019531 C 10.351562 15.710938 10.011719 15.410156 9.667969 15.109375 C 9.273438 14.765625 8.886719 14.414062 8.496094 14.0625 C 8.332031 13.914062 8.171875 13.769531 8.007812 13.621094 C 7.761719 13.402344 7.515625 13.179688 7.269531 12.957031 C 6.902344 12.628906 6.535156 12.296875 6.164062 11.976562 C 5.777344 11.636719 5.402344 11.289062 5.023438 10.945312 C 4.738281 10.679688 4.449219 10.421875 4.15625 10.167969 C 3.863281 9.914062 3.589844 9.652344 3.320312 9.375 C 3.949219 9 4.339844 8.875 5.082031 8.875 Z M 5.082031 8.875 "/>
<path style=" stroke:none;fill-rule:nonzero;fill:rgb(40.392157%,72.941178%,100%);fill-opacity:1;" d="M 1.855469 10.839844 C 2.414062 11.242188 2.921875 11.675781 3.417969 12.152344 C 3.871094 12.582031 4.324219 13.003906 4.796875 13.414062 C 5.058594 13.640625 5.3125 13.875 5.566406 14.109375 C 5.953125 14.46875 6.34375 14.816406 6.738281 15.164062 C 7.132812 15.507812 7.519531 15.859375 7.910156 16.210938 C 8.074219 16.359375 8.234375 16.503906 8.398438 16.648438 C 8.644531 16.871094 8.890625 17.09375 9.136719 17.316406 C 9.503906 17.644531 9.871094 17.976562 10.242188 18.296875 C 10.628906 18.636719 11.007812 18.984375 11.382812 19.332031 C 11.71875 19.640625 12.058594 19.941406 12.402344 20.242188 C 12.796875 20.585938 13.183594 20.9375 13.574219 21.289062 C 13.738281 21.4375 13.898438 21.582031 14.0625 21.726562 C 14.140625 21.800781 14.222656 21.871094 14.304688 21.945312 C 14.476562 22.101562 14.648438 22.253906 14.824219 22.410156 C 14.910156 22.484375 14.996094 22.5625 15.085938 22.644531 C 15.167969 22.714844 15.246094 22.785156 15.328125 22.855469 C 15.527344 23.046875 15.527344 23.046875 15.722656 23.339844 C 15.660156 23.410156 15.597656 23.476562 15.53125 23.546875 C 15.097656 24.027344 14.660156 24.507812 14.234375 24.996094 C 14.035156 25.226562 13.828125 25.457031 13.625 25.683594 C 13.359375 25.976562 13.097656 26.265625 12.84375 26.5625 C 12.511719 26.941406 12.171875 27.316406 11.835938 27.691406 C 11.648438 27.898438 11.464844 28.109375 11.28125 28.320312 C 10.949219 28.699219 10.609375 29.074219 10.273438 29.449219 C 10.085938 29.65625 9.902344 29.867188 9.71875 30.078125 C 9.460938 30.375 9.199219 30.664062 8.9375 30.957031 C 8.46875 31.476562 8.003906 32 7.550781 32.535156 C 7.003906 33.175781 6.449219 33.808594 5.875 34.425781 C 5.5625 34.761719 5.253906 35.105469 4.953125 35.453125 C 4.753906 35.683594 4.550781 35.90625 4.34375 36.132812 C 4.027344 36.484375 3.710938 36.839844 3.402344 37.199219 C 3.191406 37.4375 2.980469 37.667969 2.769531 37.902344 C 2.457031 38.25 2.152344 38.601562 1.855469 38.964844 C 1.609375 38.746094 1.503906 38.570312 1.402344 38.257812 C 1.378906 38.1875 1.355469 38.113281 1.332031 38.042969 C 1.167969 37.398438 1.15625 36.773438 1.160156 36.113281 C 1.160156 36.015625 1.160156 35.917969 1.15625 35.816406 C 1.15625 35.484375 1.15625 35.15625 1.15625 34.824219 C 1.15625 34.589844 1.15625 34.351562 1.15625 34.113281 C 1.15625 33.539062 1.15625 32.960938 1.15625 32.386719 C 1.15625 31.917969 1.15625 31.449219 1.15625 30.980469 C 1.152344 29.648438 1.152344 28.316406 1.152344 26.988281 C 1.152344 26.914062 1.152344 26.84375 1.152344 26.769531 C 1.152344 26.699219 1.152344 26.625 1.152344 26.550781 C 1.152344 25.390625 1.152344 24.226562 1.152344 23.066406 C 1.148438 21.871094 1.148438 20.675781 1.148438 19.480469 C 1.148438 18.808594 1.148438 18.140625 1.148438 17.46875 C 1.148438 16.835938 1.148438 16.207031 1.148438 15.578125 C 1.148438 15.34375 1.148438 15.113281 1.148438 14.882812 C 1.148438 14.566406 1.148438 14.25 1.148438 13.933594 C 1.148438 13.84375 1.148438 13.753906 1.144531 13.660156 C 1.152344 12.609375 1.347656 11.757812 1.855469 10.839844 Z M 1.855469 10.839844 "/>
<path style=" stroke:none;fill-rule:nonzero;fill:rgb(20.784314%,57.254905%,100%);fill-opacity:1;" d="M 48.046875 10.839844 C 48.324219 11.078125 48.425781 11.304688 48.546875 11.644531 C 48.597656 11.777344 48.597656 11.777344 48.644531 11.914062 C 48.835938 12.566406 48.84375 13.210938 48.839844 13.886719 C 48.839844 13.984375 48.839844 14.082031 48.84375 14.183594 C 48.84375 14.515625 48.84375 14.84375 48.84375 15.175781 C 48.84375 15.410156 48.84375 15.648438 48.84375 15.886719 C 48.84375 16.460938 48.84375 17.039062 48.84375 17.613281 C 48.84375 18.082031 48.84375 18.550781 48.84375 19.019531 C 48.847656 20.351562 48.847656 21.683594 48.847656 23.011719 C 48.847656 23.085938 48.847656 23.15625 48.847656 23.230469 C 48.847656 23.300781 48.847656 23.375 48.847656 23.449219 C 48.847656 24.609375 48.847656 25.773438 48.847656 26.933594 C 48.851562 28.128906 48.851562 29.324219 48.851562 30.519531 C 48.851562 31.191406 48.851562 31.859375 48.851562 32.53125 C 48.851562 33.164062 48.851562 33.792969 48.851562 34.421875 C 48.851562 34.65625 48.851562 34.886719 48.851562 35.117188 C 48.851562 35.433594 48.851562 35.75 48.851562 36.066406 C 48.851562 36.15625 48.851562 36.246094 48.855469 36.339844 C 48.847656 37.296875 48.714844 38.128906 48.242188 38.964844 C 47.859375 38.6875 47.566406 38.371094 47.261719 38.015625 C 47.054688 37.773438 46.84375 37.539062 46.632812 37.304688 C 46.3125 36.953125 45.996094 36.59375 45.683594 36.238281 C 45.480469 36.003906 45.273438 35.777344 45.070312 35.546875 C 44.75 35.191406 44.433594 34.835938 44.121094 34.476562 C 43.921875 34.25 43.71875 34.03125 43.519531 33.808594 C 43.21875 33.476562 42.933594 33.140625 42.65625 32.792969 C 42.179688 32.203125 41.65625 31.652344 41.136719 31.097656 C 40.847656 30.792969 40.570312 30.480469 40.296875 30.164062 C 40.101562 29.9375 39.898438 29.714844 39.695312 29.492188 C 39.378906 29.140625 39.0625 28.78125 38.75 28.425781 C 38.546875 28.191406 38.339844 27.964844 38.132812 27.734375 C 37.816406 27.382812 37.5 27.023438 37.1875 26.667969 C 36.984375 26.433594 36.777344 26.207031 36.570312 25.976562 C 36.253906 25.625 35.9375 25.269531 35.628906 24.910156 C 35.347656 24.589844 35.054688 24.277344 34.765625 23.964844 C 34.574219 23.734375 34.425781 23.503906 34.277344 23.242188 C 34.746094 22.765625 35.21875 22.300781 35.726562 21.863281 C 35.980469 21.644531 36.226562 21.417969 36.476562 21.191406 C 36.777344 20.914062 37.085938 20.636719 37.394531 20.367188 C 37.730469 20.078125 38.054688 19.78125 38.378906 19.484375 C 38.761719 19.128906 39.152344 18.78125 39.546875 18.4375 C 39.792969 18.21875 40.039062 17.996094 40.28125 17.773438 C 40.585938 17.496094 40.894531 17.21875 41.203125 16.949219 C 41.539062 16.660156 41.863281 16.363281 42.1875 16.0625 C 42.574219 15.707031 42.964844 15.359375 43.359375 15.011719 C 43.753906 14.667969 44.140625 14.316406 44.53125 13.964844 C 44.773438 13.746094 45.019531 13.527344 45.261719 13.304688 C 45.429688 13.15625 45.59375 13.007812 45.757812 12.859375 C 46.257812 12.410156 46.757812 11.964844 47.265625 11.523438 C 47.414062 11.394531 47.558594 11.265625 47.703125 11.140625 C 47.820312 11.039062 47.933594 10.941406 48.046875 10.839844 Z M 48.046875 10.839844 "/>
</g>
</svg>
