<?xml version="1.0" encoding="UTF-8"?>
<svg version="1.1" xmlns="http://www.w3.org/2000/svg" width="200" height="200">
<path d="M0 0 C1.03727863 -0.00424107 1.03727863 -0.00424107 2.09551239 -0.00856781 C5.76485052 -0.02347516 9.43415028 -0.03275443 13.10351562 -0.03710938 C16.08606371 -0.04146817 19.06831831 -0.05527025 22.05078125 -0.078125 C43.98429756 -0.24285765 64.98973941 0.78730896 86.359375 6.203125 C87.22046875 6.34878906 88.0815625 6.49445312 88.96875 6.64453125 C91.4806252 7.23145634 92.97171726 8.00938691 95.046875 9.515625 C95.91892578 10.12857422 95.91892578 10.12857422 96.80859375 10.75390625 C98.60589627 12.4335013 99.32851264 13.9799399 100.359375 16.203125 C100.81054688 16.86828125 101.26171875 17.5334375 101.7265625 18.21875 C112.09820667 33.58812945 111.5197419 52.73807738 111.52734375 70.5546875 C111.53056494 72.34052557 111.53392963 74.12636338 111.53742981 75.91220093 C111.5433935 79.64573782 111.54527264 83.37925166 111.54467773 87.11279297 C111.54457645 91.85283331 111.55820616 96.59272272 111.57544994 101.33272743 C111.58667383 105.02034152 111.58859376 108.70792037 111.58806801 112.39554977 C111.58923341 114.14071546 111.59357222 115.88588251 111.60140038 117.63103104 C111.67807814 136.49456209 110.90851502 153.98662784 100.359375 170.203125 C99.72 171.316875 99.080625 172.430625 98.421875 173.578125 C94.75260221 178.24810855 90.66897762 180.210579 84.921875 180.953125 C83.74625 181.035625 82.570625 181.118125 81.359375 181.203125 C81.359375 181.863125 81.359375 182.523125 81.359375 183.203125 C80.23402344 183.1726709 79.10867187 183.1422168 77.94921875 183.11083984 C74.03826898 183.11116083 70.36420765 183.60453009 66.5144043 184.25131226 C51.95641942 186.6567934 37.41542128 186.66446604 22.70996094 186.59423828 C19.08644176 186.57714717 15.46358438 186.58729072 11.84008789 186.60459518 C-3.0039071 186.66427667 -17.52434156 186.31294125 -32.20703125 183.84619141 C-36.40232744 183.15805048 -40.3937212 183.0881959 -44.640625 183.203125 C-44.640625 182.543125 -44.640625 181.883125 -44.640625 181.203125 C-45.60162109 181.07357422 -45.60162109 181.07357422 -46.58203125 180.94140625 C-52.89873424 179.91529503 -56.80401914 178.43515513 -61.640625 174.203125 C-62.33960412 172.88644341 -63.00419541 171.55115304 -63.640625 170.203125 C-64.09179688 169.53796875 -64.54296875 168.8728125 -65.0078125 168.1875 C-75.37945667 152.81812055 -74.8009919 133.66817262 -74.80859375 115.8515625 C-74.81181494 114.06572443 -74.81517963 112.27988662 -74.81867981 110.49404907 C-74.8246435 106.76051218 -74.82652264 103.02699834 -74.82592773 99.29345703 C-74.82582645 94.55341669 -74.83945616 89.81352728 -74.85669994 85.07352257 C-74.86792383 81.38590848 -74.86984376 77.69832963 -74.86931801 74.01070023 C-74.87048341 72.26553454 -74.87482222 70.52036749 -74.88265038 68.77521896 C-74.95932814 49.91168791 -74.18976502 32.41962216 -63.640625 16.203125 C-63.00125 15.089375 -62.361875 13.975625 -61.703125 12.828125 C-58.12534742 8.2745899 -54.62512611 6.46672504 -49.0234375 5.72265625 C-47.97542969 5.60821167 -47.97542969 5.60821167 -46.90625 5.49145508 C-41.96639688 4.86279489 -37.10541016 3.70218273 -32.23828125 2.6640625 C-31.40425781 2.49132812 -30.57023437 2.31859375 -29.7109375 2.140625 C-28.60903076 1.90666016 -28.60903076 1.90666016 -27.48486328 1.66796875 C-18.34570513 0.17432436 -9.24408019 0.02591633 0 0 Z " fill="#E8E8E8" transform="translate(81.640625,6.796875)"/>
<path d="M0 0 C1.65 0 3.3 0 5 0 C7.125 5.625 7.125 5.625 6 9 C6.69996094 8.67257813 7.39992188 8.34515625 8.12109375 8.0078125 C11.30666258 6.89264729 13.70020399 6.79848757 17.0625 6.875 C18.08472656 6.89304688 19.10695313 6.91109375 20.16015625 6.9296875 C21.56587891 6.96449219 21.56587891 6.96449219 23 7 C24.32 7 25.64 7 27 7 C28.66666667 7 30.33333333 7 32 7 C32.27714844 7.85464844 32.55429688 8.70929688 32.83984375 9.58984375 C33.38318359 11.24693359 33.38318359 11.24693359 33.9375 12.9375 C34.47697266 14.59072266 34.47697266 14.59072266 35.02734375 16.27734375 C35.73856668 18.88123475 35.73856668 18.88123475 37 20 C38.485 14.06 38.485 14.06 40 8 C44.07713795 6.98071551 47.83279638 6.74411961 52 6.6875 C52.7115625 6.65849609 53.423125 6.62949219 54.15625 6.59960938 C57.4558465 6.55959561 59.63732916 6.77769939 62.47265625 8.515625 C64.60020507 11.97629264 64.54731253 15.12696077 64.4375 19.0625 C64.44458984 19.78244141 64.45167969 20.50238281 64.45898438 21.24414062 C64.42335638 24.19578301 64.38609149 26.42203987 62.71875 28.91796875 C60.82570258 30.10972815 59.23815238 30.73218638 57.0625 31.25 C56.39347656 31.42015625 55.72445312 31.5903125 55.03515625 31.765625 C52.69723509 32.03486736 51.18238507 31.88615204 49 31 C48.505 29.515 48.505 29.515 48 28 C44.9254644 28.7763932 44.9254644 28.7763932 43 31 C40.99650739 30.68834559 38.99673484 30.35236497 37 30 C35.33178677 30.32550502 33.66500443 30.65846063 32 31 C31.175 30.79375 30.35 30.5875 29.5 30.375 C26.1229281 29.86843922 24.81328063 31.22319118 22 33 C20.515 32.505 20.515 32.505 19 32 C18.030625 32.350625 17.06125 32.70125 16.0625 33.0625 C13 34 13 34 10.75 33.3125 C9 32 9 32 7 29 C5.35 31.64 3.7 34.28 2 37 C0.35 36.34 -1.3 35.68 -3 35 C-2.125 31.125 -2.125 31.125 -1 30 C-0.84126045 27.78312006 -0.74866163 25.56144702 -0.68359375 23.33984375 C-0.66281265 22.67537735 -0.64203156 22.01091095 -0.62062073 21.3263092 C-0.55506342 19.19681457 -0.49621215 17.06719332 -0.4375 14.9375 C-0.39432061 13.49673153 -0.35070651 12.05597601 -0.30664062 10.61523438 C-0.19937607 7.0769596 -0.09812629 3.53854131 0 0 Z " fill="#B9B3B3" transform="translate(65,128)"/>
<path d="M0 0 C1.88508162 1.82092963 2.91706652 3.30591325 3.23144531 5.93701172 C3.25928763 8.27628198 3.21137797 10.59966142 3.125 12.9375 C2.66546452 21.89815345 2.66546452 21.89815345 6 30 C6.43738696 31.71444889 6.80848688 33.44667784 7.125 35.1875 C7.29257813 36.08855469 7.46015625 36.98960937 7.6328125 37.91796875 C7.75398437 38.60503906 7.87515625 39.29210937 8 40 C8.66 40 9.32 40 10 40 C10.66 41.98 11.32 43.96 12 46 C12.66 46 13.32 46 14 46 C14.33 46.66 14.66 47.32 15 48 C31.36783308 57.44298062 51.41740246 59.3627839 70 59 C70 59.66 70 60.32 70 61 C71.14887695 60.67475342 72.29775391 60.34950684 73.48144531 60.0144043 C77.81416593 58.93550619 81.84939093 58.72463101 86.296875 58.76953125 C87.0529303 58.76998947 87.8089856 58.77044769 88.58795166 58.7709198 C90.17111805 58.77391737 91.75428216 58.78172776 93.33740234 58.79418945 C95.75759322 58.81255763 98.17740258 58.81469794 100.59765625 58.81445312 C102.14323247 58.81936546 103.68880611 58.82519254 105.234375 58.83203125 C106.31413605 58.83370049 106.31413605 58.83370049 107.41571045 58.83540344 C110.78066353 58.86722648 113.75970379 59.12179314 117 60 C119.57252706 59.77852416 122.07444937 59.49399811 124.625 59.125 C126.06886944 58.92864806 127.51288023 58.73333267 128.95703125 58.5390625 C130.00238037 58.39645996 130.00238037 58.39645996 131.06884766 58.25097656 C133.47869449 57.93778787 135.89170037 57.71050432 138.3125 57.5 C146.27248895 56.72276202 153.78530276 55.60734862 161 52 C161.88945312 51.56558594 162.77890625 51.13117188 163.6953125 50.68359375 C171.29580628 46.80227493 176.1753006 43.32602929 179 35 C179.72659569 31.37701848 180.24555252 27.71976812 180.76757812 24.0625 C181.41167741 20.0057421 181.89815347 17.70514138 185 15 C186.12384791 27.98668699 182.40477396 40.4275162 175 51 C174.360625 52.11375 173.72125 53.2275 173.0625 54.375 C169.39322721 59.04498355 165.30960262 61.007454 159.5625 61.75 C158.386875 61.8325 157.21125 61.915 156 62 C156 62.66 156 63.32 156 64 C154.87464844 63.9695459 153.74929687 63.9390918 152.58984375 63.90771484 C148.67889398 63.90803583 145.00483265 64.40140509 141.1550293 65.04818726 C126.59704442 67.4536684 112.05604628 67.46134104 97.35058594 67.39111328 C93.72706676 67.37402217 90.10420938 67.38416572 86.48071289 67.40147018 C71.6367179 67.46115167 57.11628344 67.10981625 42.43359375 64.64306641 C38.23829756 63.95492548 34.2469038 63.8850709 30 64 C30 63.34 30 62.68 30 62 C29.35933594 61.91363281 28.71867187 61.82726562 28.05859375 61.73828125 C21.74189076 60.71217003 17.83660586 59.23203013 13 55 C12.30102088 53.68331841 11.63642959 52.34802804 11 51 C10.54882812 50.33484375 10.09765625 49.6696875 9.6328125 48.984375 C-0.10816746 34.54955496 -0.20168201 16.80683378 0 0 Z " fill="#A8A7A7" transform="translate(7,126)"/>
<path d="M0 0 C0.66 0.33 1.32 0.66 2 1 C2.125 8.75 2.125 8.75 1 11 C0.9310528 12.37342831 0.91532292 13.75002102 0.9375 15.125 C0.958125 16.40375 0.97875 17.6825 1 19 C4.96 18.505 4.96 18.505 9 18 C6.754247 20.41850323 4.6444186 22.23468372 1.875 24.0625 C-1.17781028 25.8550539 -1.17781028 25.8550539 -3 29 C-3.59513772 32.67001591 -3.14410327 33.79912877 -0.9375 36.875 C1 40 1 40 1.0625 43.625 C-0.18045133 47.57319833 -1.56645539 48.79900986 -5 51 C-4.67 49.02 -4.34 47.04 -4 45 C-4.99 45 -5.98 45 -7 45 C-9.38314183 41.79192446 -10.43768609 38.93619738 -11 35 C-12.32 35.66 -13.64 36.32 -15 37 C-14.566875 37.81404297 -14.566875 37.81404297 -14.125 38.64453125 C-13.75375 39.35996094 -13.3825 40.07539062 -13 40.8125 C-12.443125 41.87404297 -12.443125 41.87404297 -11.875 42.95703125 C-11 45 -11 45 -11 48 C-12.48488441 46.40112446 -13.96273145 44.79571095 -15.4375 43.1875 C-16.26121094 42.29417969 -17.08492188 41.40085938 -17.93359375 40.48046875 C-20.46766741 37.43862229 -20.94408258 35.54900741 -21.34375 31.625 C-20.91744067 27.12937437 -19.78532584 26.00825016 -16.5 23 C-15.5925 22.15050781 -14.685 21.30101563 -13.75 20.42578125 C-11.35742023 18.3152812 -8.93823707 16.24476253 -6.5 14.1875 C-1.68969272 10.0450221 -0.8641881 6.19334808 0 0 Z " fill="#B5AFAF" transform="translate(106,32)"/>
<path d="M0 0 C0.50144531 0.28101563 1.00289062 0.56203125 1.51953125 0.8515625 C4.80916951 2.37463911 8.2141902 3.36924721 11.6875 4.375 C12.43281982 4.59124023 13.17813965 4.80748047 13.94604492 5.03027344 C19.21071991 6.53462408 24.49366299 7.94998875 29.8125 9.25 C30.77772583 9.49435791 30.77772583 9.49435791 31.76245117 9.74365234 C42.68295144 12.323989 54.0105773 12.17240654 65.16796875 12.203125 C65.87597437 12.20595238 66.58397999 12.20877975 67.31344032 12.21169281 C71.07053607 12.22657858 74.82759456 12.2358713 78.5847168 12.24023438 C81.63008799 12.24459032 84.67517128 12.25838464 87.72045898 12.28125 C105.64427862 12.41342684 123.04600886 12.01131345 140.80342102 9.15789795 C143.11028393 8.9920724 144.80419274 9.31393879 147 10 C142.39742316 13.06838456 137.79172238 13.34713704 132.375 14 C131.38306641 14.12375 131.38306641 14.12375 130.37109375 14.25 C129.01900921 14.416091 127.66630295 14.57719986 126.3130188 14.73321533 C124.84255117 14.90281976 123.37270089 15.07793636 121.90377808 15.26043701 C114.39406299 16.11823233 106.91040479 16.18195524 99.359375 16.203125 C98.32209637 16.20736607 98.32209637 16.20736607 97.26386261 16.21169281 C93.59452448 16.22660016 89.92522472 16.23587943 86.25585938 16.24023438 C83.27331129 16.24459317 80.29105669 16.25839525 77.30859375 16.28125 C61.49643247 16.4001853 46.05377071 16.30131284 30.40722656 13.64746094 C26.2202506 12.95181053 22.23984616 12.88475382 18 13 C18 12.34 18 11.68 18 11 C17.35933594 10.91363281 16.71867187 10.82726562 16.05859375 10.73828125 C9.76521434 9.71595881 5.78346266 8.27458365 1 4 C0.31640625 1.8359375 0.31640625 1.8359375 0 0 Z " fill="#606060" transform="translate(19,177)"/>
<path d="M0 0 C-3.75 2 -3.75 2 -6 2 C-6 2.99 -6 3.98 -6 5 C21.69836042 8.33580907 21.69836042 8.33580907 48 2 C48.66 1.67 49.32 1.34 50 1 C49.34 2.32 48.68 3.64 48 5 C50.475 5.99 50.475 5.99 53 7 C47.07053856 13.52240758 38.44582614 13.71522675 30.12402344 14.15039062 C16.19039541 14.65800659 3.35485192 14.1664162 -10 10 C-10 9.01 -10 8.02 -10 7 C-10.99 6.67 -11.98 6.34 -13 6 C-11.9958588 3.2614331 -11.33822766 2.18790425 -8.75 0.75 C-5.72159739 -0.07592799 -3.1250237 -0.14534994 0 0 Z " fill="#A1A8AF" transform="translate(79,108)"/>
<path d="M0 0 C0.66 0 1.32 0 2 0 C2.33 0.66 2.66 1.32 3 2 C12.9 2 22.8 2 33 2 C33.66 3.32 34.32 4.64 35 6 C34.21625 6.433125 33.4325 6.86625 32.625 7.3125 C29.78301625 8.89220247 29.78301625 8.89220247 28 12 C28.99 12.33 29.98 12.66 31 13 C30.67 13.66 30.34 14.32 30 15 C22.04823906 17.34642126 12.74931281 18.78399781 4.8125 15.6875 C2 14 2 14 1 11 C1 10.01 1 9.02 1 8 C0.34 7.34 -0.32 6.68 -1 6 C-1.1875 3.4375 -1.1875 3.4375 -1 1 C-0.67 0.67 -0.34 0.34 0 0 Z " fill="#B6BABF" transform="translate(82,92)"/>
<path d="M0 0 C0.33 0 0.66 0 1 0 C1.13535156 0.556875 1.27070312 1.11375 1.41015625 1.6875 C3.2395989 8.17270986 6.27977959 12.25391536 11 17 C10.34 15.906875 9.68 14.81375 9 13.6875 C7.41535071 11.06292462 7 10.1743622 7 7 C9.5 5.3125 9.5 5.3125 12 4 C12.48828125 5.98567708 12.9765625 7.97135417 13.46484375 9.95703125 C13.91010705 11.65683202 14.44433985 13.33301954 15 15 C15.99 15 16.98 15 18 15 C18 16.65 18 18.3 18 20 C19.65 18.35 21.3 16.7 23 15 C23 15.99 23 16.98 23 18 C21.68 19.32 20.36 20.64 19 22 C23.95 22 28.9 22 34 22 C33 24 33 24 30.578125 24.8515625 C17.68006371 27.84899928 4.0754134 28.20592008 -9 26 C-9.33 24.68 -9.66 23.36 -10 22 C-6.04 20.68 -2.08 19.36 2 18 C1.814375 15.89625 1.814375 15.89625 1.625 13.75 C1.55539063 12.96109375 1.48578125 12.1721875 1.4140625 11.359375 C1.11009956 8.96708009 1.11009956 8.96708009 -0.0625 6.875 C-1.3487352 4.30252959 -0.75021836 2.7007861 0 0 Z " fill="#D0CFD1" transform="translate(84,62)"/>
<path d="M0 0 C1.88508162 1.82092963 2.91706652 3.30591325 3.23144531 5.93701172 C3.25928763 8.27628198 3.21137797 10.59966142 3.125 12.9375 C2.66546452 21.89815345 2.66546452 21.89815345 6 30 C6.43738696 31.71444889 6.80848688 33.44667784 7.125 35.1875 C7.29257813 36.08855469 7.46015625 36.98960937 7.6328125 37.91796875 C7.75398437 38.60503906 7.87515625 39.29210937 8 40 C8.66 40 9.32 40 10 40 C10.66 41.98 11.32 43.96 12 46 C12.66 46 13.32 46 14 46 C14.33 46.66 14.66 47.32 15 48 C31.36783308 57.44298062 51.41740246 59.3627839 70 59 C70 59.66 70 60.32 70 61 C71.71896484 60.51104248 71.71896484 60.51104248 73.47265625 60.01220703 C77.85761964 58.92017972 81.93756349 58.74055465 86.4375 58.8046875 C87.58581299 58.80893234 87.58581299 58.80893234 88.75732422 58.81326294 C91.17171724 58.82434352 93.58572154 58.84942399 96 58.875 C97.64973418 58.88504552 99.29947424 58.8941686 100.94921875 58.90234375 C104.96629268 58.92424288 108.98308073 58.95868675 113 59 C113 59.99 113 60.98 113 62 C105.30353385 62.07733115 97.60717106 62.12912429 89.91040039 62.16479492 C87.30294045 62.17969652 84.69550471 62.20002472 82.08813477 62.22631836 C26.28758434 62.77411972 26.28758434 62.77411972 10 50 C-0.72997264 36.20766044 -0.19924767 16.60397265 0 0 Z " fill="#BFBFBF" transform="translate(7,126)"/>
<path d="M0 0 C0.33 0 0.66 0 1 0 C2.12783807 13.03279542 -1.63071119 25.36857268 -9 36 C-10.00962895 37.66085134 -11.01209696 39.32613461 -12 41 C-12.99 40.505 -12.99 40.505 -14 40 C-13.505 39.01 -13.505 39.01 -13 38 C-14.46015291 38.28241641 -15.91809793 38.57626614 -17.375 38.875 C-18.59316406 39.11863281 -18.59316406 39.11863281 -19.8359375 39.3671875 C-22.18673923 39.86658932 -22.18673923 39.86658932 -24 42 C-26.4694209 42.61588182 -28.87353627 43.1256725 -31.375 43.5625 C-32.45865845 43.75646362 -32.45865845 43.75646362 -33.56420898 43.9543457 C-44.72506156 45.88553275 -55.70418984 46.13888291 -67 46 C-67 45.67 -67 45.34 -67 45 C-64.54186454 44.68587103 -62.08356057 44.37327387 -59.625 44.0625 C-58.52442261 43.92328125 -58.52442261 43.92328125 -57.40161133 43.78125 C-53.50044298 43.29344293 -49.6040065 42.84912132 -45.6875 42.5 C-37.72751105 41.72276202 -30.21469724 40.60734862 -23 37 C-22.11054688 36.56558594 -21.22109375 36.13117188 -20.3046875 35.68359375 C-12.69766096 31.79893886 -7.83603747 28.32587707 -5 20 C-4.24351911 16.37752426 -3.70662913 12.71922468 -3.14453125 9.0625 C-2.55320308 5.43823058 -2.06514938 3.09772407 0 0 Z " fill="#BABABA" transform="translate(191,141)"/>
<path d="M0 0 C1.58179615 -0.10867302 3.16577153 -0.18589827 4.75 -0.25 C5.63171875 -0.29640625 6.5134375 -0.3428125 7.421875 -0.390625 C10 0 10 0 12.3125 1.5 C14.6760389 5.00153911 14.43663294 8.18714451 14.25 12.25 C14.23195312 12.99507812 14.21390625 13.74015625 14.1953125 14.5078125 C14.14835649 16.33909701 14.07661652 18.16971649 14 20 C10.7574504 20.95278709 7.74999847 21.19541781 4.375 21.25 C2.93253906 21.28867188 2.93253906 21.28867188 1.4609375 21.328125 C0.24277344 21.16570312 0.24277344 21.16570312 -1 21 C-3.16551116 17.75173326 -3.55156953 16.76905843 -3 13 C-0.66296171 9.63466486 0.68684437 9.06263113 4.75 8.25 C6.35875 8.12625 6.35875 8.12625 8 8 C8 6.68 8 5.36 8 4 C5.03 4 2.06 4 -1 4 C-0.67 2.68 -0.34 1.36 0 0 Z " fill="#E93434" transform="translate(115,135)"/>
<path d="M0 0 C1.58179615 -0.10867302 3.16577153 -0.18589827 4.75 -0.25 C5.63171875 -0.29640625 6.5134375 -0.3428125 7.421875 -0.390625 C10 0 10 0 12.3125 1.5 C14.6760389 5.00153911 14.43663294 8.18714451 14.25 12.25 C14.23195313 12.99507812 14.21390625 13.74015625 14.1953125 14.5078125 C14.14835649 16.33909701 14.07661652 18.16971649 14 20 C10.7574504 20.95278709 7.74999847 21.19541781 4.375 21.25 C2.93253906 21.28867188 2.93253906 21.28867188 1.4609375 21.328125 C0.24277344 21.16570312 0.24277344 21.16570312 -1 21 C-3.16551116 17.75173326 -3.55156953 16.76905843 -3 13 C-0.66296171 9.63466486 0.68684437 9.06263113 4.75 8.25 C6.35875 8.12625 6.35875 8.12625 8 8 C8 6.68 8 5.36 8 4 C5.03 4 2.06 4 -1 4 C-0.67 2.68 -0.34 1.36 0 0 Z " fill="#E82D2D" transform="translate(76,135)"/>
<path d="M0 0 C0.66 0.33 1.32 0.66 2 1 C2.61574074 7.89629624 1.4173047 11.67297437 -3 17 C-5.37631012 19.46081617 -7.76615115 21.88362013 -10.25317383 24.23168945 C-13.67221583 27.4859867 -14.81777541 29.45109096 -15.375 34.1875 C-14.93889424 38.62124189 -13.55888358 40.76565924 -10.99609375 44.30078125 C-10.66738281 44.86152344 -10.33867188 45.42226562 -10 46 C-10.33 46.66 -10.66 47.32 -11 48 C-12.48488441 46.40112446 -13.96273145 44.79571095 -15.4375 43.1875 C-16.26121094 42.29417969 -17.08492188 41.40085938 -17.93359375 40.48046875 C-20.46766741 37.43862229 -20.94408258 35.54900741 -21.34375 31.625 C-20.91744067 27.12937437 -19.78532584 26.00825016 -16.5 23 C-15.5925 22.15050781 -14.685 21.30101563 -13.75 20.42578125 C-11.35742023 18.3152812 -8.93823707 16.24476253 -6.5 14.1875 C-1.68969272 10.0450221 -0.8641881 6.19334808 0 0 Z " fill="#EB3E3E" transform="translate(106,32)"/>
<path d="M0 0 C2.0625 0.4375 2.0625 0.4375 4 1 C2.85210257 8.09883934 0.88549626 14.41658619 -2 21 C-3.98 21 -5.96 21 -8 21 C-8.83830973 18.23058394 -9.67082034 15.45964931 -10.5 12.6875 C-10.73847656 11.90181641 -10.97695312 11.11613281 -11.22265625 10.30664062 C-11.44824219 9.54931641 -11.67382812 8.79199219 -11.90625 8.01171875 C-12.11572266 7.31522217 -12.32519531 6.61872559 -12.54101562 5.90112305 C-13 4 -13 4 -13 1 C-10.525 1.495 -10.525 1.495 -8 2 C-7.79503906 2.71027344 -7.59007813 3.42054688 -7.37890625 4.15234375 C-7.10949219 5.07144531 -6.84007813 5.99054688 -6.5625 6.9375 C-6.16224609 8.31228516 -6.16224609 8.31228516 -5.75390625 9.71484375 C-5.20973949 11.9402493 -5.20973949 11.9402493 -4 13 C-3.79503906 12.14535156 -3.59007813 11.29070312 -3.37890625 10.41015625 C-3.10949219 9.30542969 -2.84007813 8.20070312 -2.5625 7.0625 C-2.29566406 5.96035156 -2.02882813 4.85820312 -1.75390625 3.72265625 C-1 1 -1 1 0 0 Z " fill="#F12727" transform="translate(106,135)"/>
<path d="M0 0 C1.65 0 3.3 0 5 0 C5.12426099 4.01993847 5.21464411 8.03912279 5.2746582 12.06054688 C5.2996928 13.42630503 5.33373218 14.79193067 5.37719727 16.15722656 C5.77457844 28.96692554 5.77457844 28.96692554 2.66796875 32.9296875 C0 35 0 35 -3 35 C-2.125 31.125 -2.125 31.125 -1 30 C-0.84126045 27.78312006 -0.74866163 25.56144702 -0.68359375 23.33984375 C-0.66281265 22.67537735 -0.64203156 22.01091095 -0.62062073 21.3263092 C-0.55506342 19.19681457 -0.49621215 17.06719332 -0.4375 14.9375 C-0.39432061 13.49673153 -0.35070651 12.05597601 -0.30664062 10.61523438 C-0.19937607 7.0769596 -0.09812629 3.53854131 0 0 Z " fill="#EE3B3B" transform="translate(65,128)"/>
<path d="M0 0 C-3.75 2 -3.75 2 -6 2 C-6 2.99 -6 3.98 -6 5 C21.69836042 8.33580907 21.69836042 8.33580907 48 2 C48.66 1.67 49.32 1.34 50 1 C49.00724919 3.66013338 48.47801521 4.77366373 45.86328125 6.01171875 C45.02152344 6.23472656 44.17976563 6.45773438 43.3125 6.6875 C42.48363281 6.91824219 41.65476563 7.14898437 40.80078125 7.38671875 C34.85013499 8.6897194 29.0202657 9.15836467 22.94140625 9.16796875 C22.1934227 9.17129715 21.44543915 9.17462555 20.67478943 9.17805481 C19.10245371 9.18308728 17.53010744 9.18546428 15.95776367 9.18530273 C13.57257272 9.18749076 11.18784387 9.20568968 8.80273438 9.22460938 C7.26562656 9.22754391 5.72851658 9.22952831 4.19140625 9.23046875 C3.13790733 9.24124702 3.13790733 9.24124702 2.06312561 9.25224304 C-2.91144014 9.22965373 -7.21071502 8.35328225 -12 7 C-12 5.68 -12 4.36 -12 3 C-7.77050005 0.58314288 -4.87664009 -0.34833144 0 0 Z " fill="#4494D9" transform="translate(79,108)"/>
<path d="M0 0 C0.66 0.33 1.32 0.66 2 1 C1.30132812 1.47050781 0.60265625 1.94101562 -0.1171875 2.42578125 C-1.48230469 3.35970703 -1.48230469 3.35970703 -2.875 4.3125 C-3.77992187 4.92738281 -4.68484375 5.54226562 -5.6171875 6.17578125 C-8.34564646 8.26461786 -9.8153886 9.86156306 -10.375 13.3125 C-10.18212726 16.21658205 -10.18212726 16.21658205 -7.9375 18.875 C-6 22 -6 22 -5.9375 25.625 C-7.18045133 29.57319833 -8.56645539 30.79900986 -12 33 C-11.9175 31.80375 -11.835 30.6075 -11.75 29.375 C-11.718231 24.85585954 -13.47118821 22.71419232 -16 19 C-16.63060256 15.53168591 -16.72082662 13.31494543 -15 10.17578125 C-11.15650775 5.14211669 -5.95324475 2.05579675 0 0 Z " fill="#F23434" transform="translate(113,50)"/>
<path d="M0 0 C-0.99 0.66 -1.98 1.32 -3 2 C-4.01868662 2.98095748 -5.02351983 3.97702078 -6 5 C-1.8555474 4.88093074 2.28870716 4.75663609 6.43286133 4.62768555 C7.84004557 4.58461342 9.24727282 4.54292136 10.65454102 4.50268555 C12.68779408 4.4443043 14.72083617 4.38081315 16.75390625 4.31640625 C17.97408447 4.27974854 19.1942627 4.24309082 20.45141602 4.20532227 C24.01401411 3.99918914 27.47640588 3.55531685 31 3 C30 5 30 5 27.578125 5.8515625 C14.68006371 8.84899928 1.0754134 9.20592008 -12 7 C-12.33 5.68 -12.66 4.36 -13 3 C-4.57142857 -0.42857143 -4.57142857 -0.42857143 0 0 Z " fill="#367ABF" transform="translate(87,81)"/>
<path d="M0 0 C0.804375 0.185625 1.60875 0.37125 2.4375 0.5625 C3.283125 0.706875 4.12875 0.85125 5 1 C5.33 0.67 5.66 0.34 6 0 C7.66617115 -0.04063832 9.33388095 -0.042721 11 0 C9.68 0.33 8.36 0.66 7 1 C7.3609375 2.10859375 7.721875 3.2171875 8.09375 4.359375 C8.56280277 5.82281966 9.03153607 7.28636674 9.5 8.75 C9.73847656 9.47960937 9.97695312 10.20921875 10.22265625 10.9609375 C10.44824219 11.66992188 10.67382812 12.37890625 10.90625 13.109375 C11.11572266 13.75874023 11.32519531 14.40810547 11.54101562 15.07714844 C12 17 12 17 12 21 C13.65 21 15.3 21 17 21 C17 21.33 17 21.66 17 22 C10.07 21.505 10.07 21.505 3 21 C3.03480469 19.81921875 3.06960937 18.6384375 3.10546875 17.421875 C3.13361232 15.86459758 3.16091187 14.30730475 3.1875 12.75 C3.21263672 11.97269531 3.23777344 11.19539062 3.26367188 10.39453125 C3.34061028 5.69859408 3.34061028 5.69859408 1.48828125 1.453125 C0.99714844 0.97359375 0.50601563 0.4940625 0 0 Z " fill="#AFAEAE" transform="translate(86,135)"/>
<path d="M0 0 C1.44583717 0.00212242 1.44583717 0.00212242 2.92088318 0.00428772 C5.96681973 0.00983683 9.01267982 0.02237956 12.05859375 0.03515625 C14.13736872 0.04017784 16.21614486 0.04473959 18.29492188 0.04882812 C23.36200814 0.05978954 28.42903803 0.07701845 33.49609375 0.09765625 C33.16609375 0.75765625 32.83609375 1.41765625 32.49609375 2.09765625 C24.41453293 3.8068646 15.71524936 3.25283464 7.48876953 3.22802734 C5.36744095 3.22264699 3.24632237 3.22801641 1.125 3.234375 C-5.82247433 3.2374208 -12.61733581 3.06392337 -19.50390625 2.09765625 C-19.50390625 1.76765625 -19.50390625 1.43765625 -19.50390625 1.09765625 C-12.95845781 0.25655594 -6.59483182 -0.03715939 0 0 Z " fill="#F9F9F9" transform="translate(93.50390625,6.90234375)"/>
<path d="M0 0 C0.54366211 0.15847412 1.08732422 0.31694824 1.64746094 0.48022461 C4.34402563 1.07600981 6.88069895 1.21364305 9.640625 1.31640625 C10.71054688 1.35830078 11.78046875 1.40019531 12.8828125 1.44335938 C13.99398437 1.48267578 15.10515625 1.52199219 16.25 1.5625 C17.93996094 1.62727539 17.93996094 1.62727539 19.6640625 1.69335938 C22.44258954 1.79932015 25.22120391 1.90139142 28 2 C28 2.99 28 3.98 28 5 C18.45405861 7.54558437 8.9533733 8.88365816 0 4 C0 2.68 0 1.36 0 0 Z " fill="#226DBC" transform="translate(84,102)"/>
<path d="M0 0 C0.33 0 0.66 0 1 0 C1.55546355 6.41868997 0.70766623 12.22757882 -0.8125 18.4375 C-1.0604834 19.48454102 -1.0604834 19.48454102 -1.31347656 20.55273438 C-2.24826523 24.16865891 -3.01645234 26.67436285 -6 29 C-6.845625 29.845625 -7.69125 30.69125 -8.5625 31.5625 C-13.25 36.25 -13.25 36.25 -17.625 37.125 C-18.85089844 37.37636719 -18.85089844 37.37636719 -20.1015625 37.6328125 C-20.72804687 37.75398438 -21.35453125 37.87515625 -22 38 C-19.38454895 35.84609913 -16.80412485 33.87607898 -13.9375 32.0625 C-8.79067147 28.44876933 -5.88175559 24.21794234 -4.59277344 18.05200195 C-4.0732855 15.06087719 -3.60576954 12.06308314 -3.14453125 9.0625 C-2.55320308 5.43823058 -2.06514938 3.09772407 0 0 Z " fill="#C3C3C3" transform="translate(191,141)"/>
<path d="M0 0 C0.66 0 1.32 0 2 0 C2.33 0.66 2.66 1.32 3 2 C12.9 2 22.8 2 33 2 C33 2.99 33 3.98 33 5 C26.3733391 5.9920151 19.88275485 6.18325444 13.1875 6.1875 C12.15173828 6.19974609 11.11597656 6.21199219 10.04882812 6.22460938 C8.56092773 6.22750977 8.56092773 6.22750977 7.04296875 6.23046875 C5.69755005 6.23663208 5.69755005 6.23663208 4.32495117 6.24291992 C2 6 2 6 -1 4 C-0.67 2.68 -0.34 1.36 0 0 Z " fill="#3485CE" transform="translate(82,92)"/>
<path d="M0 0 C0.66 0.33 1.32 0.66 2 1 C-7.91510028 7.91751182 -19.74739168 7.18223346 -31.375 7.25 C-33.06943237 7.26401855 -33.06943237 7.26401855 -34.7980957 7.27832031 C-40.58408646 7.25597892 -45.54526818 6.98068072 -51 5 C-47.61875915 3.96187753 -44.60724281 3.92564735 -41.08203125 4.0078125 C-39.91720215 4.02658447 -38.75237305 4.04535645 -37.55224609 4.06469727 C-36.31812988 4.08459717 -35.08401367 4.10449707 -33.8125 4.125 C-16.50937447 4.59565483 -16.50937447 4.59565483 0 0 Z " fill="#4381BB" transform="translate(130,115)"/>
<path d="M0 0 C1.88508162 1.82092963 2.91706652 3.30591325 3.23144531 5.93701172 C3.25928763 8.27628198 3.21137797 10.59966142 3.125 12.9375 C2.66546452 21.89815345 2.66546452 21.89815345 6 30 C6.43738696 31.71444889 6.80848688 33.44667784 7.125 35.1875 C7.29257813 36.08855469 7.46015625 36.98960937 7.6328125 37.91796875 C7.75398437 38.60503906 7.87515625 39.29210937 8 40 C8.66 40 9.32 40 10 40 C10.66 41.98 11.32 43.96 12 46 C9.43981429 45.00377711 8.2227435 44.37706252 6.8046875 41.9765625 C6.49789063 41.20054687 6.19109375 40.42453125 5.875 39.625 C4.55963855 36.32659663 4.55963855 36.32659663 2.953125 33.16796875 C-1.27065559 23.56059896 -0.2666302 10.30970097 0 0 Z " fill="#CECECE" transform="translate(7,126)"/>
<path d="M0 0 C-3.72840797 4.38989971 -8.51282369 4.45376525 -14 5 C-29.05729052 5.70164448 -29.05729052 5.70164448 -36 4 C-36 3.34 -36 2.68 -36 2 C-35.00987915 1.96241577 -35.00987915 1.96241577 -33.99975586 1.92407227 C-30.97884631 1.80728248 -27.95818578 1.68493554 -24.9375 1.5625 C-23.37999023 1.50352539 -23.37999023 1.50352539 -21.79101562 1.44335938 C-14.51052653 1.14289475 -7.26431434 -0.1771784 0 0 Z " fill="#C0BEBD" transform="translate(125,120)"/>
<path d="M0 0 C0 0.99 0 1.98 0 3 C-4.89333514 7.75352557 -9.21438666 8.14199534 -15.8125 8.0625 C-17.27623047 8.04896484 -17.27623047 8.04896484 -18.76953125 8.03515625 C-19.87361328 8.01775391 -19.87361328 8.01775391 -21 8 C-21 7.01 -21 6.02 -21 5 C-19.95199219 4.81824219 -19.95199219 4.81824219 -18.8828125 4.6328125 C-17.51769531 4.38144531 -17.51769531 4.38144531 -16.125 4.125 C-14.76761719 3.88136719 -14.76761719 3.88136719 -13.3828125 3.6328125 C-10.83494012 3.16955297 -10.83494012 3.16955297 -9 1 C-5.97380078 -0.04351697 -3.18208557 -0.08839127 0 0 Z " fill="#7E7E7E" transform="translate(178,179)"/>
<path d="M0 0 C0.66 0.33 1.32 0.66 2 1 C2.82523928 7.60191421 2.82523928 7.60191421 0.86328125 10.92578125 C-3.30609781 15.80183473 -8.21041065 20.06007589 -12.99902344 24.31958008 C-15.89753789 26.83728343 -15.89753789 26.83728343 -18 30 C-18.66 30 -19.32 30 -20 30 C-19.42667654 26.35818477 -18.06870972 24.71572695 -15.4375 22.1875 C-14.72207031 21.49398437 -14.00664063 20.80046875 -13.26953125 20.0859375 C-11.10342943 18.0950625 -8.88037551 16.20091313 -6.625 14.3125 C-1.75126206 10.09685975 -0.87832965 6.29469584 0 0 Z " fill="#F84445" transform="translate(106,32)"/>
<path d="M0 0 C2 3 2 3 2.5 5.625 C2.665 6.40875 2.83 7.1925 3 8 C3.66 8.33 4.32 8.66 5 9 C5.66 9.66 6.32 10.32 7 11 C7.99 11.33 8.98 11.66 10 12 C10.12375 12.61875 10.2475 13.2375 10.375 13.875 C10.82019895 16.20687323 10.82019895 16.20687323 13.14453125 17.49609375 C16.15102906 19.07954335 19.07703088 20.15641643 22.3125 21.1875 C23.38113281 21.53167969 24.44976562 21.87585938 25.55078125 22.23046875 C26.76314453 22.61138672 26.76314453 22.61138672 28 23 C22.47452403 25.04892052 17.17986894 22.04688369 12 20 C5.55955951 17.01831459 2.56795121 11.41987801 0 5 C-0.1640625 2.15234375 -0.1640625 2.15234375 0 0 Z " fill="#AAAAAB" transform="translate(11,160)"/>
<path d="M0 0 C7.36603774 0.60377358 7.36603774 0.60377358 10 2.25 C11.45041114 4.78821949 11.54935405 6.11589124 11 9 C7.6206429 13.19859518 3.77333607 15.65836344 -1 18 C-1.66 17.67 -2.32 17.34 -3 17 C-2.27683594 16.51080078 -2.27683594 16.51080078 -1.5390625 16.01171875 C-0.59160156 15.35623047 -0.59160156 15.35623047 0.375 14.6875 C1.00148438 14.25824219 1.62796875 13.82898438 2.2734375 13.38671875 C4.26378845 11.93079661 4.26378845 11.93079661 6 9 C6.16713569 6.37468476 6.16713569 6.37468476 6 4 C3.69 3.34 1.38 2.68 -1 2 C-0.67 1.34 -0.34 0.68 0 0 Z " fill="#4A96D6" transform="translate(122,80)"/>
<path d="M0 0 C22.44 0 44.88 0 68 0 C68 0.33 68 0.66 68 1 C45.56 1 23.12 1 0 1 C0 0.67 0 0.34 0 0 Z " fill="#888888" transform="translate(66,194)"/>
<path d="M0 0 C22.44 0 44.88 0 68 0 C68 0.33 68 0.66 68 1 C45.56 1 23.12 1 0 1 C0 0.67 0 0.34 0 0 Z " fill="#F3F3F3" transform="translate(66,5)"/>
<path d="M0 0 C0 0.66 0 1.32 0 2 C-3.81875776 4.39805896 -7.92907779 4.67567846 -12.3125 5.125 C-13.49561768 5.25237549 -13.49561768 5.25237549 -14.70263672 5.38232422 C-22.15206352 6.12502535 -29.51949807 6.1985974 -37 6 C-37 5.67 -37 5.34 -37 5 C-34.54186477 4.68587106 -32.08354743 4.37337599 -29.625 4.0625 C-28.52768555 3.92328125 -28.52768555 3.92328125 -27.40820312 3.78125 C-23.4423564 3.28420654 -19.48269551 2.84333582 -15.5 2.5 C-10.2526247 2.01331258 -5.22626021 0 0 0 Z " fill="#C1C1C1" transform="translate(161,181)"/>
<path d="M0 0 C2.97 0.33 5.94 0.66 9 1 C8.67 2.32 8.34 3.64 8 5 C20.53172217 5.14236956 20.53172217 5.14236956 33 4 C33.495 4.99 33.495 4.99 34 6 C25.02243049 7.3300103 16.05168034 7.08788039 7 7 C6.67 6.01 6.34 5.02 6 4 C3.66924071 4.95865509 3.66924071 4.95865509 2 8 C2.33 5.69 2.66 3.38 3 1 C2.01 0.67 1.02 0.34 0 0 Z " fill="#B7BFC6" transform="translate(78,88)"/>
<path d="M0 0 C1.18851563 0.10183594 2.37703125 0.20367187 3.6015625 0.30859375 C4.51679687 0.39238281 5.43203125 0.47617188 6.375 0.5625 C6.045 1.2225 5.715 1.8825 5.375 2.5625 C4.78332031 2.45550781 4.19164063 2.34851563 3.58203125 2.23828125 C-1.64674415 1.44500864 -4.16086674 1.41134711 -8.625 4.5625 C-9.615 4.2325 -10.605 3.9025 -11.625 3.5625 C-12.594375 3.913125 -13.56375 4.26375 -14.5625 4.625 C-17.625 5.5625 -17.625 5.5625 -20 4.6875 C-20.53625 4.31625 -21.0725 3.945 -21.625 3.5625 C-21.295 2.5725 -20.965 1.5825 -20.625 0.5625 C-20.625 1.2225 -20.625 1.8825 -20.625 2.5625 C-18.666036 2.25397815 -16.70784287 1.9405582 -14.75 1.625 C-13.11417969 1.36396484 -13.11417969 1.36396484 -11.4453125 1.09765625 C-3.86386284 -0.34092907 -3.86386284 -0.34092907 0 0 Z " fill="#BEBEBE" transform="translate(95.625,156.4375)"/>
<path d="M0 0 C1.32 0.33 2.64 0.66 4 1 C3.34 4.3 2.68 7.6 2 11 C1.34 10.67 0.68 10.34 0 10 C-0.66 11.98 -1.32 13.96 -2 16 C-3.32 16 -4.64 16 -6 16 C-5.67 14.68 -5.34 13.36 -5 12 C-4.67 12.33 -4.34 12.66 -4 13 C-3.79503906 12.14535156 -3.59007813 11.29070312 -3.37890625 10.41015625 C-3.10949219 9.30542969 -2.84007813 8.20070312 -2.5625 7.0625 C-2.29566406 5.96035156 -2.02882813 4.85820312 -1.75390625 3.72265625 C-1 1 -1 1 0 0 Z " fill="#ED4B4B" transform="translate(106,135)"/>
<path d="M0 0 C-0.99 0.66 -1.98 1.32 -3 2 C-3.99 2.99 -4.98 3.98 -6 5 C2.58 5 11.16 5 20 5 C20 5.33 20 5.66 20 6 C9.11 6 -1.78 6 -13 6 C-13 5.01 -13 4.02 -13 3 C-4.57142857 -0.42857143 -4.57142857 -0.42857143 0 0 Z " fill="#5BA5DE" transform="translate(87,81)"/>
<path d="M0 0 C0.83225098 0.13712402 1.66450195 0.27424805 2.52197266 0.41552734 C11.49912512 1.80765275 20.28968609 2.40295567 29.375 2.625 C30.70835439 2.66333719 32.0416882 2.70239688 33.375 2.7421875 C36.58320577 2.83517897 39.79142401 2.92102164 43 3 C43 3.33 43 3.66 43 4 C38.16196154 4.04975831 33.32407491 4.08588788 28.48583984 4.10986328 C26.84290977 4.11986737 25.19999726 4.13347494 23.55712891 4.15087891 C21.18387495 4.17537515 18.81085815 4.18653917 16.4375 4.1953125 C15.71320801 4.20563507 14.98891602 4.21595764 14.24267578 4.22659302 C9.19283085 4.2276826 4.85989233 3.38239063 0 2 C0 1.34 0 0.68 0 0 Z " fill="#205FA6" transform="translate(67,113)"/>
<path d="M0 0 C0 0.33 0 0.66 0 1 C-1.98 1.33 -3.96 1.66 -6 2 C-6 4.31 -6 6.62 -6 9 C-4.68 9.33 -3.36 9.66 -2 10 C-3.27875 10.061875 -4.5575 10.12375 -5.875 10.1875 C-6.59429687 10.22230469 -7.31359375 10.25710937 -8.0546875 10.29296875 C-8.69664063 10.19628906 -9.33859375 10.09960938 -10 10 C-12.1519437 6.77208445 -12.20086443 5.71599191 -12 2 C-7.8794254 0.00214565 -4.54805635 -0.17835515 0 0 Z " fill="#D62C2C" transform="translate(124,146)"/>
<path d="M0 0 C0.4375 2.375 0.4375 2.375 0 5 C-2 7.3125 -2 7.3125 -4 9 C-4.66 8.67 -5.32 8.34 -6 8 C-6 6.02 -6 4.04 -6 2 C-6.66 1.67 -7.32 1.34 -8 1 C-7 -1 -7 -1 -5.125 -1.75 C-3 -2 -3 -2 0 0 Z " fill="#C6C8CA" transform="translate(129,84)"/>
<path d="M0 0 C2 3 2 3 1.625 5.6875 C1.41875 6.450625 1.2125 7.21375 1 8 C2.32 8 3.64 8 5 8 C4.67 10.97 4.34 13.94 4 17 C3.01 17.33 2.02 17.66 1 18 C0 17 0 17 -0.09765625 13.18359375 C-0.09098089 11.60153318 -0.07901875 10.01948841 -0.0625 8.4375 C-0.05798828 7.63119141 -0.05347656 6.82488281 -0.04882812 5.99414062 C-0.03700518 3.99606244 -0.01906914 1.99802217 0 0 Z " fill="#CCC5C5" transform="translate(70,129)"/>
<path d="M0 0 C0.54366211 0.15847412 1.08732422 0.31694824 1.64746094 0.48022461 C4.34402563 1.07600981 6.88069895 1.21364305 9.640625 1.31640625 C10.71054688 1.35830078 11.78046875 1.40019531 12.8828125 1.44335938 C13.99398437 1.48267578 15.10515625 1.52199219 16.25 1.5625 C17.93996094 1.62727539 17.93996094 1.62727539 19.6640625 1.69335938 C22.44258954 1.79932015 25.22120391 1.90139142 28 2 C28 2.33 28 2.66 28 3 C22.37272277 3.80207798 16.93054735 4.15526935 11.25 4.125 C10.50878906 4.12886719 9.76757812 4.13273437 9.00390625 4.13671875 C5.49756967 4.13042371 2.37199035 3.94165121 -1 3 C-0.67 2.01 -0.34 1.02 0 0 Z " fill="#49A2E3" transform="translate(84,102)"/>
<path d="M0 0 C0.48828125 1.98567708 0.9765625 3.97135417 1.46484375 5.95703125 C1.91010705 7.65683202 2.44433985 9.33301954 3 11 C3.99 11 4.98 11 6 11 C5.67 12.32 5.34 13.64 5 15 C3 13.6875 3 13.6875 1 12 C1 11.01 1 10.02 1 9 C-0.32 9.33 -1.64 9.66 -3 10 C-4.4606285 7.35261084 -5 6.10551666 -5 3 C-1.55555556 0 -1.55555556 0 0 0 Z " fill="#CBC8C8" transform="translate(96,66)"/>
<path d="M0 0 C0.99 0.33 1.98 0.66 3 1 C3 1.99 3 2.98 3 4 C1.42578125 5.17578125 1.42578125 5.17578125 -0.6875 6.3125 C-4.78098813 8.69733855 -7.1837254 11.215631 -10 15 C-10.33 14.01 -10.66 13.02 -11 12 C-8.09818106 6.94868555 -4.83208033 3.22138689 0 0 Z " fill="#F5F5F5" transform="translate(27,14)"/>
<path d="M0 0 C2.31 0 4.62 0 7 0 C7.38218767 1.65614657 7.71395102 3.32457024 8 5 C5.95301586 7.04698414 1.69588759 6.70045693 -1 7 C-0.67 4.69 -0.34 2.38 0 0 Z " fill="#B2A6A6" transform="translate(116,138)"/>
<path d="M0 0 C0.33 0 0.66 0 1 0 C1.34615998 5.65394631 0.43425238 9.03006806 -2 14 C-3.98 14 -5.96 14 -8 14 C-10.125 7.5 -10.125 7.5 -9 3 C-8.34 5.64 -7.68 8.28 -7 11 C-5.35 11 -3.7 11 -2 11 C-1.7834375 9.1128125 -1.7834375 9.1128125 -1.5625 7.1875 C-1.26251314 4.57332877 -0.84186703 2.52560108 0 0 Z " fill="#DF1414" transform="translate(106,142)"/>
<path d="M0 0 C-3.02153065 3.02153065 -5.93732828 2.96666651 -10.11328125 3.09765625 C-11.16902344 3.08605469 -12.22476563 3.07445313 -13.3125 3.0625 C-14.38113281 3.05347656 -15.44976562 3.04445313 -16.55078125 3.03515625 C-17.35902344 3.02355469 -18.16726562 3.01195313 -19 3 C-16.10378599 1.06919066 -13.93478261 0.21119714 -10.625 -0.75 C-9.22121094 -1.17539063 -9.22121094 -1.17539063 -7.7890625 -1.609375 C-4.54354824 -2.06392882 -2.8925885 -1.4515535 0 0 Z " fill="#CDCDCD" transform="translate(130,115)"/>
<path d="M0 0 C0.33 0 0.66 0 1 0 C1.09688221 5.44693314 1.12862175 10.63904667 0 16 C-0.66 16 -1.32 16 -2 16 C-2 16.66 -2 17.32 -2 18 C-2.66 18 -3.32 18 -4 18 C-2.51383399 3.77075099 -2.51383399 3.77075099 0 0 Z " fill="#D4D4D4" transform="translate(191,141)"/>
<path d="M0 0 C0.33 0.66 0.66 1.32 1 2 C-4.34388455 8.33480354 -10.08833812 14.19539034 -16 20 C-16.33 19.01 -16.66 18.02 -17 17 C-12.74546443 12.62580561 -8.37059526 8.5061194 -3.69921875 4.578125 C-1.77407483 2.91265024 -1.77407483 2.91265024 0 0 Z " fill="#E41212" transform="translate(105,43)"/>
<path d="M0 0 C1.33895632 1.66215268 2.67130142 3.32963607 4 5 C4.598125 5.680625 5.19625 6.36125 5.8125 7.0625 C7 9 7 9 6.9375 11.0625 C5.75043057 13.51577682 4.264488 14.53904 2 16 C2.06510417 14.01432292 2.13020833 12.02864583 2.1953125 10.04296875 C2.13254462 7.68640281 2.13254462 7.68640281 0 5 C-0.125 2.3125 -0.125 2.3125 0 0 Z " fill="#EE3131" transform="translate(99,67)"/>
<path d="M0 0 C0.99 0.495 0.99 0.495 2 1 C2 1.66 2 2.32 2 3 C2.75925781 2.90460938 3.51851563 2.80921875 4.30078125 2.7109375 C5.29464844 2.60007813 6.28851563 2.48921875 7.3125 2.375 C8.29863281 2.25898438 9.28476563 2.14296875 10.30078125 2.0234375 C13 2 13 2 16 4 C6.58997722 6.29612756 6.58997722 6.29612756 2 6 C2 5.34 2 4.68 2 4 C1.34 4 0.68 4 0 4 C0 2.68 0 1.36 0 0 Z " fill="#9B9191" transform="translate(73,153)"/>
<path d="M0 0 C1.0725 0.103125 2.145 0.20625 3.25 0.3125 C3.25 0.6425 3.25 0.9725 3.25 1.3125 C1.27 1.6425 -0.71 1.9725 -2.75 2.3125 C-3.08 4.6225 -3.41 6.9325 -3.75 9.3125 C-2.1 9.3125 -0.45 9.3125 1.25 9.3125 C1.25 9.6425 1.25 9.9725 1.25 10.3125 C-1.39 10.3125 -4.03 10.3125 -6.75 10.3125 C-7.5 8.125 -7.5 8.125 -7.75 5.3125 C-5.5878604 1.25848826 -4.64600217 0.38716685 0 0 Z " fill="#CE2020" transform="translate(81.75,145.6875)"/>
<path d="M0 0 C0.99 0.33 1.98 0.66 3 1 C2.21753906 1.69867188 1.43507813 2.39734375 0.62890625 3.1171875 C-0.39337172 4.0362998 -1.41549935 4.95557934 -2.4375 5.875 C-3.2119043 6.56529297 -3.2119043 6.56529297 -4.00195312 7.26953125 C-6.89487937 9.81793085 -6.89487937 9.81793085 -9 13 C-9.66 13 -10.32 13 -11 13 C-10.44200992 9.17991405 -8.80143338 7.45237612 -6.0625 4.8125 C-4.99708984 3.77029297 -4.99708984 3.77029297 -3.91015625 2.70703125 C-2 1 -2 1 0 0 Z " fill="#FB3636" transform="translate(97,49)"/>
<path d="M0 0 C1.4540625 0.0309375 1.4540625 0.0309375 2.9375 0.0625 C2.0625 4.9375 2.0625 4.9375 0.9375 6.0625 C-0.72867115 6.10313832 -2.39638095 6.105221 -4.0625 6.0625 C-4.105221 4.39638095 -4.10313832 2.72867115 -4.0625 1.0625 C-3.0625 0.0625 -3.0625 0.0625 0 0 Z " fill="#939292" transform="translate(121.0625,146.9375)"/>
<path d="M0 0 C1.4540625 0.0309375 1.4540625 0.0309375 2.9375 0.0625 C2.0625 4.9375 2.0625 4.9375 0.9375 6.0625 C-0.72867115 6.10313832 -2.39638095 6.105221 -4.0625 6.0625 C-4.105221 4.39638095 -4.10313832 2.72867115 -4.0625 1.0625 C-3.0625 0.0625 -3.0625 0.0625 0 0 Z " fill="#8B8A8A" transform="translate(82.0625,146.9375)"/>
<path d="M0 0 C0 0.99 0 1.98 0 3 C-9.405 3.495 -9.405 3.495 -19 4 C-12.89367892 0.94683946 -6.85129898 -0.35134867 0 0 Z " fill="#9B9B9B" transform="translate(157,185)"/>
<path d="M0 0 C0.33 0 0.66 0 1 0 C1 12.21 1 24.42 1 37 C0.67 37 0.34 37 0 37 C0 24.79 0 12.58 0 0 Z " fill="#E3E3E3" transform="translate(194,105)"/>
<path d="M0 0 C0.33 0 0.66 0 1 0 C1 12.21 1 24.42 1 37 C0.67 37 0.34 37 0 37 C0 24.79 0 12.58 0 0 Z " fill="#E3E3E3" transform="translate(5,105)"/>
<path d="M0 0 C0.33 0 0.66 0 1 0 C1 12.21 1 24.42 1 37 C0.67 37 0.34 37 0 37 C0 24.79 0 12.58 0 0 Z " fill="#EFEFEF" transform="translate(194,58)"/>
<path d="M0 0 C0.33 0 0.66 0 1 0 C1 12.21 1 24.42 1 37 C0.67 37 0.34 37 0 37 C0 24.79 0 12.58 0 0 Z " fill="#EFEFEF" transform="translate(5,58)"/>
<path d="M0 0 C-0.68707031 0.47050781 -1.37414062 0.94101562 -2.08203125 1.42578125 C-3.43361328 2.35970703 -3.43361328 2.35970703 -4.8125 3.3125 C-5.70582031 3.92738281 -6.59914063 4.54226562 -7.51953125 5.17578125 C-9.56100746 6.67715037 -11.28462787 8.14785401 -13 10 C-13.33 8.68 -13.66 7.36 -14 6 C-3.55905512 -1.77952756 -3.55905512 -1.77952756 0 0 Z " fill="#E93232" transform="translate(115,51)"/>
<path d="M0 0 C0.33 0.66 0.66 1.32 1 2 C0.57847656 2.62648437 0.15695313 3.25296875 -0.27734375 3.8984375 C-0.82519531 4.71570313 -1.37304688 5.53296875 -1.9375 6.375 C-2.48277344 7.18710938 -3.02804688 7.99921875 -3.58984375 8.8359375 C-5.01093879 10.92719184 -5.01093879 10.92719184 -6 13 C-6.66 12.67 -7.32 12.34 -8 12 C-7.55396127 6.94489444 -5.35299176 4.59833262 -2 1 C-1.34 0.67 -0.68 0.34 0 0 Z " fill="#A5A5A5" transform="translate(185,169)"/>
<path d="M0 0 C2.60508636 0.11391632 5.20845546 0.24065548 7.8125 0.375 C8.55048828 0.4059375 9.28847656 0.436875 10.04882812 0.46875 C13.81893115 0.67346148 15.79650741 0.86433827 19 3 C12.18597425 4.05268874 6.63198569 3.93833398 0 2 C0 1.34 0 0.68 0 0 Z " fill="#C6C4C3" transform="translate(69,116)"/>
<path d="M0 0 C0.33 0.66 0.66 1.32 1 2 C1.66 2 2.32 2 3 2 C2.85866501 3.77119803 2.71176792 5.54195287 2.5625 7.3125 C2.48128906 8.29863281 2.40007812 9.28476563 2.31640625 10.30078125 C2 13 2 13 1 16 C0.34 16 -0.32 16 -1 16 C-0.67 10.72 -0.34 5.44 0 0 Z " fill="#F2F2F2" transform="translate(186,142)"/>
<path d="M0 0 C0.99 0.33 1.98 0.66 3 1 C3 6.28 3 11.56 3 17 C2.34 16.67 1.68 16.34 1 16 C0.68758545 13.28553021 0.48663408 10.66090639 0.375 7.9375 C0.33632812 7.17888672 0.29765625 6.42027344 0.2578125 5.63867188 C0.16326438 3.75952805 0.08053244 1.87979664 0 0 Z " fill="#EE5D5D" transform="translate(126,138)"/>
<path d="M0 0 C0.99 0.33 1.98 0.66 3 1 C3 6.28 3 11.56 3 17 C2.34 16.67 1.68 16.34 1 16 C0.68758545 13.28553021 0.48663408 10.66090639 0.375 7.9375 C0.33632812 7.17888672 0.29765625 6.42027344 0.2578125 5.63867188 C0.16326438 3.75952805 0.08053244 1.87979664 0 0 Z " fill="#E35353" transform="translate(87,138)"/>
<path d="M0 0 C5.94 0.66 11.88 1.32 18 2 C17.67 2.66 17.34 3.32 17 4 C15.25008666 4.02715383 13.50005055 4.04646551 11.75 4.0625 C10.28820312 4.07990234 10.28820312 4.07990234 8.796875 4.09765625 C6.34241322 4.01195577 4.33831086 3.70706066 2 3 C2 2.34 2 1.68 2 1 C1.34 0.67 0.68 0.34 0 0 Z " fill="#BBBBBB" transform="translate(85,107)"/>
<path d="M0 0 C0.33 0.99 0.66 1.98 1 3 C-2.3621637 6.65882521 -5.36050852 9.14420341 -10 11 C-10.66 10.67 -11.32 10.34 -12 10 C-10.948125 9.278125 -9.89625 8.55625 -8.8125 7.8125 C-5.5164335 5.46773725 -2.7713246 2.93928367 0 0 Z " fill="#3181CC" transform="translate(131,87)"/>
<path d="M0 0 C2.475 0.495 2.475 0.495 5 1 C6.31626692 4.61973402 7 7.09567131 7 11 C6.34 11 5.68 11 5 11 C3.50178941 7.62902617 3 5.79557881 3 2 C2.01 2.33 1.02 2.66 0 3 C0 2.01 0 1.02 0 0 Z " fill="#F14646" transform="translate(93,136)"/>
<path d="M0 0 C0.804375 0.185625 1.60875 0.37125 2.4375 0.5625 C3.283125 0.706875 4.12875 0.85125 5 1 C5.33 0.67 5.66 0.34 6 0 C7.66617115 -0.04063832 9.33388095 -0.042721 11 0 C9.68 0.33 8.36 0.66 7 1 C7 2.65 7 4.3 7 6 C6.34 6 5.68 6 5 6 C4.67 6.99 4.34 7.98 4 9 C3.71125 8.071875 3.4225 7.14375 3.125 6.1875 C2.1125 2.90208333 2.1125 2.90208333 0 0 Z " fill="#CEB4B4" transform="translate(86,135)"/>
<path d="M0 0 C0.33 0 0.66 0 1 0 C1.16682272 4.92127034 1.24828052 8.50343896 -1 13 C-1.99 13 -2.98 13 -4 13 C-3.52140759 11.39566191 -3.04210442 9.79153584 -2.5625 8.1875 C-2.29566406 7.29417969 -2.02882813 6.40085938 -1.75390625 5.48046875 C-1.19612127 3.64526945 -0.60655425 1.81966274 0 0 Z " fill="#A89898" transform="translate(108,143)"/>
<path d="M0 0 C0.66 0.33 1.32 0.66 2 1 C1.67 1.66 1.34 2.32 1 3 C1.66 3.33 2.32 3.66 3 4 C2.236875 4.5775 1.47375 5.155 0.6875 5.75 C-1.66200917 7.71703093 -3.29323505 9.48476744 -5 12 C-5 10.35 -5 8.7 -5 7 C-4.01 6.67 -3.02 6.34 -2 6 C-1.855625 5.195625 -1.71125 4.39125 -1.5625 3.5625 C-1 1 -1 1 0 0 Z " fill="#B7B7B7" transform="translate(76,140)"/>
<path d="M0 0 C0 0.99 0 1.98 0 3 C-1.98 3.99 -1.98 3.99 -4 5 C-4 4.67 -4 4.34 -4 4 C-6.31 4 -8.62 4 -11 4 C-9 1 -9 1 -7.1875 0.3125 C-4.76407022 -0.03370425 -2.44491162 -0.06791421 0 0 Z " fill="#919191" transform="translate(178,179)"/>
<path d="M0 0 C0.33 0.66 0.66 1.32 1 2 C-0.0725 2.20625 -1.145 2.4125 -2.25 2.625 C-6.71953848 4.26383078 -7.70872764 5.94621044 -10 10 C-10.33 10 -10.66 10 -11 10 C-11.35205968 6.8314629 -11.28286337 5.40732325 -9.4375 2.75 C-6.32665983 0.51657629 -3.77258731 0.29019902 0 0 Z " fill="#ED4444" transform="translate(84,143)"/>
<path d="M0 0 C1.86610926 2.79916389 2.68785383 4.81938269 3.625 8 C4.01558594 9.299375 4.01558594 9.299375 4.4140625 10.625 C5 13 5 13 5 16 C4.01 15.67 3.02 15.34 2 15 C1.66223316 13.2508503 1.32996329 11.50063855 1 9.75 C0.814375 8.77546875 0.62875 7.8009375 0.4375 6.796875 C0 4 0 4 0 0 Z " fill="#A58080" transform="translate(93,139)"/>
<path d="M0 0 C-1.0625 1.5 -1.0625 1.5 -3 3 C-7.36706908 3.38991688 -9.30513897 3.46324069 -13 1 C-8.61414671 0.29826347 -4.44209357 -0.10834375 0 0 Z " fill="#B7B8BA" transform="translate(125,120)"/>
<path d="M0 0 C-1.125 1.5 -1.125 1.5 -3 3 C-6.1875 3.1875 -6.1875 3.1875 -9 3 C-9 2.01 -9 1.02 -9 0 C-3.375 -1.125 -3.375 -1.125 0 0 Z " fill="#CDCBCB" transform="translate(113,100)"/>
<path d="M0 0 C1.11375 0.556875 1.11375 0.556875 2.25 1.125 C-0.51223278 3.88723278 -2.95706617 3.70356291 -6.75 4.125 C-6.75 3.135 -6.75 2.145 -6.75 1.125 C-4.02098495 -0.69434337 -3.21400584 -1.02263822 0 0 Z " fill="#C1CCD5" transform="translate(127.75,113.875)"/>
<path d="M0 0 C-0.33 0.66 -0.66 1.32 -1 2 C-0.01 2.66 0.98 3.32 2 4 C-0.64 3.67 -3.28 3.34 -6 3 C-6 2.01 -6 1.02 -6 0 C-3.50907189 -1.24546405 -2.58919267 -0.7767578 0 0 Z " fill="#CCD0D5" transform="translate(79,110)"/>
<path d="M0 0 C1.41377341 2.63904371 2.37240135 5.07120629 3 8 C1.68 8.33 0.36 8.66 -1 9 C-1.625 6.1875 -1.625 6.1875 -2 3 C-1.34 2.01 -0.68 1.02 0 0 Z " fill="#CCC6C6" transform="translate(105,45)"/>
<path d="M0 0 C0.33 0 0.66 0 1 0 C1.36923077 5.41538462 1.36923077 5.41538462 -0.5 8.375 C-0.995 8.91125 -1.49 9.4475 -2 10 C-2.33 7.69 -2.66 5.38 -3 3 C-2.34 3 -1.68 3 -1 3 C-0.67 2.01 -0.34 1.02 0 0 Z " fill="#C7C0C0" transform="translate(103,140)"/>
<path d="M0 0 C3.93846154 3.32307692 3.93846154 3.32307692 4.25 6.75 C4.1675 7.4925 4.085 8.235 4 9 C0.06153846 5.67692308 0.06153846 5.67692308 -0.25 2.25 C-0.1675 1.5075 -0.085 0.765 0 0 Z " fill="#F64949" transform="translate(103,68)"/>
<path d="M0 0 C0.66 0.66 1.32 1.32 2 2 C1.01 3.485 1.01 3.485 0 5 C-0.38499891 6.65549531 -0.72793135 8.3222433 -1 10 C-1.66 9.67 -2.32 9.34 -3 9 C-3.26218749 5.85375007 -3.24754367 4.38162983 -1.5 1.6875 C-1.005 1.130625 -0.51 0.57375 0 0 Z " fill="#C4B1B1" transform="translate(105,57)"/>
<path d="M0 0 C1 2 2 4 3 6 C2.0625 8.125 2.0625 8.125 1 10 C-1.56687367 6.1496895 -0.83288724 4.41430237 0 0 Z " fill="#F73B3B" transform="translate(101,62)"/>
<path d="M0 0 C1.32 0.66 2.64 1.32 4 2 C2.71349294 2.69710731 1.42059335 3.38242876 0.125 4.0625 C-0.95394531 4.63677734 -0.95394531 4.63677734 -2.0546875 5.22265625 C-2.69664063 5.47917969 -3.33859375 5.73570313 -4 6 C-4.66 5.67 -5.32 5.34 -6 5 C-4.02 3.35 -2.04 1.7 0 0 Z " fill="#D3D1D1" transform="translate(112,52)"/>
<path d="M0 0 C2.64 0 5.28 0 8 0 C8 0.99 8 1.98 8 3 C5.36 2.67 2.72 2.34 0 2 C0 1.34 0 0.68 0 0 Z " fill="#F8F8F8" transform="translate(61,8)"/>
<path d="M0 0 C1.51400391 0.01740234 1.51400391 0.01740234 3.05859375 0.03515625 C4.07050781 0.04417969 5.08242187 0.05320313 6.125 0.0625 C7.29869141 0.07990234 7.29869141 0.07990234 8.49609375 0.09765625 C8.49609375 0.75765625 8.49609375 1.41765625 8.49609375 2.09765625 C7.86960937 2.07445312 7.243125 2.05125 6.59765625 2.02734375 C5.78039062 2.00929687 4.963125 1.99125 4.12109375 1.97265625 C2.90292969 1.93785156 2.90292969 1.93785156 1.66015625 1.90234375 C-0.71732868 1.88395574 -0.71732868 1.88395574 -2.50390625 4.09765625 C-2.83390625 3.10765625 -3.16390625 2.11765625 -3.50390625 1.09765625 C-2.50390625 0.09765625 -2.50390625 0.09765625 0 0 Z " fill="#EB1A1A" transform="translate(117.50390625,144.90234375)"/>
<path d="M0 0 C4 4.625 4 4.625 4 8 C3.01 7.67 2.02 7.34 1 7 C0.67 4.69 0.34 2.38 0 0 Z " fill="#EB0E0E" transform="translate(99,67)"/>
<path d="M0 0 C0.33 0 0.66 0 1 0 C1.25 6.625 1.25 6.625 -1 10 C-2.46726798 6.18510326 -1.43336419 3.70988378 0 0 Z " fill="#E91D1C" transform="translate(106,142)"/>
<path d="M0 0 C3.3 0 6.6 0 10 0 C10 0.33 10 0.66 10 1 C6.7 1 3.4 1 0 1 C0 0.67 0 0.34 0 0 Z " fill="#333333" transform="translate(134,193)"/>
<path d="M0 0 C3.3 0 6.6 0 10 0 C10 0.33 10 0.66 10 1 C6.7 1 3.4 1 0 1 C0 0.67 0 0.34 0 0 Z " fill="#333333" transform="translate(56,193)"/>
<path d="M0 0 C0.33 0 0.66 0 1 0 C1 3.3 1 6.6 1 10 C0.67 10 0.34 10 0 10 C0 6.7 0 3.4 0 0 Z " fill="#D6D6D6" transform="translate(193,142)"/>
<path d="M0 0 C0.33 0 0.66 0 1 0 C1 3.3 1 6.6 1 10 C0.67 10 0.34 10 0 10 C0 6.7 0 3.4 0 0 Z " fill="#D6D6D6" transform="translate(6,142)"/>
<path d="M0 0 C0.33 0 0.66 0 1 0 C1 3.3 1 6.6 1 10 C0.67 10 0.34 10 0 10 C0 6.7 0 3.4 0 0 Z " fill="#F8F8F8" transform="translate(193,48)"/>
<path d="M0 0 C0.33 0 0.66 0 1 0 C1 3.3 1 6.6 1 10 C0.67 10 0.34 10 0 10 C0 6.7 0 3.4 0 0 Z " fill="#F8F8F8" transform="translate(6,48)"/>
<path d="M0 0 C3.3 0 6.6 0 10 0 C10 0.33 10 0.66 10 1 C6.7 1 3.4 1 0 1 C0 0.67 0 0.34 0 0 Z " fill="#DDDDDD" transform="translate(134,6)"/>
<path d="M0 0 C3.3 0 6.6 0 10 0 C10 0.33 10 0.66 10 1 C6.7 1 3.4 1 0 1 C0 0.67 0 0.34 0 0 Z " fill="#DDDDDD" transform="translate(56,6)"/>
<path d="M0 0 C1.98 0 3.96 0 6 0 C6 0.33 6 0.66 6 1 C4.02 1 2.04 1 0 1 C0 0.67 0 0.34 0 0 Z " fill="#3A3A3A" transform="translate(144,192)"/>
<path d="M0 0 C1.98 0 3.96 0 6 0 C6 0.33 6 0.66 6 1 C4.02 1 2.04 1 0 1 C0 0.67 0 0.34 0 0 Z " fill="#333333" transform="translate(50,192)"/>
<path d="M0 0 C1.98 0 3.96 0 6 0 C6 0.33 6 0.66 6 1 C4.02 1 2.04 1 0 1 C0 0.67 0 0.34 0 0 Z " fill="#F0F0F0" transform="translate(144,7)"/>
<path d="M0 0 C1.98 0 3.96 0 6 0 C6 0.33 6 0.66 6 1 C4.02 1 2.04 1 0 1 C0 0.67 0 0.34 0 0 Z " fill="#F0F0F0" transform="translate(50,7)"/>
<path d="M0 0 C1.65 0 3.3 0 5 0 C5 0.33 5 0.66 5 1 C3.35 1 1.7 1 0 1 C0 0.67 0 0.34 0 0 Z " fill="#656565" transform="translate(150,191)"/>
<path d="M0 0 C1.65 0 3.3 0 5 0 C5 0.33 5 0.66 5 1 C3.35 1 1.7 1 0 1 C0 0.67 0 0.34 0 0 Z " fill="#656565" transform="translate(45,191)"/>
<path d="M0 0 C0.33 0 0.66 0 1 0 C1 1.65 1 3.3 1 5 C0.67 5 0.34 5 0 5 C0 3.35 0 1.7 0 0 Z " fill="#D8D8D8" transform="translate(192,152)"/>
<path d="M0 0 C0.33 0 0.66 0 1 0 C1 1.65 1 3.3 1 5 C0.67 5 0.34 5 0 5 C0 3.35 0 1.7 0 0 Z " fill="#D8D8D8" transform="translate(7,152)"/>
<path d="M0 0 C0.33 0 0.66 0 1 0 C1 1.65 1 3.3 1 5 C0.67 5 0.34 5 0 5 C0 3.35 0 1.7 0 0 Z " fill="#FFFFFF" transform="translate(192,43)"/>
<path d="M0 0 C0.33 0 0.66 0 1 0 C1 1.65 1 3.3 1 5 C0.67 5 0.34 5 0 5 C0 3.35 0 1.7 0 0 Z " fill="#FFFFFF" transform="translate(7,43)"/>
<path d="M0 0 C1.65 0 3.3 0 5 0 C5 0.33 5 0.66 5 1 C3.35 1 1.7 1 0 1 C0 0.67 0 0.34 0 0 Z " fill="#FFFFFF" transform="translate(150,8)"/>
<path d="M0 0 C1.65 0 3.3 0 5 0 C5 0.33 5 0.66 5 1 C3.35 1 1.7 1 0 1 C0 0.67 0 0.34 0 0 Z " fill="#FFFFFF" transform="translate(45,8)"/>
<path d="M0 0 C1 4 1 4 1 4 Z " fill="#9A9A9A" transform="translate(191,158)"/>
<path d="M0 0 C1 4 1 4 1 4 Z " fill="#9A9A9A" transform="translate(8,158)"/>
<path d="M0 0 C1 4 1 4 1 4 Z " fill="#BFBFBF" transform="translate(191,38)"/>
<path d="M0 0 C1 4 1 4 1 4 Z " fill="#BFBFBF" transform="translate(8,38)"/>
<path d="M0 0 C4 1 4 1 4 1 Z " fill="#FFFFFF" transform="translate(159,10)"/>
<path d="M0 0 C4 1 4 1 4 1 Z " fill="#FFFFFF" transform="translate(37,10)"/>
<path d="M0 0 C3 1 3 1 3 1 Z " fill="#7F7F7F" transform="translate(156,190)"/>
<path d="M0 0 C3 1 3 1 3 1 Z " fill="#7F7F7F" transform="translate(41,190)"/>
<path d="M0 0 C3 1 3 1 3 1 Z " fill="#383838" transform="translate(163,188)"/>
<path d="M0 0 C3 1 3 1 3 1 Z " fill="#383838" transform="translate(34,188)"/>
<path d="" fill="#6A6A6A" transform="translate(0,0)"/>
<path d="" fill="#6A6A6A" transform="translate(0,0)"/>
<path d="" fill="#FFFFFF" transform="translate(0,0)"/>
<path d="" fill="#FFFFFF" transform="translate(0,0)"/>
<path d="M0 0 C3 1 3 1 3 1 Z " fill="#FFFFFF" transform="translate(163,11)"/>
<path d="M0 0 C3 1 3 1 3 1 Z " fill="#FFFFFF" transform="translate(34,11)"/>
<path d="M0 0 C3 1 3 1 3 1 Z " fill="#E9E9E9" transform="translate(156,9)"/>
<path d="M0 0 C3 1 3 1 3 1 Z " fill="#E9E9E9" transform="translate(41,9)"/>
<path d="M0 0 C2 1 2 1 2 1 Z " fill="#555555" transform="translate(166,187)"/>
<path d="M0 0 C2 1 2 1 2 1 Z " fill="#555555" transform="translate(32,187)"/>
<path d="" fill="#7F7F7F" transform="translate(0,0)"/>
<path d="" fill="#7F7F7F" transform="translate(0,0)"/>
<path d="" fill="#FFFFFF" transform="translate(0,0)"/>
<path d="" fill="#FFFFFF" transform="translate(0,0)"/>
<path d="" fill="#FFFFFF" transform="translate(0,0)"/>
<path d="" fill="#FFFFFF" transform="translate(0,0)"/>
<path d="" fill="#FFFFFF" transform="translate(0,0)"/>
<path d="" fill="#FFFFFF" transform="translate(0,0)"/>
<path d="" fill="#BFBFBF" transform="translate(0,0)"/>
<path d="" fill="#9F9F9F" transform="translate(0,0)"/>
<path d="" fill="#BFBFBF" transform="translate(0,0)"/>
<path d="" fill="#FFFFFF" transform="translate(0,0)"/>
<path d="" fill="#FFFFFF" transform="translate(0,0)"/>
<path d="" fill="#FFFFFF" transform="translate(0,0)"/>
<path d="" fill="#FFFFFF" transform="translate(0,0)"/>
<path d="" fill="#FFFFFF" transform="translate(0,0)"/>
<path d="" fill="#FFFFFF" transform="translate(0,0)"/>
<path d="" fill="#FFFFFF" transform="translate(0,0)"/>
<path d="" fill="#FFFFFF" transform="translate(0,0)"/>
<path d="" fill="#FFFFFF" transform="translate(0,0)"/>
<path d="M0 0 C2 1 2 1 2 1 Z " fill="#D4D4D4" transform="translate(166,12)"/>
<path d="M0 0 C2 1 2 1 2 1 Z " fill="#D4D4D4" transform="translate(32,12)"/>
<path d="" fill="#7F7F7F" transform="translate(0,0)"/>
<path d="" fill="#7F7F7F" transform="translate(0,0)"/>
<path d="" fill="#7F7F7F" transform="translate(0,0)"/>
<path d="" fill="#7F7F7F" transform="translate(0,0)"/>
<path d="" fill="#FF7F7F" transform="translate(0,0)"/>
<path d="" fill="#7FFF7F" transform="translate(0,0)"/>
<path d="" fill="#7F7F7F" transform="translate(0,0)"/>
<path d="" fill="#7F7F7F" transform="translate(0,0)"/>
<path d="" fill="#AAAAAA" transform="translate(0,0)"/>
<path d="" fill="#AAAAAA" transform="translate(0,0)"/>
<path d="" fill="#FFFFFF" transform="translate(0,0)"/>
<path d="" fill="#FFFFFF" transform="translate(0,0)"/>
<path d="" fill="#FFFFFF" transform="translate(0,0)"/>
<path d="" fill="#FFFFFF" transform="translate(0,0)"/>
<path d="" fill="#FFFFFF" transform="translate(0,0)"/>
<path d="" fill="#FFFFFF" transform="translate(0,0)"/>
<path d="" fill="#FFFFFF" transform="translate(0,0)"/>
<path d="" fill="#FFFFFF" transform="translate(0,0)"/>
<path d="" fill="#FFFFFF" transform="translate(0,0)"/>
<path d="" fill="#FFFFFF" transform="translate(0,0)"/>
</svg>
