<svg version="1.1" id="Layer_1" xmlns="http://www.w3.org/2000/svg" xmlns:xlink="http://www.w3.org/1999/xlink" x="0px" y="0px" viewBox="0 0 159.2 94.8" style="enable-background:new 0 0 159.2 94.8;" xml:space="preserve">
 <style type="text/css">
  .st0{fill:url(#SVGID_1_);}
	.st1{fill:url(#SVGID_2_);}
	.st2{fill:url(#SVGID_3_);}
	.st3{fill:url(#SVGID_4_);}
	.st4{clip-path:url(#SVGID_6_);fill:url(#SVGID_7_);}
	.st5{clip-path:url(#SVGID_9_);fill:url(#SVGID_10_);}
	.st6{clip-path:url(#SVGID_12_);fill:url(#SVGID_13_);}
	.st7{fill:url(#SVGID_14_);}
	.st8{clip-path:url(#SVGID_16_);fill:url(#SVGID_17_);}
	.st9{clip-path:url(#SVGID_19_);fill:url(#SVGID_20_);}
	.st10{fill:url(#SVGID_21_);}
	.st11{fill:url(#SVGID_22_);}
	.st12{fill:url(#SVGID_23_);}
	.st13{fill:url(#SVGID_24_);}
 </style>
 <g>
  <linearGradient id="SVGID_1_" gradientUnits="userSpaceOnUse" x1="51.0767" y1="67.4351" x2="60.9725" y2="58.6182">
   <stop offset="0" style="stop-color:#BE3F8B">
   </stop>
   <stop offset="0.9497" style="stop-color:#664092">
   </stop>
  </linearGradient>
  <path class="st0" d="M53.1,64.5c-3,0-4.3-1.7-4.4-4.1c0.2,2.9,1.1,6.7,4.3,8.6c0.7,0.4,1.4,0.8,2.3,1c0.5,0.2,1.1,0.3,1.8,0.3
		c2.1-0.8,3.9-2,6.6-6.4c-0.7-0.6-3.3-5.8-3.6-6.4C59.3,61.8,56.2,64.5,53.1,64.5">
  </path>
  <linearGradient id="SVGID_2_" gradientUnits="userSpaceOnUse" x1="71.1282" y1="38.1948" x2="71.1282" y2="70.8649">
   <stop offset="0" style="stop-color:#E53121">
   </stop>
   <stop offset="1" style="stop-color:#E72F7C">
   </stop>
  </linearGradient>
  <path class="st1" d="M63.1,42.5c-2.1,2.1-3.7,5.2-4.3,8.3c0,0.3,0,0.7,0,1c0,0.2,0,0.3,0,0.5c0,1.2,0.1,2.3,0.3,3.4
		c0.2,1.1,0.5,2.7,1.3,4.4c0.3,0.6,0.6,1.3,0.9,2c0.4,0.8,0.9,1.5,1.4,2.3c0.6,0.8,1.2,1.5,2,2.1c3.1,2.8,7.3,4.5,12.4,4.5
		c1.6,0,3.5-0.1,5.2-0.4c0,0,0,0,0,0c0.5-0.1,0.9-0.2,1.3-0.3c-9-1.3-12.9-5.5-14.7-7.5c-0.2-0.2-0.4-0.5-0.6-0.7
		c-0.1-0.1-0.2-0.3-0.4-0.4c-0.3-0.4-0.6-0.8-0.9-1.3c-0.2-0.3-0.3-0.5-0.4-0.8c-0.2-0.4-0.3-0.7-0.5-1.1c-0.6-1.6-1-3.4-1-5.3
		c0-0.1,0-0.3,0-0.4c0-0.1,0-0.1,0-0.2c0-0.1,0-0.2,0-0.2c0-0.3,0-0.6,0-0.8c0,0,0-0.1,0-0.1c0-0.3,0-0.5,0.1-0.8
		C65.8,43.8,70,39,77.5,39c1.9,0,3.4,0.3,4.8,0.7c-0.3-0.1-0.7-0.3-1-0.4c-2.2-0.8-4.6-1.2-7-1.2C70.2,38.2,66.1,39.5,63.1,42.5">
  </path>
  <linearGradient id="SVGID_3_" gradientUnits="userSpaceOnUse" x1="50.7589" y1="23.6777" x2="50.7589" y2="71.0799">
   <stop offset="0" style="stop-color:#E53121">
   </stop>
   <stop offset="1" style="stop-color:#E72F7C">
   </stop>
  </linearGradient>
  <path class="st2" d="M45.4,23.7c-1.8,0-3.2,1.4-3.2,3.1l0,28.5c0,2.7,0.6,9.1,2.7,11.9c1.1,1.4,2.4,2.4,4,3.1
		c1.3,0.5,2.7,0.8,4.1,0.8c0.8,0,1.6-0.1,2.4-0.2c0.3-0.1,0.6-0.1,0.9-0.2c0.3-0.1,0.5-0.2,0.8-0.3c-0.6-0.1-1.2-0.2-1.8-0.4
		c-0.9-0.3-1.7-0.6-2.4-1c-3.2-2-4.1-5.8-4.3-9.3l0-20.6h8.1c1.4,0,2.6-1.2,2.6-2.6c0-1.4-1.2-2.6-2.6-2.6h-8.1v-7.1
		C48.6,25.1,47.3,23.7,45.4,23.7">
  </path>
  <linearGradient id="SVGID_4_" gradientUnits="userSpaceOnUse" x1="45.4164" y1="23.6777" x2="45.4164" y2="45.8376">
   <stop offset="0" style="stop-color:#FFCB00">
   </stop>
   <stop offset="1" style="stop-color:#E84D22">
   </stop>
  </linearGradient>
  <path class="st3" d="M45.4,23.7c-1.8,0-3.2,1.4-3.2,3.1c0,0,0,13.5,0,19c0-7.3,2.8-12,6.4-12v-7.1C48.6,25.1,47.3,23.7,45.4,23.7">
  </path>
  <g>
   <defs>
    <polyline id="SVGID_5_" points="98.6,36.5 98.6,36.5 98.6,36.5 			">
    </polyline>
   </defs>
   <clipPath id="SVGID_6_">
    <use href="#SVGID_5_" style="overflow:visible;">
    </use>
   </clipPath>
   <linearGradient id="SVGID_7_" gradientUnits="userSpaceOnUse" x1="98.5338" y1="36.4737" x2="98.7052" y2="36.4737">
    <stop offset="0" style="stop-color:#92C03A">
    </stop>
    <stop offset="0.34" style="stop-color:#5EC0CB">
    </stop>
    <stop offset="0.69" style="stop-color:#7F9CD1">
    </stop>
    <stop offset="1" style="stop-color:#977DB7">
    </stop>
   </linearGradient>
   <rect x="98.6" y="36.5" class="st4" width="0" height="0">
   </rect>
  </g>
  <g>
   <defs>
    <path id="SVGID_8_" d="M99.5,35.6L99.5,35.6C99.5,35.6,99.5,35.6,99.5,35.6C99.5,35.6,99.5,35.6,99.5,35.6 M99.5,35.6L99.5,35.6
				L99.5,35.6L99.5,35.6z M99.5,35.6C99.5,35.6,99.5,35.6,99.5,35.6C99.5,35.6,99.5,35.6,99.5,35.6z">
    </path>
   </defs>
   <clipPath id="SVGID_9_">
    <use xlink:href="#SVGID_8_" style="overflow:visible;">
    </use>
   </clipPath>
   <linearGradient id="SVGID_10_" gradientUnits="userSpaceOnUse" x1="93.5021" y1="35.6132" x2="105.4642" y2="35.6132">
    <stop offset="0" style="stop-color:#92C03A">
    </stop>
    <stop offset="0.34" style="stop-color:#5EC0CB">
    </stop>
    <stop offset="0.69" style="stop-color:#7F9CD1">
    </stop>
    <stop offset="1" style="stop-color:#977DB7">
    </stop>
   </linearGradient>
   <rect x="99.5" y="35.6" class="st5" width="0" height="0">
   </rect>
  </g>
  <g>
   <defs>
    <path id="SVGID_11_" d="M112.1,69.5L112.1,69.5C112.1,69.5,112.1,69.5,112.1,69.5C112.1,69.5,112.1,69.5,112.1,69.5 M112.1,69.5
				C112.1,69.5,112.1,69.5,112.1,69.5C112.1,69.5,112.1,69.5,112.1,69.5z">
    </path>
   </defs>
   <clipPath id="SVGID_12_">
    <use xlink:href="#SVGID_11_" style="overflow:visible;">
    </use>
   </clipPath>
   <linearGradient id="SVGID_13_" gradientUnits="userSpaceOnUse" x1="116.0457" y1="69.5061" x2="175.2603" y2="69.5061">
    <stop offset="0" style="stop-color:#92C03A">
    </stop>
    <stop offset="0.34" style="stop-color:#5EC0CB">
    </stop>
    <stop offset="0.69" style="stop-color:#7F9CD1">
    </stop>
    <stop offset="1" style="stop-color:#977DB7">
    </stop>
   </linearGradient>
   <rect x="112.1" y="69.5" class="st6" width="0" height="0">
   </rect>
  </g>
  <linearGradient id="SVGID_14_" gradientUnits="userSpaceOnUse" x1="112.7615" y1="60.8704" x2="97.1148" y2="71.0315">
   <stop offset="0" style="stop-color:#C73E88">
   </stop>
   <stop offset="0.8442" style="stop-color:#6B4790">
   </stop>
  </linearGradient>
  <path class="st7" d="M110.6,61c0,3.2-2.3,4.7-5.8,4.7c-2.8,0-4.8-0.9-6.2-1.5c-2.3-0.9-4,0.7-4,2.4c0,1.1,0.8,1.8,1.7,2.3
		c0.9,0.5,1.9,0.8,2.8,1.1c1.9,0.6,4,0.8,6,0.8c1.4,0,2.8-0.1,4.1-0.4c1.3-0.3,2.7-0.7,3.7-1.6c0.1-0.1,0.2-0.2,0.3-0.3
		c0.6-0.9,0.7-2.1,0.7-3c0-3-1.5-5.7-3.8-7.8c-0.7-0.7-1.3-1.4-2.4-2C109.7,57.2,110.6,58.8,110.6,61">
  </path>
  <g>
   <defs>
    <path id="SVGID_15_" d="M82.2,70.4C82.2,70.4,82.2,70.4,82.2,70.4C82.2,70.4,82.2,70.4,82.2,70.4">
    </path>
   </defs>
   <clipPath id="SVGID_16_">
    <use xlink:href="#SVGID_15_" style="overflow:visible;">
    </use>
   </clipPath>
   <linearGradient id="SVGID_17_" gradientUnits="userSpaceOnUse" x1="20.578" y1="70.4147" x2="107.2013" y2="70.4147">
    <stop offset="0" style="stop-color:#92C03A">
    </stop>
    <stop offset="0.34" style="stop-color:#5EC0CB">
    </stop>
    <stop offset="0.69" style="stop-color:#7F9CD1">
    </stop>
    <stop offset="1" style="stop-color:#977DB7">
    </stop>
   </linearGradient>
   <rect x="82.2" y="70.4" class="st8" width="0" height="0">
   </rect>
  </g>
  <g>
   <defs>
    <path id="SVGID_18_" d="M98.2,36.8L98.2,36.8L98.2,36.8z">
    </path>
   </defs>
   <clipPath id="SVGID_19_">
    <use xlink:href="#SVGID_18_" style="overflow:visible;">
    </use>
   </clipPath>
   <linearGradient id="SVGID_20_" gradientUnits="userSpaceOnUse" x1="98.1518" y1="36.7998" x2="98.2701" y2="36.7998">
    <stop offset="0" style="stop-color:#92C03A">
    </stop>
    <stop offset="0.34" style="stop-color:#5EC0CB">
    </stop>
    <stop offset="0.69" style="stop-color:#7F9CD1">
    </stop>
    <stop offset="1" style="stop-color:#977DB7">
    </stop>
   </linearGradient>
   <rect x="98.2" y="36.8" class="st9" width="0" height="0">
   </rect>
  </g>
  <linearGradient id="SVGID_21_" gradientUnits="userSpaceOnUse" x1="73.9677" y1="68.5589" x2="104.9114" y2="41.9431">
   <stop offset="2.791880e-02" style="stop-color:#C53E85">
   </stop>
   <stop offset="0.8597" style="stop-color:#5E378C">
   </stop>
  </linearGradient>
  <path class="st10" d="M98.2,36.8L98.2,36.8c-0.1,0.1-0.2,0.2-0.4,0.3c-0.9,0.9-1.6,1.9-2.2,3c-0.5,1-0.9,2-1.2,3
		c-0.4,1.2-0.7,2.4-0.9,3.6c-0.9,4-1.5,8.2-3.4,11.7c-1.5,2.8-3.8,4.7-6.7,6.1c-1.7,0.7-3.5,1.2-5.9,1.2c-1.2,0-2.2-0.1-3.3-0.3
		c-2.5-0.6-4.5-1.8-6-3.6c0.2,0.3,0.4,0.5,0.6,0.7c1.8,2,5.7,6.3,14.7,7.5c0.9-0.2,1.7-0.5,2.5-0.9c0.9-0.5,1.7-1,2.5-1.5
		c1.3-0.9,2.4-1.9,3.4-3.1c1.6-1.9,2.9-4,3.9-6.3c0.4-0.9,0.7-1.8,1-2.8c0.2-0.5,0.3-1.1,0.4-1.6c0.4-1.7,0.9-3.9,1.2-5.6
		c0,0-1.3-3.3-1.4-5.3c-0.1-1.4,0.2-2.8,0.6-4.2c0.1-0.7,0.3-0.9,0.6-1.5c0-0.1,0.1-0.1,0.1-0.2c0,0,0.5-0.3,0.4-0.4
		c0,0,0.8-0.9,0.8-0.9C99.5,35.8,98.3,36.7,98.2,36.8">
  </path>
  <linearGradient id="SVGID_22_" gradientUnits="userSpaceOnUse" x1="58.7689" y1="42.3523" x2="89.1858" y2="42.3523">
   <stop offset="0" style="stop-color:#FFCB00">
   </stop>
   <stop offset="1" style="stop-color:#E84D22">
   </stop>
  </linearGradient>
  <path class="st11" d="M71.5,34.6c-1.5,0.4-3,1-4.3,1.8c-1.3,0.8-2.5,1.7-3.5,2.8c-0.2,0.2-0.3,0.3-0.5,0.5c-0.5,0.6-1,1.2-1.5,1.9
		c-0.3,0.4-0.5,0.8-0.8,1.3c0,0,0,0,0,0c-1.2,2.3-2,5-2.2,7.9c0.5-3.1,2.2-6.2,4.3-8.3c4.8-4.8,12.1-5.3,18.2-3.1
		c0.3,0.1,0.7,0.2,1,0.4c0.7,0.3,1.5,0.6,2.2,1c0.2,0.1,0.4,0.2,0.6,0.3c0.5,0.3,0.9,0.5,1.5,0.5c0.2,0,0.4,0,0.7-0.1
		c1.1-0.3,1.9-1.3,1.9-2.6c0-1-0.5-1.6-1.2-2.1c-2.2-1.6-5.2-2.3-7.8-2.6c-1.1-0.1-2.2-0.2-3.3-0.2C75.1,33.9,73.3,34.1,71.5,34.6">
  </path>
  <linearGradient id="SVGID_23_" gradientUnits="userSpaceOnUse" x1="97.3819" y1="40.599" x2="115.8949" y2="40.599">
   <stop offset="0" style="stop-color:#FFCB00">
   </stop>
   <stop offset="1" style="stop-color:#E84D22">
   </stop>
  </linearGradient>
  <path class="st12" d="M99.9,35.5c-1.1,0.7-1.8,1.9-2.2,3.1c-0.2,0.8-0.4,1.6-0.2,2.4c0.3,1.3,1.4,2.2,2.4,2.9c1.9,1.3,4,2.2,6,3.4
		c-1-0.8-2-1.6-2.7-2.7c-0.6-1.1-0.9-2.5-0.3-3.7c0.5-0.9,1.4-1.5,2.4-1.8c1-0.3,2-0.2,3-0.1c1.2,0.2,2.3,0.5,3.4,0.9
		c0.6,0.2,1.1,0.4,1.7,0.4c0.7,0,1.4-0.4,1.9-0.9c0.4-0.6,0.6-1.3,0.5-2c-0.3-1.1-1.3-1.9-2.3-2.4c-1.5-0.7-3.1-0.9-4.8-1
		c-1.4-0.1-2.9-0.2-4.3,0c-1.4,0.2-2.8,0.5-4.1,1.2c-0.1,0-0.1,0.1-0.2,0.1L99.9,35.5z">
  </path>
  <linearGradient id="SVGID_24_" gradientUnits="userSpaceOnUse" x1="96.4991" y1="39.5546" x2="116.7116" y2="66.1836">
   <stop offset="0" style="stop-color:#E53121">
   </stop>
   <stop offset="1" style="stop-color:#E72F7C">
   </stop>
  </linearGradient>
  <path class="st13" d="M98.7,48.5c1,1.6,2.6,2.7,4.1,3.8c1.7,1.2,3.3,2.4,5,3.5c1.2,0.8,2.3,1.8,3.2,2.9c1.7,2,3.2,4.4,3.1,7.1
		c0,0.5-0.1,1-0.2,1.4c-0.2,0.8-0.7,1.8-1.5,2.3c3.8-2.2,5.3-6.6,4.3-10.8c-0.9-4.1-4.2-6.8-7.5-9.2c-0.6-0.5-1.3-0.9-2-1.4
		c-0.7-0.4-1.4-0.8-2-1.2c-0.6-0.3-1.1-0.7-1.7-1c-0.8-0.5-1.6-1-2.3-1.5c-1.2-0.8-2.5-1.8-3.1-3.1c-0.4-0.8-0.6-1.7-0.4-2.6
		C96.7,41.8,96.9,45.7,98.7,48.5">
  </path>
 </g>
</svg>